SplineFontDB: 3.0
FontName: Kinnari-Italic
FullName: Kinnari Italic
FamilyName: Kinnari
Weight: Medium
Copyright: Kinnari Italic by TLWG, based on Kinnari Normal and Norasi Italic.\nCopyright (C) 1999 Db Type. All Rights Reserved.\nCopyright (C) 2007 National Electronics and Computer Technology Center. All Rights Reserved.
Version: 001.011: 2014-02-12
ItalicAngle: -15.5
UnderlinePosition: -70
UnderlineWidth: 25
Ascent: 800
Descent: 200
LayerCount: 2
Layer: 0 0 "Back"  1
Layer: 1 0 "Fore"  0
FSType: 0
OS2Version: 0
OS2_WeightWidthSlopeOnly: 0
OS2_UseTypoMetrics: 0
CreationTime: 1136287438
ModificationTime: 1392213882
PfmFamily: 17
TTFWeight: 500
TTFWidth: 5
LineGap: 0
VLineGap: 0
Panose: 0 0 0 0 0 0 0 0 0 0
OS2TypoAscent: 0
OS2TypoAOffset: 1
OS2TypoDescent: 0
OS2TypoDOffset: 1
OS2TypoLinegap: 0
OS2WinAscent: 1286
OS2WinAOffset: 0
OS2WinDescent: 496
OS2WinDOffset: 0
HheadAscent: 1286
HheadAOffset: 0
HheadDescent: -496
HheadDOffset: 0
OS2Vendor: 'PfEd'
Lookup: 4 0 1 "'liga' Standard Ligatures in Latin lookup 2"  {"'liga' Standard Ligatures in Latin lookup 2 subtable"  } ['liga' ('latn' <'dflt' > ) ]
Lookup: 6 0 0 "'ccmp' Thai Conditional Descender Removal"  {"'ccmp' Thai Conditional Descender Removal"  } ['ccmp' ('DFLT' <'dflt' > 'thai' <'KUY ' 'THA ' 'dflt' > ) ]
Lookup: 1 0 0 "'ccmp' Pali-Sanskrit Descender Removal"  {"'ccmp' Pali-Sanskrit Descender Removal" ("descless" ) } ['ccmp' ('thai' <'PAL ' 'SAN ' > ) ]
Lookup: 6 0 0 "'ccmp' Thai General Composition"  {"'ccmp' Thai Below Vowel Tone Reordering"  "'ccmp' Thai General Composition"  } ['ccmp' ('DFLT' <'dflt' > 'thai' <'KUY ' 'PAL ' 'SAN ' 'THA ' 'dflt' > ) ]
Lookup: 1 0 0 "Thai Descender Removal Single Substitution"  {"Thai Descender Removal Single Substitution" ("descless" ) } []
Lookup: 2 0 0 "Thai Sara Am Decomposition"  {"Thai Sara Am Decomposition"  } []
Lookup: 2 0 0 "Thai Tone Nikhahit Attachment"  {"Thai Tone Nikhahit Attachment"  } []
Lookup: 1 0 0 "Thai Sara Am Lakkhang"  {"Thai Sara Am Lakkhang"  } []

StartChar: .notdef
Encoding: 0 0 0
Width: 384
Flags: W
HStem: 0 23<28 366> 568 23<144 482>
DStem2: 0 0 28 23 0.208512 0.97802<28.3328 585.541> 366 23 384 0 0.208512 0.97802<0 557.208>
LayerCount: 2
Fore
SplineSet
144 568 m 1
 28 23 l 1
 366 23 l 1
 482 568 l 1
 144 568 l 1
384 0 m 1
 0 0 l 1
 126 591 l 1
 510 591 l 1
 384 0 l 1
EndSplineSet
EndChar

StartChar: exclam
Encoding: 33 33 2
Width: 332
Flags: W
HStem: -12 107<50.4748 133.228> 646 20G<244 275.5>
VStem: 40 105<-0.303474 83.2284> 192 110<537.808 628.179>
LayerCount: 2
Fore
SplineSet
138 177 m 1
 120 182 l 1
 161 371 168 407 192 551 c 1
 207 634 226 666 262 666 c 0
 289 666 302 649 302 617 c 0
 302 545 258 518 138 177 c 1
91 95 m 0
 120 95 145 70 145 41 c 0
 145 13 120 -12 89 -12 c 0
 62 -12 40 12 40 42 c 0
 40 70 64 95 91 95 c 0
EndSplineSet
EndChar

StartChar: numbersign
Encoding: 35 35 4
Width: 499
Flags: W
HStem: 0 21G<18 86.4528 208 277.453> 212 55<13 97 179 289 371 454> 410 54<86 171 253 363 444 529> 657 20G<264.488 333 455.394 524>
DStem2: 18 0 79 0 0.351275 0.936272<21.4278 226.24 306.54 437.617 516.98 723.08> 208 0 270 0 0.352486 0.935817<21.8542 226.945 307.318 438.32 517.406 723.432>
LayerCount: 2
Fore
SplineSet
464 267 m 1
 454 212 l 1
 349 212 l 1
 270 0 l 1
 208 0 l 1
 289 212 l 1
 158 212 l 1
 79 0 l 1
 18 0 l 1
 97 212 l 1
 1 212 l 1
 13 267 l 1
 119 267 l 1
 171 410 l 1
 76 410 l 1
 86 464 l 1
 192 464 l 1
 272 677 l 1
 333 677 l 1
 253 464 l 1
 382 464 l 1
 463 677 l 1
 524 677 l 1
 444 464 l 1
 541 464 l 1
 529 410 l 1
 423 410 l 1
 371 267 l 1
 464 267 l 1
363 410 m 1
 233 410 l 1
 179 267 l 1
 309 267 l 1
 363 410 l 1
EndSplineSet
EndChar

StartChar: dollar
Encoding: 36 36 5
Width: 499
Flags: W
HStem: 0 25<221 285.692> 1 31<147.756 182> 642 26<259.141 335>
VStem: 59 16<159.25 190> 123 78<473.586 587.308> 379 77<102.042 237.659> 454 15<499 526.5>
DStem2: 160 -89 193 -89 0.236956 0.97152<7.81955 92.6499 125.208 414.318 523.649 750.962 782.285 843.327>
LayerCount: 2
Fore
SplineSet
497 612 m 1x7c
 469 498 l 1
 454 499 l 1x7a
 453 574 431 609 369 633 c 1
 313 395 l 1
 431 305 456 270 456 190 c 0
 456 120 420 60 360 29 c 0
 322 10 289 3 215 0 c 1xbc
 193 -89 l 1
 160 -89 l 1
 182 1 l 1
 119 15 67 37 31 67 c 1
 59 190 l 1
 75 193 l 1
 85 88 111 51 189 32 c 1
 258 330 l 1
 207 366 186 382 166 410 c 1
 135 445 123 476 123 513 c 0
 123 565 151 612 198 639 c 1
 239 664 267 668 341 668 c 1
 357 731 l 1
 393 731 l 1
 376 664 l 1
 423 652 464 636 497 612 c 1x7c
283 420 m 1
 335 642 l 1
 296 642 287 640 268 633 c 0
 226 618 201 583 201 538 c 0
 201 494 220 464 283 420 c 1
289 306 m 1
 221 25 l 1
 327 34 379 79 379 163 c 0xbc
 379 215 363 245 294 300 c 1
 289 306 l 1
EndSplineSet
EndChar

StartChar: percent
Encoding: 37 37 6
Width: 832
Flags: W
HStem: -13 21G<220 278.188> 0 29<563.285 651.994> 289 35<172.369 266.865> 338 33<647.039 735.576> 583 25<395.854 529.162> 631 31<262.171 327.227> 657 20G<587 653>
VStem: 79 76<342.898 491.803> 376 27<471.553 592.166> 469 74<49.2396 195.85> 765 25<187.934 302.161>
DStem2: 220 -13 267 -13 0.488218 0.872722<22.9463 716.327 730.837 793.559>
LayerCount: 2
Fore
SplineSet
683 371 m 0x79e0
 750 371 790 330 790 264 c 0
 790 187 757 108 705 51 c 1
 672 18 631 0 587 0 c 0
 513 0 469 50 469 136 c 0
 469 252 577 371 683 371 c 0x79e0
694 338 m 0
 662 338 634 319 606 280 c 1
 573 231 543 149 543 101 c 0
 543 54 564 29 605 29 c 0
 634 29 664 44 686 67 c 1
 732 119 765 196 765 259 c 0
 765 303 732 338 694 338 c 0
653 677 m 1x3be0
 267 -13 l 1
 220 -13 l 1
 570 612 l 1
 527 590 504 583 458 583 c 0
 431 583 416 584 395 593 c 1
 397 590 397 590 397 587 c 0
 401 570 403 554 403 541 c 0
 403 489 374 413 335 363 c 0
 297 315 249 289 198 289 c 0
 130 289 79 346 79 419 c 0
 79 542 187 662 297 662 c 0xbde0
 324 662 352 653 365 642 c 1
 382 625 l 1
 395 614 420 608 453 608 c 0
 519 608 562 627 612 677 c 1
 653 677 l 1x3be0
368 601 m 1
 341 606 333 611 316 624 c 0
 309 630 305 631 300 631 c 0
 237 631 155 494 155 387 c 0
 155 347 179 324 214 324 c 0
 296 324 376 437 376 549 c 0
 376 565 375 579 368 601 c 1
EndSplineSet
EndChar

StartChar: ampersand
Encoding: 38 38 7
Width: 777
Flags: W
HStem: -18 49<231.648 356.469 580.204 671.495> 331 19<530 569.963 669.556 715> 634 32<433.835 507.366>
VStem: 76 94<92.1516 219.768> 324 80<428.969 570.395> 517 69<508.06 629.133>
LayerCount: 2
Fore
SplineSet
586 573 m 0
 586 503 518 449 415 397 c 1
 438 294 469 209 501 160 c 1
 564 236 580 265 580 299 c 0
 580 321 568 328 530 331 c 1
 530 350 l 1
 715 350 l 1
 715 333 l 1
 643 326 658 314 520 125 c 1
 560 59 595 31 642 31 c 0
 665 31 683 40 712 62 c 1
 724 50 l 1
 680 1 645 -18 595 -18 c 0
 541 -18 502 4 457 62 c 1
 354 -4 321 -18 258 -18 c 0
 146 -18 76 42 76 141 c 0
 76 275 232 334 331 378 c 1
 328 416 324 435 324 460 c 0
 324 582 390 666 483 666 c 0
 542 666 586 625 586 573 c 0
333 346 m 1
 233 308 170 236 170 164 c 0
 170 91 226 34 297 34 c 0
 349 34 391 51 438 89 c 1
 404 133 369 218 333 346 c 1
410 428 m 1
 466 464 517 493 517 577 c 0
 517 617 504 634 472 634 c 0
 428 634 404 592 404 504 c 0
 404 478 406 458 410 428 c 1
EndSplineSet
EndChar

StartChar: quotesingle
Encoding: 39 39 8
Width: 213
Flags: W
HStem: 420 246
VStem: 155 87<574.553 654.847>
LayerCount: 2
Fore
SplineSet
152 420 m 1
 132 420 l 1
 138 476 146 593 155 625 c 0
 163 650 187 666 208 666 c 0
 230 666 242 652 242 636 c 0
 242 618 193 510 152 420 c 1
EndSplineSet
EndChar

StartChar: parenleft
Encoding: 40 40 9
Width: 332
Flags: W
VStem: 42 69<3.43808 282.121>
LayerCount: 2
Fore
SplineSet
141 -182 m 1
 114 -133 42 -17 42 180 c 0
 42 256 53 318 79 381 c 0
 122 485 171 551 302 669 c 1
 315 653 l 1
 250 586 218 539 186 460 c 0
 141 349 111 205 111 85 c 0
 111 -12 123 -75 160 -174 c 1
 141 -182 l 1
EndSplineSet
EndChar

StartChar: parenright
Encoding: 41 41 10
Width: 332
Flags: W
VStem: 220 69<202.833 480.478>
LayerCount: 2
Fore
SplineSet
190 669 m 1
 211 630 289 509 289 305 c 0
 289 230 277 167 249 101 c 0
 204 -7 152 -72 29 -180 c 1
 16 -166 l 1
 78 -101 107 -59 136 6 c 1
 186 113 220 275 220 401 c 0
 220 502 205 583 171 664 c 1
 190 669 l 1
EndSplineSet
EndChar

StartChar: asterisk
Encoding: 42 42 11
Width: 499
Flags: W
HStem: 338 82<134.91 201.126 418.191 485.514> 501 81<134.097 200.63 417.005 485.879> 646 20G<300 321>
VStem: 272 75<258.767 365.215 548.325 661.953> 302 17<365.953 444.257 476 548.325>
LayerCount: 2
Fore
SplineSet
319 499 m 2xe8
 319 473 l 1
 362 502 368 505 417 561 c 0
 434 579 441 582 454 582 c 0
 476 582 492 567 492 545 c 0
 492 519 478 508 435 501 c 0
 388 494 371 486 328 458 c 1
 365 439 l 2
 379 432 403 425 431 420 c 0
 475 413 492 401 492 378 c 0
 492 356 475 338 454 338 c 0
 439 338 428 347 409 371 c 0
 382 403 359 423 327 442 c 1
 319 445 l 1xe8
 319 393 324 371 338 330 c 1
 346 311 347 303 347 294 c 0
 347 272 331 255 308 255 c 0
 289 255 272 271 272 293 c 0xf0
 272 302 275 313 283 334 c 0
 297 371 302 395 302 417 c 0
 302 422 302 429 300 445 c 1
 297 442 294 441 286 437 c 0
 253 417 240 404 212 371 c 0
 196 352 180 340 163 340 c 0
 144 340 127 357 127 376 c 0
 127 400 145 413 187 420 c 0
 233 428 250 435 294 461 c 1
 283 469 l 1
 258 483 226 494 189 499 c 1
 144 508 127 519 127 546 c 0
 127 565 144 582 163 582 c 0
 179 582 190 574 209 551 c 1
 242 516 262 498 300 476 c 1
 300 519 297 542 284 587 c 0
 277 608 275 617 275 625 c 0
 275 650 289 666 311 666 c 0
 331 666 346 650 346 627 c 0
 346 617 343 603 335 577 c 0
 324 543 319 521 319 499 c 2xe8
EndSplineSet
EndChar

StartChar: plus
Encoding: 43 43 12
Width: 673
Flags: W
HStem: 0 21G<305 371> 220 66<86 305 371 590>
VStem: 305 66<0 220 286 505>
LayerCount: 2
Fore
SplineSet
305 286 m 1
 305 505 l 1
 371 505 l 1
 371 286 l 1
 590 286 l 1
 590 220 l 1
 371 220 l 1
 371 0 l 1
 305 0 l 1
 305 220 l 1
 86 220 l 1
 86 286 l 1
 305 286 l 1
EndSplineSet
EndChar

StartChar: comma
Encoding: 44 44 13
Width: 249
Flags: W
HStem: -129 230
VStem: 70 65<-36.1728 49.5>
LayerCount: 2
Fore
SplineSet
4 -129 m 1
 -4 -111 l 1
 48 -78 70 -50 70 -23 c 0
 70 -13 66 -4 51 9 c 0
 32 26 26 37 26 54 c 0
 26 81 48 101 78 101 c 0
 110 101 135 70 135 29 c 0
 135 -26 89 -82 4 -129 c 1
EndSplineSet
EndChar

StartChar: hyphen
Encoding: 45 45 14
Width: 332
Flags: W
HStem: 192 63<63 270>
VStem: 48 235
LayerCount: 2
Fore
SplineSet
283 255 m 1
 270 192 l 1
 48 192 l 1
 63 255 l 1
 283 255 l 1
EndSplineSet
EndChar

StartChar: period
Encoding: 46 46 15
Width: 249
Flags: W
HStem: -12 112<38.5391 125.386>
VStem: 26 112<1.24292 87.0681>
LayerCount: 2
Fore
SplineSet
82 100 m 0
 111 100 138 75 138 42 c 0
 138 13 111 -12 81 -12 c 0
 53 -12 26 15 26 42 c 0
 26 75 53 100 82 100 c 0
EndSplineSet
EndChar

StartChar: slash
Encoding: 47 47 16
Width: 276
Flags: W
HStem: -18 21G<-64 18.1111> 646 20G<301.977 387>
DStem2: -64 -18 7 -18 0.485643 0.874157<34.4806 781.011>
LayerCount: 2
Fore
SplineSet
313 666 m 1
 387 666 l 1
 7 -18 l 1
 -64 -18 l 1
 313 666 l 1
EndSplineSet
EndChar

StartChar: zero
Encoding: 48 48 17
Width: 499
Flags: W
HStem: -7 28<154.756 243.341> 647 30<283.631 379.275>
VStem: 32 79<94.9494 310.843> 417 80<334.603 567.007>
LayerCount: 2
Fore
SplineSet
341 677 m 0
 438 677 497 582 497 423 c 0
 497 278 420 113 319 40 c 1
 278 7 236 -7 193 -7 c 0
 97 -7 32 81 32 212 c 0
 32 448 185 677 341 677 c 0
334 647 m 0
 290 647 250 617 215 554 c 0
 163 461 111 262 111 157 c 0
 111 70 144 21 196 21 c 0
 242 21 283 56 321 122 c 0
 378 223 417 388 417 521 c 0
 417 602 388 647 334 647 c 0
EndSplineSet
EndChar

StartChar: one
Encoding: 49 49 18
Width: 499
Flags: W
HStem: 0 15<48 106.798 260.096 328> 623 16<211 259.955> 657 20G<401 405.5>
DStem2: 142.419 0 227.166 0 0.267238 0.96363<72.3168 616.714>
LayerCount: 2
Fore
SplineSet
48 0 m 1
 48 15 l 1
 127 21 149 31 161 67 c 1
 299 560 l 2
 305 579 306 587 306 595 c 0
 306 614 291 625 268 625 c 2
 211 623 l 1
 211 639 l 1
 223 640 230 642 231 642 c 2
 322 661 l 1
 401 675 l 1
 401 677 404 677 404 677 c 1
 407 677 409 672 409 669 c 0
 409 664 407 655 403 640 c 2
 261 122 l 2
 258 114 258 111 253 100 c 1
 246 75 242 56 242 47 c 0
 242 25 264 15 312 15 c 2
 328 15 l 1
 328 0 l 1
 48 0 l 1
EndSplineSet
EndChar

StartChar: two
Encoding: 50 50 19
Width: 499
Flags: W
HStem: 0 76<111 368> 603 74<197.261 312.698>
VStem: 366 87<424.775 549.387>
DStem2: 12 18 111 81 0.685669 0.727914<113.74 495.505>
LayerCount: 2
Fore
SplineSet
400 139 m 1
 417 132 l 1
 368 0 l 1
 12 0 l 1
 12 18 l 1
 223 242 l 2
 289 311 333 374 357 428 c 0
 363 441 366 460 366 480 c 0
 366 551 312 603 242 603 c 0
 182 603 138 574 101 508 c 1
 81 516 l 1
 108 587 136 623 187 650 c 0
 217 666 255 677 290 677 c 0
 381 677 453 602 453 505 c 0
 453 439 420 390 303 272 c 1
 111 81 l 1
 111 76 l 1
 300 76 l 2
 354 76 376 89 400 139 c 1
EndSplineSet
EndChar

StartChar: three
Encoding: 51 51 20
Width: 499
Flags: W
HStem: -7 38<91.5 241.012> 360 16<141 178.521> 634 43<243.628 349.246>
VStem: 327 79<149.077 289.721> 379 87<479.568 606.002>
LayerCount: 2
Fore
SplineSet
179 567 m 1xe8
 163 573 l 1
 195 636 256 677 327 677 c 0xf0
 406 677 466 623 466 549 c 0xe8
 466 480 431 448 311 401 c 1
 311 398 l 1
 376 368 406 321 406 249 c 0
 406 160 356 76 277 29 c 0
 234 4 185 -7 127 -7 c 0
 56 -7 15 15 15 53 c 0
 15 78 31 91 59 91 c 0
 78 91 94 83 123 63 c 1
 152 41 176 31 195 31 c 0
 234 31 281 59 305 100 c 0
 318 123 327 160 327 195 c 0xf0
 327 274 293 330 231 350 c 1
 207 360 193 360 141 360 c 1
 141 376 l 1
 229 393 272 407 313 437 c 1
 357 464 379 501 379 543 c 0
 379 598 343 634 290 634 c 0
 248 634 212 612 179 567 c 1xe8
EndSplineSet
EndChar

StartChar: four
Encoding: 52 52 21
Width: 499
Flags: W
HStem: 0 21G<214 298.114> 179 63<64 264 357 439> 657 20G<418.694 479>
DStem2: 21 245 64 245 0.694505 0.719488<29.8637 469.765> 214 0 293 0 0.267238 0.96363<21.1118 185.852 271.414 584.318>
LayerCount: 2
Fore
SplineSet
453 242 m 1
 439 176 l 1
 338 176 l 1
 293 0 l 1
 214 0 l 1
 264 179 l 1
 1 179 l 1
 21 245 l 1
 438 677 l 1
 479 677 l 1
 357 242 l 1
 453 242 l 1
277 242 m 1
 374 562 l 1
 369 562 l 1
 64 245 l 1
 64 242 l 1
 277 242 l 1
EndSplineSet
EndChar

StartChar: five
Encoding: 53 53 22
Width: 499
Flags: W
HStem: -7 42<89 231.702> 595 71<237 469>
VStem: 350 69<173.966 332.627>
DStem2: 130 448 199 507 0.430576 0.902554<82.9605 178.747>
LayerCount: 2
Fore
SplineSet
237 595 m 1
 199 507 l 1
 280 486 316 472 353 437 c 1
 395 395 419 341 419 280 c 0
 419 122 286 -7 122 -7 c 0
 56 -7 15 15 15 50 c 0
 15 75 32 89 56 89 c 0
 70 89 86 83 111 64 c 0
 141 42 158 35 179 35 c 0
 270 35 350 133 350 242 c 0
 350 294 330 346 297 371 c 1
 261 400 229 412 130 434 c 1
 130 448 l 1
 234 666 l 1
 491 666 l 1
 469 595 l 1
 237 595 l 1
EndSplineSet
EndChar

StartChar: six
Encoding: 54 54 23
Width: 499
Flags: W
HStem: -7 26<155.171 252.488> 412 35<211.808 320.129> 669 17<481.844 521>
VStem: 29 76<97.7351 284.253> 374 87<163.963 360.794>
LayerCount: 2
Fore
SplineSet
521 686 m 1
 521 669 l 1
 403 656 270 555 199 428 c 1
 204 426 l 1
 231 439 264 447 291 447 c 0
 391 447 461 374 461 271 c 0
 461 120 349 -7 212 -7 c 0
 103 -7 29 76 29 204 c 0
 29 347 107 489 234 583 c 0
 319 646 387 671 521 686 c 1
204 19 m 0
 311 19 374 177 374 284 c 0
 374 360 330 412 259 412 c 0
 212 412 180 391 152 346 c 1
 126 300 105 217 105 149 c 0
 105 67 142 19 204 19 c 0
EndSplineSet
EndChar

StartChar: seven
Encoding: 55 55 24
Width: 499
Flags: W
HStem: -7 21G<79 160.735> 593 73<157 444>
LayerCount: 2
Fore
SplineSet
538 656 m 1
 149 -7 l 1
 79 -7 l 1
 445 590 l 1
 444 593 l 1
 223 593 l 2
 164 593 138 579 89 521 c 1
 75 530 l 1
 157 666 l 1
 532 666 l 1
 538 656 l 1
EndSplineSet
EndChar

StartChar: eight
Encoding: 56 56 25
Width: 499
Flags: W
HStem: -7 22<178.227 285.655> 653 24<269.45 367.203>
VStem: 29 69<83.3323 237.199> 138 77<477.796 601.132> 369 75<93.2671 230.144> 425 69<464.783 604.84>
LayerCount: 2
Fore
SplineSet
330 382 m 1xf4
 415 294 444 240 444 173 c 0xf8
 444 70 352 -7 229 -7 c 0
 146 -7 86 22 53 79 c 0
 38 104 29 133 29 161 c 0
 29 249 100 319 226 360 c 1
 160 434 138 472 138 526 c 0
 138 615 211 677 318 677 c 0
 420 677 494 617 494 535 c 0
 494 464 447 420 330 382 c 1xf4
248 344 m 1
 160 312 98 239 98 155 c 0
 98 75 154 15 233 15 c 0
 311 15 369 75 369 155 c 0
 369 211 357 229 248 344 c 1
311 398 m 1
 335 412 335 412 344 415 c 1
 400 444 425 482 425 535 c 0xf4
 425 605 382 653 318 653 c 0
 255 653 215 609 215 541 c 0
 215 498 233 472 311 398 c 1
EndSplineSet
EndChar

StartChar: nine
Encoding: 57 57 26
Width: 499
Flags: W
HStem: -18 19<23 58.4355> 229 46<198.221 306.051> 650 27<263.619 364.8>
VStem: 69 88<320.103 510.373> 417 75<381.162 568.927>
LayerCount: 2
Fore
SplineSet
23 -18 m 1
 23 1 l 1
 103 18 152 44 224 105 c 1
 286 163 335 227 352 272 c 1
 349 274 l 1
 296 242 261 229 220 229 c 0
 130 229 69 305 69 409 c 0
 69 548 185 677 311 677 c 0
 420 677 492 589 492 458 c 0
 492 324 423 189 308 98 c 0
 226 34 158 6 23 -18 c 1
318 650 m 0
 284 650 253 637 229 612 c 0
 186 568 157 488 157 415 c 0
 157 327 193 275 256 275 c 0
 294 275 335 291 362 318 c 1
 393 347 417 439 417 519 c 0
 417 601 379 650 318 650 c 0
EndSplineSet
EndChar

StartChar: colon
Encoding: 58 58 27
Width: 332
Flags: W
HStem: -12 112<61.8467 149.003> 330 111<160.922 249.003>
VStem: 50 111<0.388973 87.9281> 149 112<341.463 429.003>
LayerCount: 2
Fore
SplineSet
105 100 m 0xe0
 136 100 161 75 161 42 c 0
 161 13 136 -12 104 -12 c 0
 75 -12 50 15 50 42 c 0
 50 75 75 100 105 100 c 0xe0
205 441 m 0
 236 441 261 416 261 384 c 0
 261 354 236 330 204 330 c 0
 174 330 149 354 149 384 c 0xd0
 149 416 174 441 205 441 c 0
EndSplineSet
EndChar

StartChar: semicolon
Encoding: 59 59 28
Width: 332
Flags: W
HStem: 330 111<160.922 249.003>
VStem: 103 63<-36.1728 49.5> 149 112<341.463 429.003>
LayerCount: 2
Fore
SplineSet
37 -129 m 1xc0
 26 -111 l 1
 79 -78 103 -50 103 -23 c 0
 103 -13 97 -4 82 9 c 0
 63 26 57 37 57 54 c 0
 57 81 79 101 108 101 c 0
 141 101 166 70 166 29 c 0
 166 -26 120 -82 37 -129 c 1xc0
205 441 m 0
 236 441 261 416 261 384 c 0
 261 354 236 330 204 330 c 0
 174 330 149 354 149 384 c 0xa0
 149 416 174 441 205 441 c 0
EndSplineSet
EndChar

StartChar: less
Encoding: 60 60 29
Width: 673
Flags: W
HStem: -10 21G<547.739 592>
DStem2: 83 286 171 253 0.911284 0.411779<66.6043 528.905> 171 253 83 220 0.911284 -0.411779<0 462.3>
LayerCount: 2
Fore
SplineSet
592 -10 m 1
 83 220 l 1
 83 286 l 1
 592 516 l 1
 592 444 l 1
 171 253 l 1
 592 62 l 1
 592 -10 l 1
EndSplineSet
EndChar

StartChar: equal
Encoding: 61 61 30
Width: 673
Flags: W
HStem: 120 66<86 590> 319 68<86 590>
LayerCount: 2
Fore
SplineSet
590 387 m 1
 590 319 l 1
 86 319 l 1
 86 387 l 1
 590 387 l 1
590 186 m 1
 590 120 l 1
 86 120 l 1
 86 186 l 1
 590 186 l 1
EndSplineSet
EndChar

StartChar: greater
Encoding: 62 62 31
Width: 673
Flags: W
HStem: -10 21G<83 127.261>
DStem2: 83 516 83 444 0.911284 -0.411779<29.6481 491.948> 83 62 83 -10 0.911284 0.411779<0 462.3>
LayerCount: 2
Fore
SplineSet
83 -10 m 1
 83 62 l 1
 504 253 l 1
 83 444 l 1
 83 516 l 1
 592 286 l 1
 592 220 l 1
 83 -10 l 1
EndSplineSet
EndChar

StartChar: question
Encoding: 63 63 32
Width: 499
Flags: W
HStem: -12 104<142.315 226.164> 642 22<270.651 361.099>
VStem: 132 105<-0.687241 81.7521> 185 63<526.234 616.288> 398 74<477.552 607.351>
LayerCount: 2
Fore
SplineSet
215 174 m 1xd8
 199 176 l 1
 215 275 229 297 311 393 c 1
 376 463 398 505 398 557 c 0
 398 611 369 642 318 642 c 0
 275 642 248 624 248 595 c 0
 248 586 250 580 256 567 c 0
 261 555 264 549 264 542 c 0
 264 521 246 507 223 507 c 0
 199 507 185 524 185 555 c 0
 185 620 242 664 324 664 c 0
 413 664 472 612 472 535 c 0
 472 475 453 447 338 354 c 0
 267 297 237 259 223 204 c 2
 215 174 l 1xd8
185 92 m 0
 212 92 237 69 237 40 c 0xe8
 237 13 212 -12 185 -12 c 0xd8
 155 -12 132 12 132 40 c 0xe8
 132 69 155 92 185 92 c 0
EndSplineSet
EndChar

StartChar: at
Encoding: 64 64 33
Width: 919
Flags: W
HStem: -18 39<386.649 603.208> 138 33<603.857 685.671> 139 43<384.725 477.577> 636 30<395.875 571.002>
VStem: 119 82<201.947 436.914> 321 72<196.362 355.838> 766 40<273.206 464.159>
LayerCount: 2
Fore
SplineSet
321 250 m 0xbe
 321 357 396 499 516 499 c 0
 551 499 565 491 587 450 c 1
 598 486 l 1
 666 486 l 1
 601 234 l 2
 599 227 598 218 598 212 c 0
 598 186 611 171 636 171 c 0
 661 171 686 183 705 202 c 1
 741 242 766 308 766 368 c 0
 766 513 637 636 480 636 c 0
 318 636 201 499 201 313 c 0
 201 142 324 21 494 21 c 0
 560 21 608 34 686 67 c 1
 699 40 l 1
 603 -4 554 -18 482 -18 c 0
 278 -18 119 130 119 319 c 0
 119 513 278 666 480 666 c 0
 664 666 806 539 806 376 c 0
 806 248 721 138 623 138 c 0xde
 576 138 539 167 533 209 c 1
 497 166 453 139 410 139 c 0
 360 139 321 187 321 250 c 0xbe
530 456 m 0
 505 458 472 438 442 406 c 1
 410 368 393 318 393 265 c 0
 393 212 415 182 451 182 c 0xbe
 507 182 564 281 570 394 c 1
 573 431 557 454 530 456 c 0
EndSplineSet
EndChar

StartChar: A
Encoding: 65 65 34
Width: 610
Flags: W
HStem: 0 16<-51 -25.5 92.1682 136 318 365.87 523.734 564> 226 36<174 369>
DStem2: 78 168 174 262 0.501718 0.865031<129.478 429.28> 394 668 325 521 0.164116 -0.986441<133.683 396.392 432.725 590.627>
LayerCount: 2
Fore
SplineSet
564 16 m 1
 564 0 l 1
 318 0 l 1
 318 16 l 1
 382 22 395 31 395 69 c 0
 395 78 395 86 394 95 c 2
 374 226 l 1
 154 226 l 1
 97 113 l 1
 81 79 78 70 78 51 c 0
 78 26 85 21 136 16 c 1
 136 0 l 1
 -51 0 l 1
 -51 16 l 1
 -12 23 -1 35 78 168 c 1
 368 668 l 1
 394 668 l 1
 488 103 l 2
 501 29 507 21 564 16 c 1
174 262 m 1
 369 262 l 1
 325 521 l 1
 174 262 l 1
EndSplineSet
EndChar

StartChar: B
Encoding: 66 66 35
Width: 610
Flags: W
HStem: 0 29<183.382 316.816> 0 16<-7 26.3125> 331 32<248 372.498> 623 30<318.969 438.891> 637 16<130 180.119>
VStem: 431 108<115.423 279.173> 486 101<433.675 582.929>
DStem2: 48.3181 0 145.206 0 0.267238 0.96363<110.269 374.813 403.161 616.089>
LayerCount: 2
Fore
SplineSet
413 352 m 1x32
 474 326 539 292 539 201 c 0
 539 82 431 0 274 0 c 2xb4
 -7 0 l 1
 -7 16 l 1
 48 26 56 32 73 89 c 1
 196 532 l 1
 204 557 207 582 207 596 c 0
 207 624 192 631 130 637 c 1
 130 653 l 1x6c
 388 653 l 2
 517 653 587 601 587 505 c 0
 587 383 450 360 413 352 c 1x32
237 331 m 1
 211 209 171 101 171 72 c 0
 171 45 193 29 234 29 c 0
 357 29 431 97 431 204 c 0
 431 258 406 302 365 319 c 0
 346 327 303 331 237 331 c 1
313 595 m 2
 248 363 l 1
 338 363 387 371 420 390 c 0
 463 415 486 458 486 516 c 0x32
 486 589 450 623 371 623 c 0
 331 623 319 617 313 595 c 2
EndSplineSet
EndChar

StartChar: C
Encoding: 67 67 36
Width: 666
Flags: W
HStem: -18 44<264.378 440.68> 630 36<392.377 558.192>
VStem: 66 113<131.26 367.118> 634 18<469 502.889> 668 20<649.568 664>
LayerCount: 2
Fore
SplineSet
472 666 m 0
 547 666 602 642 630 642 c 0
 650 642 661 647 668 664 c 1
 688 664 l 1
 652 464 l 1
 634 469 l 1
 624 576 573 630 480 630 c 0
 415 630 352 602 305 554 c 0
 226 472 179 352 179 231 c 0
 179 103 242 26 353 26 c 0
 435 26 494 57 583 145 c 1
 601 130 l 1
 510 26 431 -18 327 -18 c 0
 174 -18 66 89 66 243 c 0
 66 464 259 666 472 666 c 0
EndSplineSet
EndChar

StartChar: D
Encoding: 68 68 37
Width: 720
Flags: W
HStem: 0 29<179.115 345.745> 0 16<-7 26.3125> 623 30<319.438 464.75> 637 16<130 178.576>
VStem: 589 111<272.773 496.648>
DStem2: 48.3181 0 146.796 0 0.267238 0.96363<97.7202 616.089>
LayerCount: 2
Fore
SplineSet
130 637 m 1x58
 130 653 l 1x58
 409 653 l 2
 586 653 700 548 700 384 c 0
 700 268 643 158 546 86 c 1
 469 31 362 0 245 0 c 2xa8
 -7 0 l 1
 -7 16 l 1
 48 26 56 32 73 89 c 1
 196 532 l 1
 204 557 207 582 207 596 c 0
 207 623 192 631 130 637 c 1x58
313 595 m 2
 192 163 l 1
 174 103 170 81 170 67 c 0
 170 41 189 29 234 29 c 0
 338 29 420 60 479 120 c 0
 546 187 589 300 589 409 c 0
 589 486 562 549 513 586 c 1
 480 609 431 623 374 623 c 0xa8
 334 623 319 617 313 595 c 2
EndSplineSet
EndChar

StartChar: E
Encoding: 69 69 38
Width: 610
Flags: W
HStem: 0 34<181.385 409.949> 0 16<-1 33.3281> 328 32<253 394.618> 620 33<322.273 549.592> 637 16<138 185.859>
VStem: 400 20<225.6 246.779> 470 18<439.704 455.556> 582 21<501 533.774>
DStem2: 56.3181 0 155.881 0 0.267238 0.96363<97.0402 372.158 399.468 615.903>
LayerCount: 2
Back
SplineSet
256 34 m 0xb7
 437 34 479 69 552 170 c 1
 568 163 l 1
 505 0 l 1
 -1 0 l 1
 -1 16 l 1
 56 26 63 34 81 89 c 1
 204 532 l 2
 208 549 214 584 214 596 c 0
 214 623 199 631 138 637 c 1
 138 653 l 1
 634 653 l 1x6f
 603 499 l 1
 582 502 l 1
 583 519 584 535 584 546 c 0
 584 606 549 620 393 620 c 0
 335 620 325 617 319 595 c 2
 253 360 l 1
 289 362 319 363 333 363 c 0
 423 368 432 374 470 458 c 1
 488 454 l 1
 420 223 l 1
 400 227 l 1
 404 249 407 262 407 278 c 0
 407 296 404 305 400 311 c 1
 390 319 360 327 322 325 c 4
 311 325 278 327 245 328 c 1
 185 105 l 2
 179 83 176 78 176 67 c 0
 176 42 201 34 256 34 c 0xb7
EndSplineSet
Fore
SplineSet
256 34 m 0xb7
 437 34 479 69 552 170 c 1
 568 163 l 1
 505 0 l 1
 -1 0 l 1
 -1 16 l 1
 56 26 63 34 81 89 c 1
 204 532 l 2
 208 549 214 584 214 596 c 0
 214 623 199 631 138 637 c 1
 138 653 l 1
 634 653 l 1x6f
 603 499 l 1
 582 502 l 1
 583 519 584 535 584 546 c 0
 584 606 549 620 393 620 c 0
 335 620 325 617 319 595 c 2
 253 360 l 1
 289 362 319 363 333 363 c 0
 423 368 432 374 470 458 c 1
 488 454 l 1
 420 223 l 1
 400 227 l 1
 404 249 407 262 407 278 c 0
 407 323 380 325 322 325 c 0
 311 325 278 327 245 328 c 1
 185 105 l 2
 179 83 176 78 176 67 c 0
 176 42 201 34 256 34 c 0xb7
EndSplineSet
EndChar

StartChar: F
Encoding: 70 70 39
Width: 610
Flags: W
HStem: 0 16<7 47.8521 209.595 261> 325 35<264 404.068> 620 33<333.546 559.114> 637 16<146 199.684>
VStem: 404 18<218.056 236.645> 480 18<438.311 451.556> 592 20<500.95 531.667>
DStem2: 64.3181 0 163.881 0 0.267238 0.96363<90.3916 372.103 400.27 616.356>
LayerCount: 2
Fore
SplineSet
413 278 m 0xee
 413 327 378 325 335 325 c 0
 313 325 291 327 255 328 c 1
 193 105 l 2
 187 83 185 67 185 60 c 0
 185 29 202 19 261 16 c 1
 261 0 l 1
 7 0 l 1
 7 16 l 1
 64 23 72 29 89 89 c 2
 212 532 l 1
 220 557 224 582 224 596 c 0
 224 625 212 631 146 637 c 1
 146 653 l 1
 645 653 l 1xde
 612 499 l 1
 592 502 l 1
 593 514 593 516 595 521 c 1
 595 545 l 2
 595 606 560 620 391 620 c 0
 350 620 335 614 330 595 c 2
 264 360 l 1
 432 363 435 365 480 454 c 1
 498 450 l 1
 422 215 l 1
 404 220 l 1
 412 250 413 264 413 278 c 0xee
EndSplineSet
EndChar

StartChar: G
Encoding: 71 71 40
Width: 720
Flags: W
HStem: -18 37<268.826 447.086> 303 16<456 511.663 672.773 722> 631 35<376.133 547.651>
VStem: 53 110<141.98 366.952> 642 17<469 492.875>
LayerCount: 2
Fore
SplineSet
456 666 m 0
 540 666 610 631 633 631 c 0
 659 631 677 642 693 666 c 1
 707 662 l 1
 659 464 l 1
 642 469 l 1
 637 507 617 631 463 631 c 0
 397 631 335 605 290 558 c 0
 211 475 163 347 163 224 c 0
 163 92 234 19 365 19 c 0
 409 19 447 31 469 53 c 0
 480 64 483 73 505 145 c 0
 527 220 535 248 535 270 c 0
 535 287 519 297 485 300 c 0
 480 300 469 302 456 303 c 1
 456 319 l 1
 722 319 l 1
 722 303 l 1
 658 299 642 287 625 231 c 1
 576 44 l 1
 499 1 428 -18 338 -18 c 0
 252 -18 179 9 127 60 c 1
 81 108 53 179 53 246 c 0
 53 466 245 666 456 666 c 0
EndSplineSet
EndChar

StartChar: H
Encoding: 72 72 41
Width: 720
Flags: W
HStem: 0 16<-7 26.3125 193.563 237 354 397.489 576.407 628> 327 41<248 521> 637 16<130 178.576 357.765 403 520 563.881 732.969 768>
DStem2: 48.3181 0 147.259 0 0.267238 0.96363<89.8513 365.263 407.979 615.082> 430.315 0 531.259 0 0.267238 0.96363<88.9332 339.342 382.057 615.35>
LayerCount: 2
Fore
SplineSet
768 653 m 1
 768 637 l 1
 710 627 702 621 686 562 c 2
 554 82 l 1
 551 75 549 67 549 59 c 0
 549 29 564 22 628 16 c 1
 628 0 l 1
 354 0 l 1
 354 16 l 1
 420 23 439 38 456 89 c 1
 521 327 l 1
 236 327 l 1
 170 82 l 2
 168 75 167 67 167 60 c 0
 167 31 179 23 237 16 c 1
 237 0 l 1
 -7 0 l 1
 -7 16 l 1
 48 26 56 32 73 89 c 1
 196 532 l 1
 204 557 207 580 207 595 c 0
 207 623 192 631 130 637 c 1
 130 653 l 1
 403 653 l 1
 403 637 l 1
 343 633 316 614 302 562 c 2
 248 368 l 1
 533 368 l 1
 579 532 l 2
 586 557 590 580 590 595 c 0
 590 623 579 630 520 637 c 1
 520 653 l 1
 768 653 l 1
EndSplineSet
EndChar

StartChar: I
Encoding: 73 73 42
Width: 332
Flags: W
HStem: 0 16<-7 26.3125 192.104 236> 637 16<138 180.74 349.531 384>
DStem2: 48.3181 0 145.721 0 0.267238 0.96363<87.7643 615.082>
LayerCount: 2
Fore
SplineSet
-7 0 m 1
 -7 16 l 1
 48 26 56 32 73 89 c 1
 196 532 l 1
 204 557 207 580 207 595 c 0
 207 623 195 630 138 637 c 1
 138 653 l 1
 384 653 l 1
 384 637 l 1
 327 627 319 621 302 562 c 2
 179 120 l 2
 170 88 168 76 168 57 c 0
 168 29 179 23 236 16 c 1
 236 0 l 1
 -7 0 l 1
EndSplineSet
EndChar

StartChar: J
Encoding: 74 74 43
Width: 443
Flags: W
HStem: -18 31<91.5006 153.195> 637 16<237 285.747 453.585 491>
VStem: -6 94<15.8878 116.062>
DStem2: 147.427 -18 247.762 -18 0.267238 0.96363<88.6123 635.278>
LayerCount: 2
Fore
SplineSet
491 653 m 1
 491 637 l 1
 434 628 428 623 409 562 c 1
 306 192 l 1
 286 116 265 70 237 40 c 1
 207 1 163 -18 111 -18 c 0
 41 -18 -6 18 -6 70 c 0
 -6 103 13 125 40 125 c 0
 64 125 88 103 88 78 c 2
 88 67 l 1
 86 62 86 59 86 53 c 0
 86 26 98 13 122 13 c 0
 146 13 160 28 171 67 c 2
 302 532 l 1
 311 560 313 582 313 596 c 0
 313 623 300 631 237 637 c 1
 237 653 l 1
 491 653 l 1
EndSplineSet
EndChar

StartChar: K
Encoding: 75 75 44
Width: 666
Flags: W
HStem: 0 16<7 45.2868 207.346 255 343 398.508 567.006 618> 637 16<146 194.576 376.368 419 499 548.955 694.41 722>
DStem2: 64.3181 0 162.268 0 0.267238 0.96363<89.9856 388.333 409.21 615.082> 347 375 259 349 0.497987 -0.867184<0 320.242> 265 369 347 375 0.79872 0.601703<69.1053 383.69>
LayerCount: 2
Fore
SplineSet
722 653 m 1
 722 637 l 1
 699 633 675 623 647 601 c 2
 347 375 l 1
 521 72 l 2
 549 25 555 22 618 16 c 1
 618 0 l 1
 343 0 l 1
 343 16 l 1
 356 18 368 19 372 19 c 0
 404 22 417 29 417 45 c 0
 417 64 404 100 379 141 c 1
 259 349 l 1
 190 100 l 2
 185 79 183 70 183 60 c 0
 183 29 192 23 255 16 c 1
 255 0 l 1
 7 0 l 1
 7 16 l 1
 66 25 70 29 89 89 c 1
 212 532 l 1
 220 557 223 580 223 595 c 0
 223 623 208 631 146 637 c 1
 146 653 l 1
 419 653 l 1
 419 637 l 1
 360 633 333 612 318 562 c 1
 265 369 l 1
 417 475 l 1
 505 538 561 590 561 615 c 0
 561 625 551 631 527 634 c 0
 523 634 513 636 499 637 c 1
 499 653 l 1
 722 653 l 1
EndSplineSet
EndChar

StartChar: L
Encoding: 76 76 45
Width: 555
Flags: W
HStem: 0 37<172.467 423.202> 0 16<-7 26.3125> 637 16<130 178.576 357.765 403>
VStem: 539 21<167.064 181>
DStem2: 48.3181 0 145.721 0 0.267238 0.96363<99.8108 615.082>
LayerCount: 2
Fore
SplineSet
270 37 m 0xb0
 426 37 474 52 539 185 c 1
 560 179 l 1
 501 0 l 1
 -7 0 l 1
 -7 16 l 1x70
 48 26 56 32 73 89 c 1
 196 532 l 1
 204 557 207 580 207 595 c 0
 207 623 192 631 130 637 c 1
 130 653 l 1
 403 653 l 1
 403 637 l 1
 343 633 316 614 302 562 c 2
 179 120 l 2
 174 101 168 78 168 70 c 0
 168 44 193 37 270 37 c 0xb0
EndSplineSet
EndChar

StartChar: M
Encoding: 77 77 46
Width: 832
Flags: W
HStem: 0 16<-18 13.0341 137.675 180 461 504.04 681.521 734> 637 16<133 182.419 834.543 873>
DStem2: 40.5106 0 87.6623 0 0.267238 0.96363<76.3181 577.117> 315 653 236 546 0.111031 -0.993817<97.567 496.169> 371 160 313 0 0.558787 0.829311<0 511.366> 536.763 0 634.721 0 0.267238 0.96363<90.0186 581.815>
LayerCount: 2
Fore
SplineSet
873 653 m 1
 873 637 l 1
 814 628 809 623 791 562 c 2
 668 120 l 2
 659 89 658 76 658 59 c 0
 658 28 666 22 734 16 c 1
 734 0 l 1
 461 0 l 1
 461 16 l 1
 526 23 546 38 562 91 c 1
 691 561 l 1
 313 0 l 1
 297 0 l 1
 236 546 l 1
 119 113 l 1
 113 97 108 70 108 60 c 0
 108 32 129 21 180 16 c 1
 180 0 l 1
 -18 0 l 1
 -18 16 l 1
 34 22 48 42 81 146 c 1
 186 519 l 1
 186 519 208 589 208 601 c 0
 208 623 185 634 133 637 c 1
 133 653 l 1
 315 653 l 1
 371 160 l 1
 706 653 l 1
 873 653 l 1
EndSplineSet
EndChar

StartChar: N
Encoding: 78 78 47
Width: 666
Flags: W
HStem: -15 21G<452.636 484.726> 0 16<-21 12.5715 135.074 179> 637 16<116 156.419 527 571.716 697.264 727>
DStem2: 33.3589 -15 81.5025 -15 0.267238 0.96363<91.8483 582.814> 277 653 202 582 0.397996 -0.917387<0 35.2848 89.9439 540.559> 438.132 -15 479 -15 0.267238 0.96363<175.378 620.694>
LayerCount: 2
Fore
SplineSet
587 535 m 2x60
 589 542 598 560 598 586 c 0
 598 623 584 631 527 637 c 1
 527 653 l 1
 727 653 l 1
 727 637 l 1
 664 623 661 617 623 488 c 1
 479 -15 l 1
 461 -15 l 1xa0
 231 535 l 1
 117 113 l 2
 111 92 108 72 108 59 c 0
 108 31 127 21 179 16 c 1
 179 0 l 1
 -21 0 l 1
 -21 16 l 1
 37 23 45 37 83 164 c 1
 202 582 l 1
 185 620 163 633 116 637 c 1
 116 653 l 1
 277 653 l 1
 485 154 l 1
 587 535 l 2x60
EndSplineSet
EndChar

StartChar: O
Encoding: 79 79 48
Width: 720
Flags: W
HStem: -18 33<231.239 366.164> 633 33<394.59 528.312>
VStem: 60 106<113.174 322.698> 595 104<334.156 536.402>
LayerCount: 2
Fore
SplineSet
475 666 m 0
 604 666 699 567 699 431 c 0
 699 197 486 -18 278 -18 c 0
 151 -18 60 81 60 221 c 0
 60 430 261 666 475 666 c 0
464 633 m 0
 289 633 166 352 166 185 c 0
 166 76 211 15 294 15 c 0
 476 15 595 307 595 480 c 0
 595 576 543 633 464 633 c 0
EndSplineSet
EndChar

StartChar: P
Encoding: 80 80 49
Width: 610
Flags: W
HStem: 0 16<0 40.6506 201.312 245> 305 36<250.778 413.145> 623 30<327.781 442.113> 637 16<146 188.168>
VStem: 502 103<419.136 581.415>
DStem2: 57.3181 0 155.721 0 0.267238 0.96363<92.3129 353.168 385.872 615.439>
LayerCount: 2
Fore
SplineSet
605 504 m 0xe8
 605 434 562 305 334 305 c 0
 293 305 267 308 242 313 c 1
 189 120 l 2
 179 83 177 75 177 62 c 0
 177 28 182 25 245 16 c 1
 245 0 l 1
 0 0 l 1
 0 16 l 1
 57 23 64 29 82 89 c 1
 201 516 l 1
 212 560 217 582 217 595 c 0
 217 621 204 630 146 637 c 1
 146 653 l 1xd8
 394 653 l 2
 530 653 605 601 605 504 c 0xe8
303 341 m 0
 415 341 502 374 502 504 c 0
 502 551 491 582 464 599 c 0
 445 612 407 623 368 623 c 0xe8
 340 623 328 617 322 595 c 2
 250 347 l 1
 278 343 286 341 303 341 c 0
EndSplineSet
EndChar

StartChar: Q
Encoding: 81 81 50
Width: 720
Flags: W
HStem: -183 67<370.017 527.056> -138 66<226 287.642> 633 33<387.703 529.842>
VStem: 60 106<109.38 318.932> 595 104<337.183 537.177>
LayerCount: 2
Fore
SplineSet
278 -16 m 1x78
 226 -73 l 1
 253 -73 250 -72 256 -72 c 0x78
 270 -72 309 -81 360 -92 c 1
 437 -111 458 -116 483 -116 c 0
 557 -116 598 -97 653 -38 c 1
 668 -48 l 1
 642 -85 628 -100 605 -117 c 0
 554 -157 483 -183 429 -183 c 0xb8
 393 -183 338 -173 277 -157 c 1
 233 -144 204 -138 185 -138 c 0
 145 -138 107 -148 69 -168 c 1
 59 -154 l 1
 136 -100 145 -92 236 -12 c 1
 192 -1 170 7 144 29 c 1
 89 70 60 139 60 221 c 0
 60 338 119 458 220 554 c 0
 295 626 390 666 470 666 c 0
 603 666 699 568 699 434 c 0
 699 275 598 113 450 29 c 1
 394 -1 356 -12 278 -16 c 1x78
464 633 m 0
 393 633 331 595 275 514 c 1
 214 428 166 278 166 183 c 0
 166 78 212 18 293 18 c 0
 366 18 428 56 483 135 c 0
 546 227 595 374 595 480 c 0
 595 576 545 633 464 633 c 0
EndSplineSet
EndChar

StartChar: R
Encoding: 82 82 51
Width: 610
Flags: W
HStem: 0 16<-13 21.9292 186.735 231 531.847 567> 330 30<243 296> 623 30<313.578 432.244> 637 16<132 177.067>
VStem: 483 104<430.19 583.041>
DStem2: 42.3181 0 140.721 0 0.267238 0.96363<92.4504 368.421 406.319 616.017> 391 333 296 324 0.354915 -0.934898<0 321.259>
LayerCount: 2
Fore
SplineSet
587 508 m 0xe8
 587 368 430 342 391 333 c 1
 483 88 l 2
 502 37 523 19 567 16 c 1
 567 0 l 1
 419 0 l 1
 296 324 l 1
 231 330 l 1
 174 120 l 1
 166 85 163 72 163 62 c 0
 163 29 170 23 231 16 c 1
 231 0 l 1
 -13 0 l 1
 -13 16 l 1
 42 25 50 31 67 89 c 2
 190 532 l 2
 198 560 204 583 204 595 c 0
 204 606 196 618 189 623 c 0xe8
 179 630 174 631 132 637 c 1
 132 653 l 1xd8
 379 653 l 2
 514 653 587 602 587 508 c 0xe8
308 595 m 1
 243 366 l 1
 267 362 278 360 294 360 c 0
 419 360 483 412 483 511 c 0
 483 584 442 623 359 623 c 0
 327 623 313 617 308 595 c 1
EndSplineSet
EndChar

StartChar: S
Encoding: 83 83 52
Width: 499
Flags: W
HStem: -18 36<147.13 280.533> 633 33<265.923 392.438>
VStem: 51 19<183.33 207> 130 90<462.086 582.471> 344 87<90.6583 222.377> 450 19<472 504.359>
LayerCount: 2
Fore
SplineSet
309 666 m 0
 382 666 405 642 439 642 c 0
 461 642 472 646 485 666 c 1
 508 666 l 1
 469 469 l 1
 450 472 l 1
 448 538 439 571 417 596 c 0
 397 620 366 633 330 633 c 0
 261 633 220 595 220 532 c 0
 220 482 229 469 318 376 c 1
 409 286 431 248 431 182 c 0
 431 69 344 -18 229 -18 c 0
 155 -18 110 18 73 18 c 0
 53 18 42 7 35 -15 c 1
 18 -15 l 1
 51 208 l 1
 70 207 l 1
 70 199 69 190 69 183 c 0
 69 88 132 18 215 18 c 0
 289 18 344 75 344 149 c 0
 344 193 331 220 284 268 c 1
 207 352 l 1
 146 416 130 445 130 499 c 0
 130 598 205 666 309 666 c 0
EndSplineSet
EndChar

StartChar: T
Encoding: 84 84 53
Width: 555
Flags: W
HStem: 0 16<64 110.67 288.012 354> 618 35<165.479 315 416 547.31>
VStem: 59 19<497.526 509.595>
DStem2: 146.318 0 243.721 0 0.267238 0.96363<92.0479 640.602>
LayerCount: 2
Fore
SplineSet
633 653 m 1
 589 491 l 1
 573 492 l 1
 574 508 576 524 576 538 c 0
 576 593 543 618 472 618 c 2
 416 618 l 1
 277 120 l 2
 268 86 265 75 265 62 c 0
 265 31 277 22 316 19 c 0
 324 19 338 18 354 16 c 1
 354 0 l 1
 64 0 l 1
 64 16 l 1
 130 21 155 37 171 89 c 1
 315 618 l 1
 163 620 130 603 78 495 c 1
 59 499 l 1
 101 653 l 1
 633 653 l 1
EndSplineSet
EndChar

StartChar: U
Encoding: 85 85 54
Width: 720
Flags: W
HStem: -18 41<250.494 414.962> 637 16<127 180.684 355.851 400 565 607.742 735.636 765>
VStem: 103 89<75.7128 252.391>
DStem2: 473.29 -18 517.434 -18 0.267238 0.96363<119.415 547.497>
LayerCount: 2
Fore
SplineSet
637 590 m 0
 637 631 594 634 565 637 c 1
 565 653 l 1
 765 653 l 1
 765 637 l 1
 703 623 699 618 661 488 c 2
 579 204 l 2
 535 53 451 -18 319 -18 c 0
 193 -18 103 51 103 146 c 0
 103 187 116 250 145 359 c 1
 198 551 l 2
 202 568 205 584 205 596 c 0
 205 625 193 631 127 637 c 1
 127 653 l 1
 400 653 l 1
 400 637 l 1
 333 630 314 618 294 546 c 0
 290 532 192 200 192 141 c 0
 192 70 249 23 333 23 c 0
 504 23 541 224 549 255 c 1
 555 274 560 291 562 305 c 1
 611 473 637 576 637 590 c 0
EndSplineSet
EndChar

StartChar: V
Encoding: 86 86 55
Width: 610
Flags: W
HStem: -18 21G<236.731 271.078> 637 16<76 111.889 272.143 316 502 540.03 661.078 688>
DStem2: 242 571 155 502 0.161321 -0.986902<-14.8501 448.832> 308 127 259 -18 0.516946 0.856018<0 507.973>
LayerCount: 2
Fore
SplineSet
688 653 m 1
 688 637 l 1
 665 636 649 624 631 598 c 1
 259 -18 l 1
 240 -18 l 1
 155 502 l 1
 133 627 132 630 76 637 c 1
 76 653 l 1
 316 653 l 1
 316 637 l 1
 253 630 240 620 240 586 c 0
 240 580 240 576 242 571 c 1
 308 127 l 1
 513 483 l 2
 546 541 565 584 565 603 c 0
 565 623 546 631 502 637 c 1
 502 653 l 1
 688 653 l 1
EndSplineSet
EndChar

StartChar: W
Encoding: 87 87 56
Width: 832
Flags: W
HStem: -18 21G<209.563 240.758 505.802 537.429> 637 16<70 110.638 265.007 308 368 418.349 565.532 605 721 765.613 885.488 907>
DStem2: 278 163 231 -18 0.438501 0.89873<0 322.99> 579 163 527 -18 0.462358 0.886693<0 481.208>
LayerCount: 2
Fore
SplineSet
907 653 m 1
 907 637 l 1
 869 625 858 617 831 565 c 2
 527 -18 l 1
 508 -18 l 1
 458 437 l 1
 453 437 l 1
 231 -18 l 1
 212 -18 l 1
 149 499 l 2
 133 630 131 630 70 637 c 1
 70 653 l 1
 308 653 l 1
 308 637 l 1
 246 630 234 621 234 582 c 2
 234 568 l 1
 278 163 l 1
 451 510 l 1
 442 579 l 2
 435 628 425 636 368 637 c 1
 368 653 l 1
 605 653 l 1
 605 637 l 1
 551 631 538 620 538 579 c 2
 538 564 l 1
 579 163 l 1
 765 530 l 2
 778 557 787 582 787 598 c 0
 787 625 775 631 721 637 c 1
 721 653 l 1
 907 653 l 1
EndSplineSet
EndChar

StartChar: X
Encoding: 88 88 57
Width: 610
Flags: W
HStem: 0 16<-29 -3.48224 134.875 185 294 350.156 516.896 567> 637 16<76 120.421 299.836 340 447 488.273 635.662 655>
DStem2: 284 541 168 576 0.375112 -0.926979<-55.6666 159.325 206.489 207.6 253.837 481.609> 190 215 141 97 0.658145 0.752891<-169.798 107.882 234.711 499.411>
LayerCount: 2
Fore
SplineSet
655 653 m 1
 655 637 l 1
 612 623 582 601 530 542 c 2
 360 349 l 1
 463 89 l 1
 488 29 497 23 567 16 c 1
 567 0 l 1
 294 0 l 1
 294 16 l 1
 360 21 371 26 371 56 c 0
 371 70 366 86 359 104 c 2
 291 270 l 1
 141 97 l 2
 127 82 120 64 120 50 c 0
 120 25 138 16 185 16 c 1
 185 0 l 1
 -29 0 l 1
 -29 16 l 1
 23 26 53 53 190 215 c 1
 274 313 l 1
 168 576 l 2
 149 623 133 631 76 637 c 1
 76 653 l 1
 340 653 l 1
 340 637 l 1
 286 630 270 621 270 596 c 0
 270 583 272 565 284 541 c 1
 343 393 l 1
 488 560 l 2
 502 576 508 587 508 601 c 0
 508 624 497 631 447 637 c 1
 447 653 l 1
 655 653 l 1
EndSplineSet
EndChar

StartChar: Y
Encoding: 89 89 58
Width: 555
Flags: W
HStem: 0 16<78 124.114 302.019 368> 637 16<91 127.988 280.852 330 444 494.271>
DStem2: 158.318 0 258.148 0 0.267238 0.96363<87.5463 314.181> 325 347 344 306 0.628203 0.77805<0 263.624>
LayerCount: 2
Fore
SplineSet
278 56 m 0
 278 15 316 23 368 16 c 1
 368 0 l 1
 78 0 l 1
 78 16 l 1
 144 21 166 37 183 89 c 1
 245 302 l 1
 167 571 l 1
 149 625 146 628 91 637 c 1
 91 653 l 1
 330 653 l 1
 330 637 l 1
 270 631 258 625 258 601 c 0
 258 578 283 501 325 347 c 1
 340 365 346 374 363 393 c 0
 467 514 513 579 513 606 c 0
 513 631 483 634 444 637 c 1
 444 653 l 1
 633 653 l 1
 633 637 l 1
 603 623 595 617 562 576 c 2
 344 306 l 1
 315 205 l 1
 315 205 278 90 278 56 c 0
EndSplineSet
EndChar

StartChar: Z
Encoding: 90 90 59
Width: 555
Flags: W
HStem: 0 37<123 430.495> 617 36<181.228 473>
VStem: 75 17<504.941 517.246> 535 19<156.858 169.105>
DStem2: -6 15 123 37 0.6258 0.779983<97.8879 769.308>
LayerCount: 2
Fore
SplineSet
284 37 m 2
 451 37 481 67 535 171 c 1
 554 168 l 1
 499 0 l 1
 -6 0 l 1
 -6 15 l 1
 473 617 l 1
 302 617 l 2
 227 617 174 603 145 580 c 1
 126 562 114 546 92 502 c 1
 75 507 l 1
 120 653 l 1
 606 653 l 1
 606 639 l 1
 123 37 l 1
 284 37 l 2
EndSplineSet
EndChar

StartChar: bracketleft
Encoding: 91 91 60
Width: 388
Flags: W
HStem: -152 26<116.203 209> 636 28<283.761 384>
DStem2: 21 -152 116 -78 0.234679 0.972073<73.8823 833.45>
LayerCount: 2
Fore
SplineSet
384 636 m 1
 322 636 l 2
 293 636 281 627 275 601 c 2
 116 -78 l 1
 111 -92 111 -92 111 -98 c 0
 111 -117 127 -126 160 -126 c 2
 215 -126 l 1
 209 -152 l 1
 21 -152 l 1
 218 664 l 1
 391 664 l 1
 384 636 l 1
EndSplineSet
EndChar

StartChar: backslash
Encoding: 92 92 61
Width: 276
Flags: W
HStem: -18 21G<239.55 319> 646 20G<-41 39.4211>
DStem2: 31 666 -41 666 0.389201 -0.921153<0 714.525>
LayerCount: 2
Fore
SplineSet
-41 666 m 1
 31 666 l 1
 319 -18 l 1
 248 -18 l 1
 -41 666 l 1
EndSplineSet
EndChar

StartChar: bracketright
Encoding: 93 93 62
Width: 388
Flags: W
HStem: -152 26<19 117.796> 636 28<193 287.203>
DStem2: 127 -89 185 -152 0.234679 0.972073<-42.4719 716.813>
LayerCount: 2
Fore
SplineSet
19 -126 m 1
 81 -126 l 2
 111 -126 120 -119 127 -89 c 2
 289 587 l 1
 291 603 291 605 291 609 c 0
 291 627 275 636 243 636 c 2
 186 636 l 1
 193 664 l 1
 382 664 l 1
 185 -152 l 1
 12 -152 l 1
 19 -126 l 1
EndSplineSet
EndChar

StartChar: asciicircum
Encoding: 94 94 63
Width: 421
Flags: W
HStem: 646 20G<172.055 251.836>
DStem2: 0 300 67 300 0.445255 0.895404<29.8321 353.616> 242 666 211 590 0.44132 -0.89735<54.5177 377.858>
LayerCount: 2
Fore
SplineSet
67 300 m 1
 0 300 l 1
 182 666 l 1
 242 666 l 1
 422 300 l 1
 354 300 l 1
 211 590 l 1
 67 300 l 1
EndSplineSet
EndChar

StartChar: underscore
Encoding: 95 95 64
Width: 499
Flags: W
HStem: -125 50<0 499>
LayerCount: 2
Fore
SplineSet
499 -125 m 1
 0 -125 l 1
 0 -75 l 1
 499 -75 l 1
 499 -125 l 1
EndSplineSet
EndChar

StartChar: grave
Encoding: 96 96 65
Width: 332
Flags: W
HStem: 492 172
VStem: 122 189
LayerCount: 2
Fore
SplineSet
280 492 m 1
 141 598 l 2
 127 608 122 618 122 630 c 0
 122 649 136 664 157 664 c 0
 171 664 182 658 195 642 c 2
 311 492 l 1
 280 492 l 1
EndSplineSet
EndChar

StartChar: a
Encoding: 97 97 66
Width: 499
Flags: W
HStem: -10 51<115.319 199.2 340.002 393.49> 419 22<264.436 340.638>
VStem: 18 83<52.565 206.857> 297 74<11.5938 151.124>
LayerCount: 2
Fore
SplineSet
384 41 m 0
 395 41 419 62 464 110 c 1
 476 100 l 1
 401 9 376 -10 337 -10 c 0
 309 -10 297 1 297 31 c 0
 297 56 300 67 319 146 c 1
 231 22 189 -12 119 -12 c 0
 56 -12 18 29 18 100 c 0
 18 258 171 441 303 441 c 0
 346 441 375 420 382 382 c 1
 394 431 l 1
 397 434 l 1
 458 441 l 1
 464 438 l 1
 464 438 371 92 371 54 c 0
 371 47 376 41 384 41 c 0
304 419 m 0
 193 419 101 197 101 113 c 0
 101 67 125 38 160 38 c 0
 187 38 223 56 246 82 c 0
 315 157 365 274 365 357 c 0
 365 394 341 419 304 419 c 0
EndSplineSet
EndChar

StartChar: b
Encoding: 98 98 67
Width: 499
Flags: W
HStem: -12 24<116.943 209.037> 393 48<281.293 366.282> 643 18<110 167.348> 663 20G<238 268>
VStem: 23 85<18.1532 70.5985> 388 85<218.109 372.059>
LayerCount: 2
Fore
SplineSet
110 643 m 1
 110 661 l 1
 177 668 212 674 264 683 c 1
 268 678 l 1
 164 290 l 1
 234 400 287 441 357 441 c 0
 423 441 473 391 473 321 c 0
 473 164 308 -12 157 -12 c 0
 100 -12 23 19 23 42 c 2
 23 45 l 1
 160 546 l 1
 163 568 174 596 174 617 c 0
 174 639 168 642 110 643 c 1
318 393 m 0
 206 393 108 150 108 45 c 0
 108 23 125 12 155 12 c 0
 198 12 242 34 278 70 c 1
 337 133 388 240 388 306 c 0
 388 359 360 393 318 393 c 0
EndSplineSet
EndChar

StartChar: c
Encoding: 99 99 68
Width: 443
Flags: W
HStem: -12 37<152.174 261.503> 420 21<265.492 348.876>
VStem: 29 87<58.7216 243.057> 353 72<336.952 409.693>
LayerCount: 2
Fore
SplineSet
315 420 m 0
 196 420 116 263 116 139 c 0
 116 67 149 25 207 25 c 0
 256 25 294 47 350 105 c 1
 366 97 l 1
 306 21 250 -12 177 -12 c 0
 83 -12 29 44 29 139 c 0
 29 294 170 441 319 441 c 0
 379 441 425 406 425 360 c 0
 425 334 404 313 376 313 c 0
 353 313 338 328 338 352 c 0
 338 371 353 386 353 400 c 0
 353 412 338 420 315 420 c 0
EndSplineSet
EndChar

StartChar: d
Encoding: 100 100 69
Width: 499
Flags: W
HStem: -13 50<116.534 195.478 334.012 379.476> 417 24<264.037 342.029> 643 18<369 424.955> 663 20G<495 527>
VStem: 15 88<49.6208 203.396> 287 76<11.8987 135.65>
DStem2: 262.457 -13 339.533 -13 0.267238 0.96363<409.908 651.502>
LayerCount: 2
Fore
SplineSet
463 111 m 1
 475 101 l 1
 423 28 371 -13 330 -13 c 0
 305 -13 287 4 287 32 c 0
 287 56 289 70 300 122 c 1
 231 21 187 -12 120 -12 c 0
 56 -12 15 32 15 103 c 0
 15 253 177 441 308 441 c 0
 346 441 365 425 372 382 c 1
 416 546 l 1
 431 598 431 603 431 617 c 0
 431 639 423 642 369 643 c 1
 369 661 l 1
 434 666 469 672 521 683 c 1
 527 678 l 1
 476 478 456 398 428 306 c 0
 395 196 363 75 363 60 c 0
 363 48 371 40 381 40 c 0
 398 40 409 48 463 111 c 1
356 360 m 0
 356 404 336 417 305 417 c 0
 208 417 103 222 103 103 c 0
 103 64 126 37 160 37 c 0
 252 37 356 209 356 360 c 0
EndSplineSet
EndChar

StartChar: e
Encoding: 101 101 70
Width: 443
Flags: W
HStem: -12 46<147.948 255.23> 417 24<275.34 337.421>
VStem: 31 88<63.8025 200.94> 346 66<317.807 414.666>
LayerCount: 2
Fore
SplineSet
357 108 m 1
 371 97 l 1
 311 29 234 -12 163 -12 c 0
 85 -12 31 45 31 126 c 0
 31 275 187 441 333 441 c 0
 382 441 412 415 412 374 c 0
 412 287 306 211 157 190 c 1
 127 186 l 1
 120 154 119 139 119 125 c 0
 119 70 155 34 212 34 c 0
 255 34 286 50 357 108 c 1
152 252 m 2
 135 208 l 1
 221 229 259 248 296 283 c 0
 327 312 346 349 346 379 c 0
 346 401 333 417 311 417 c 0
 261 417 186 341 152 252 c 2
EndSplineSet
EndChar

StartChar: f
Encoding: 102 102 71
Width: 276
Flags: W
HStem: -207 21<-79.4435 -30.5961> 395 33<42 125 211 313> 656 22<299.541 353.788>
VStem: -146 65<-185.463 -126.321> 354 69<594.807 655.909>
DStem2: 37 -23 132 76 0.20601 0.97855<-60.625 427.163 477.172 592.039>
LayerCount: 2
Fore
SplineSet
-70 -144 m 0
 -70 -154 -81 -165 -81 -170 c 0
 -81 -179 -72 -186 -60 -186 c 0
 -18 -186 15 -130 37 -23 c 2
 125 395 l 1
 35 395 l 1
 42 428 l 1
 133 428 l 1
 166 530 215 678 338 678 c 0
 387 678 423 650 423 612 c 0
 423 590 404 573 382 573 c 0
 360 573 346 589 346 612 c 0
 346 632 354 628 354 645 c 0
 354 650 346 656 333 656 c 0
 277 656 240 584 211 428 c 1
 319 428 l 1
 313 395 l 1
 204 395 l 1
 132 76 l 2
 91 -108 21 -207 -67 -207 c 0
 -111 -207 -146 -180 -146 -146 c 0
 -146 -123 -130 -105 -110 -105 c 0
 -89 -105 -70 -122 -70 -144 c 0
EndSplineSet
EndChar

StartChar: g
Encoding: 103 103 72
Width: 499
Flags: W
HStem: -207 22<125.492 251.438> 151 20<201.974 271.593> 366 38<422 472> 419 22<255.771 329.977>
VStem: 7 56<-144.485 -33.7812> 98 73<71 119.772 199.85 333.815> 325 60<-129.2 -41.0368> 352 79<254.77 365.139>
LayerCount: 2
Fore
SplineSet
297 441 m 0xfe
 372 441 401 404 412 404 c 2
 472 404 l 1
 472 366 l 1
 422 366 l 1
 428 346 431 327 431 311 c 0xfd
 431 231 337 151 246 151 c 0
 219 151 216 155 208 155 c 0
 195 155 171 129 171 114 c 0
 171 100 198 83 242 72 c 0
 337 47 385 3 385 -60 c 0
 385 -146 300 -207 174 -207 c 0
 75 -207 7 -161 7 -92 c 0
 7 -45 26 -26 125 40 c 1
 105 53 98 64 98 78 c 0
 98 103 116 122 174 163 c 1
 119 187 97 218 97 270 c 0
 97 365 186 441 297 441 c 0xfe
148 28 m 1
 148 28 63 -10 63 -82 c 0
 63 -146 110 -185 190 -185 c 0
 267 -185 325 -144 325 -89 c 0xfe
 325 -10 185 13 148 28 c 1
234 171 m 0
 316 171 352 294 352 349 c 0xfd
 352 395 333 419 296 419 c 0
 231 419 174 338 174 248 c 0
 174 201 196 171 234 171 c 0
EndSplineSet
EndChar

StartChar: h
Encoding: 104 104 73
Width: 499
Flags: W
HStem: -9 47<319 389.817> 0 21G<19 113.5> 390 51<314.882 401> 642 14<111 161.698> 663 20G<238.5 272>
VStem: 289 79<14.7675 132.95> 371 77<282.002 388.821>
DStem2: 16.5041 -9 91.5041 -9 0.267238 0.96363<29.3826 266.012 266.517 645.7>
LayerCount: 2
Fore
SplineSet
448 374 m 0x7e
 448 316 368 98 368 56 c 0
 368 47 374 38 382 38 c 0
 398 38 412 48 464 117 c 1
 478 105 l 1
 417 18 382 -9 333 -9 c 0xbe
 305 -9 289 7 289 34 c 0
 289 45 294 76 308 125 c 1
 363 333 l 2
 368 349 371 360 371 365 c 0
 371 378 357 390 341 390 c 0
 308 390 239 328 187 249 c 0
 146 187 133 154 94 0 c 1
 19 0 l 1
 154 513 l 2
 168 565 179 596 179 617 c 0
 179 632 159 642 141 642 c 2
 111 642 l 1
 111 656 l 1
 171 664 209 669 268 683 c 1
 272 678 l 1
 152 230 l 1
 246 375 316 441 382 441 c 0
 420 441 448 415 448 374 c 0x7e
EndSplineSet
EndChar

StartChar: i
Encoding: 105 105 74
Width: 276
Flags: W
HStem: -12 49<79.5 155.449> 400 16<64 120.002> 421 20G<175.5 229> 548 105<175.38 253.455>
VStem: 48 77<15.788 118.003> 167 97<556.754 643.046>
DStem2: 23.6868 -12 103.326 -12 0.267238 0.96363<88.2831 401.13>
LayerCount: 2
Fore
SplineSet
141 37 m 0
 167 37 214 102 223 114 c 1
 234 103 l 1
 179 19 141 -12 95 -12 c 0
 64 -12 48 9 48 45 c 0
 48 66 56 97 70 155 c 1
 119 333 l 2
 125 352 127 368 127 376 c 0
 127 395 119 398 64 400 c 5
 64 416 l 1
 104 419 125 422 226 441 c 1
 229 439 l 1
 135 95 133 95 133 95 c 2
 128 76 125 62 125 51 c 0
 125 44 132 37 141 37 c 0
214 653 m 0
 242 653 264 628 264 599 c 0
 264 571 242 548 215 548 c 0
 186 548 167 568 167 601 c 0
 167 631 187 653 214 653 c 0
EndSplineSet
EndChar

StartChar: j
Encoding: 106 106 75
Width: 276
Flags: W
HStem: -207 22<-55.7404 -9.72831> 400 16<73 133.693> 421 20G<198.5 246> 548 105<187.38 264.53>
VStem: -125 69<-184.817 -125.37> 179 96<556.754 643.561>
DStem2: 2.42579 -207 76.8287 -207 0.267238 0.96363<86.6144 592.956>
LayerCount: 2
Fore
SplineSet
-42 -141 m 0
 -42 -159 -56 -162 -56 -173 c 0
 -56 -180 -50 -185 -38 -185 c 0
 1 -185 25 -141 59 -3 c 2
 130 289 l 1
 142 333 146 359 146 369 c 0
 146 394 136 398 73 400 c 1
 73 416 l 1
 104 417 154 425 243 441 c 1
 246 439 l 1
 142 28 l 2
 103 -130 42 -207 -45 -207 c 0
 -91 -207 -125 -182 -125 -146 c 0
 -125 -122 -107 -104 -83 -104 c 0
 -62 -104 -42 -120 -42 -141 c 0
226 653 m 0
 253 653 275 628 275 599 c 0
 275 571 253 548 227 548 c 0
 198 548 179 568 179 601 c 0
 179 631 199 653 226 653 c 0
EndSplineSet
EndChar

StartChar: k
Encoding: 107 107 76
Width: 443
Flags: W
HStem: -12 53<303.5 368.377> 0 21G<15 94.4444> 412 16<278 327.252 424.734 461> 640 16<105 161.5> 663 20G<233 267>
DStem2: 11.6721 -12 85.6721 -12 0.267238 0.96363<32.2285 218.777 260.423 646.663>
LayerCount: 2
Fore
SplineSet
236 258 m 1x78
 275 171 316 41 354 41 c 0
 369 41 381 53 398 83 c 1
 415 108 l 1
 429 98 l 1
 384 15 357 -12 318 -12 c 0xb8
 289 -12 271 7 239 70 c 0
 221 107 195 168 179 212 c 1
 138 180 l 1
 89 0 l 1
 15 0 l 1
 148 513 l 2
 161 564 174 595 174 615 c 0
 174 634 154 642 105 640 c 1
 105 656 l 1
 166 664 204 669 262 683 c 1
 267 678 l 1
 146 221 l 1
 179 243 333 359 333 394 c 0
 333 404 319 412 294 412 c 2
 278 412 l 1
 278 428 l 1
 461 428 l 1
 461 412 l 1
 415 409 382 390 236 258 c 1x78
EndSplineSet
EndChar

StartChar: l
Encoding: 108 108 77
Width: 276
Flags: W
HStem: -12 44<73 153.617> 640 16<119 173.388> 663 20G<244.5 278>
VStem: 40 77<32.1103 127.477>
DStem2: 22.2594 -12 95.9397 -12 0.267238 0.96363<85.5705 649.743>
LayerCount: 2
Fore
SplineSet
127 100 m 2
 123 85 117 61 117 50 c 0
 117 40 122 32 132 32 c 0
 149 32 168 47 201 89 c 1
 209 101 220 111 229 123 c 1
 242 114 l 1
 176 18 141 -12 89 -12 c 0
 57 -12 40 9 40 45 c 0
 40 50 42 60 45 70 c 2
 182 599 l 2
 185 608 186 614 186 617 c 0
 186 633 166 640 119 640 c 1
 119 656 l 1
 177 664 215 669 274 683 c 1
 278 678 l 1
 127 100 l 2
EndSplineSet
EndChar

StartChar: m
Encoding: 109 109 78
Width: 720
Flags: W
HStem: -9 47<542 619.436> 0 21G<12 110.5 259 354> 390 51<310.455 381.436 549.66 619.997> 394 16<45 88.571>
VStem: 354 77<287.874 389.502> 516 74<15.4844 139> 593 79<283.141 389.859>
DStem2: 495.94 -9 570.772 -9 0.267238 0.96363<86.0798 388.996>
LayerCount: 2
Fore
SplineSet
603 38 m 0xae
 625 38 663 79 688 117 c 1
 705 105 l 1
 676 71 629 -9 555 -9 c 0xae
 529 -9 516 7 516 37 c 0
 516 47 519 66 527 103 c 1
 586 333 l 2
 590 352 593 363 593 368 c 0
 593 379 584 390 573 390 c 0
 543 390 494 346 445 277 c 1
 394 207 374 157 334 0 c 1
 259 0 l 1
 322 234 354 354 354 365 c 0
 354 379 347 390 334 390 c 0x6e
 300 390 240 333 185 248 c 1
 149 196 135 160 86 0 c 1
 12 0 l 1
 46 131 110 350 110 372 c 0
 110 387 97 394 70 394 c 2
 45 394 l 1
 45 410 l 1x5e
 129 425 149 429 207 441 c 1
 209 439 l 1
 151 230 l 1
 243 375 313 441 374 441 c 0
 409 441 431 416 431 381 c 0
 431 362 416 305 391 229 c 1
 433 295 524 441 612 441 c 0
 647 441 672 415 672 378 c 0
 672 372 670 354 669 350 c 2
 601 100 l 2
 595 75 590 59 590 54 c 0
 590 44 596 38 603 38 c 0xae
EndSplineSet
EndChar

StartChar: n
Encoding: 110 110 79
Width: 499
Flags: W
HStem: -9 47<317 393.699> 0 21G<15 112.5> 390 51<311.318 395.5> 394 16<48 84.3548>
VStem: 287 75<16.9379 140.195> 360 82<275.555 389.523>
DStem2: 12.5041 -9 86.5041 -9 0.267238 0.96363<29.1153 389.251> 267.225 -9 341.057 -9 0.267238 0.96363<86.3922 379.859>
LayerCount: 2
Fore
SplineSet
460 117 m 1xa8
 475 104 l 1
 404 12 379 -9 334 -9 c 0
 300 -9 287 7 287 45 c 0xa8
 287 56 290 69 303 120 c 2
 347 286 l 2
 354 316 360 349 360 360 c 0
 360 379 352 390 337 390 c 0xa4
 300 390 249 340 189 248 c 0
 145 180 136 158 89 0 c 1
 15 0 l 1
 110 350 l 2
 111 354 111 360 111 368 c 0
 111 387 100 393 48 394 c 1
 48 410 l 1x54
 209 441 l 1
 212 439 l 1
 146 221 l 1
 249 381 312 441 376 441 c 0
 415 441 442 416 442 379 c 0x24
 442 366 438 344 434 324 c 1
 376 117 l 1
 362 62 362 62 362 54 c 0
 362 45 371 38 378 38 c 0
 393 38 410 54 439 91 c 2
 460 117 l 1xa8
EndSplineSet
EndChar

StartChar: o
Encoding: 111 111 80
Width: 499
Flags: W
HStem: -12 22<148.877 230.931> 420 21<274.962 348.357>
VStem: 26 85<48.2807 217.196> 384 85<205.094 378.722>
LayerCount: 2
Fore
SplineSet
469 300 m 0
 469 165 328 -12 174 -12 c 0
 83 -12 26 42 26 129 c 0
 26 286 174 441 325 441 c 0
 410 441 469 384 469 300 c 0
189 10 m 0
 306 10 384 212 384 327 c 0
 384 382 356 420 313 420 c 0
 208 420 111 229 111 101 c 0
 111 45 142 10 189 10 c 0
EndSplineSet
EndChar

StartChar: p
Encoding: 112 112 81
Width: 499
Flags: W
HStem: -205 16<-75 -37.752 76.8503 130> -12 19<133.421 211.134> 404 15<56 103> 421 20G<68 215 321.5 389.5>
VStem: 379 90<211.315 382.605>
LayerCount: 2
Fore
SplineSet
56 404 m 1
 54 419 l 1
 208 441 l 1
 215 437 l 1
 204 401 194 364 183 328 c 1
 242 409 289 441 354 441 c 0
 425 441 469 394 469 316 c 0
 469 157 315 -12 168 -12 c 0
 146 -12 127 -7 103 6 c 1
 83 -67 66 -146 66 -160 c 0
 66 -182 83 -190 130 -190 c 1
 130 -205 l 1
 -75 -205 l 1
 -75 -189 l 1
 -32 -187 -19 -176 -7 -130 c 1
 5 -74 122 356 122 376 c 0
 122 393 95 412 82 404 c 1
 56 404 l 1
316 398 m 0
 267 401 209 352 182 284 c 0
 152 209 117 79 117 45 c 0
 117 23 138 7 166 7 c 0
 217 7 265 40 308 98 c 1
 350 160 379 246 379 312 c 0
 379 371 360 395 316 398 c 0
EndSplineSet
EndChar

StartChar: q
Encoding: 113 113 82
Width: 499
Flags: W
HStem: -209 19<149 213.797 326.062 391> -12 54<95.125 202.627> 419 22<279.566 354.926>
VStem: 25 86<56.3738 205.336>
DStem2: 232.886 -209 302.915 -209 0.267238 0.96363<66.6756 374.625 609.938 659.237>
LayerCount: 2
Fore
SplineSet
391 -190 m 1
 391 -209 l 1
 149 -209 l 1
 149 -193 l 1
 215 -187 231 -180 245 -141 c 1
 333 152 l 1
 245 26 198 -12 127 -12 c 0
 64 -12 25 34 25 105 c 0
 25 256 186 441 318 441 c 0
 359 441 379 425 395 379 c 1
 410 426 l 1
 483 426 l 1
 319 -151 l 2
 318 -155 316 -160 316 -163 c 0
 316 -182 337 -190 374 -190 c 2
 391 -190 l 1
167 42 m 0
 275 42 379 257 379 357 c 0
 379 393 354 419 321 419 c 0
 222 419 111 224 111 119 c 0
 111 72 133 42 167 42 c 0
EndSplineSet
EndChar

StartChar: r
Encoding: 114 114 83
Width: 388
Flags: W
HStem: 0 21G<45 147.5> 376 65<296.5 379> 397 18<73 106.675>
DStem2: 45 0 122 0 0.267238 0.96363<20.5774 385.697>
LayerCount: 2
Fore
SplineSet
366 340 m 0xc0
 323 340 336 376 313 376 c 0xc0
 297 376 270 346 236 289 c 0
 190 212 173 170 122 0 c 1
 45 0 l 1
 126 291 l 1
 142 360 142 360 142 374 c 0
 142 393 129 401 107 401 c 0
 100 401 97 401 73 397 c 1
 73 415 l 1xa0
 146 426 155 428 229 441 c 1
 231 439 l 1
 179 223 l 1
 192 258 l 1
 209 299 296 441 365 441 c 0
 393 441 412 420 412 390 c 0
 412 357 395 340 366 340 c 0xc0
EndSplineSet
EndChar

StartChar: s
Encoding: 115 115 84
Width: 388
Flags: W
HStem: -12 22<113.274 194.157> 417 24<200.318 281.052>
VStem: 16 16<-13 -0.0281067> 37 16<105.374 146> 108 74<303.904 397.944> 229 76<46.8023 149.043> 330 16<303 339.527>
LayerCount: 2
Fore
SplineSet
160 -12 m 0
 129 -12 92 7 56 7 c 0
 45 7 40 3 32 -13 c 1
 16 -13 l 1
 37 146 l 1
 53 146 l 1
 67 51 100 10 154 10 c 0
 198 10 229 42 229 86 c 0
 229 163 108 248 108 331 c 0
 108 398 157 441 230 441 c 0
 268 441 304 423 322 423 c 0
 335 423 344 428 352 442 c 1
 366 442 l 1
 346 303 l 1
 330 303 l 1
 319 381 290 417 237 417 c 0
 204 417 182 397 182 365 c 0
 182 289 305 213 305 119 c 0
 305 42 245 -12 160 -12 c 0
EndSplineSet
EndChar

StartChar: t
Encoding: 116 116 85
Width: 276
Flags: W
HStem: -12 50<72 138.063> 395 33<215 291>
VStem: 37 82<38.0051 89.4091>
DStem2: 22.8385 -12 98.2007 -12 0.267238 0.96363<94.1158 421.37>
LayerCount: 2
Fore
SplineSet
296 428 m 1
 291 395 l 1
 207 395 l 1
 119 63 l 1
 119 59 l 2
 119 45 125 38 133 38 c 0
 149 38 166 54 214 117 c 1
 227 110 l 1
 164 18 130 -12 85 -12 c 0
 59 -12 37 4 37 26 c 0
 37 47 58 113 60 122 c 2
 132 395 l 1
 59 395 l 1
 57 398 57 401 57 401 c 1
 57 413 64 419 89 428 c 1
 122 437 183 486 223 538 c 0
 229 545 231 546 237 546 c 0
 242 546 245 543 245 536 c 2
 245 532 l 1
 215 428 l 1
 296 428 l 1
EndSplineSet
EndChar

StartChar: u
Encoding: 117 117 86
Width: 499
Flags: W
HStem: -12 54<89.5728 162.787 338.001 393.197> 400 15<59 107.335> 421 11G<179.5 211 362.5 464>
VStem: 42 77<42.1434 154.844> 289 79<17.8732 142.839>
DStem2: 17.3589 -12 95.5954 -12 0.267238 0.96363<103.425 400.677> 265.224 -12 346.788 -12 0.267238 0.96363<93.2598 461.464>
LayerCount: 2
Fore
SplineSet
119 376 m 0
 119 395 98 400 59 400 c 1
 59 415 l 1
 116 420 151 428 208 441 c 1
 211 439 l 1
 120 76 l 2
 119 73 119 70 119 67 c 0
 119 53 127 42 141 42 c 0
 171 42 221 92 281 187 c 0
 327 261 334 277 391 432 c 1
 464 432 l 1
 387 133 l 2
 368 62 368 62 368 56 c 0
 368 44 371 38 378 38 c 0
 394 38 409 53 461 117 c 1
 475 108 l 1
 407 12 384 -9 337 -9 c 0
 308 -9 289 9 289 40 c 0
 289 60 305 129 334 236 c 1
 220 42 166 -12 95 -12 c 0
 60 -12 42 7 42 44 c 0
 42 62 48 97 67 167 c 2
 104 309 l 2
 113 343 119 368 119 376 c 0
EndSplineSet
EndChar

StartChar: v
Encoding: 118 118 87
Width: 443
Flags: W
HStem: -18 21G<141.5 157.5> 421 20G<148.5 156.5 360 385.5>
VStem: 136 71<70 252.48> 375 51<300.954 398.5>
LayerCount: 2
Fore
SplineSet
375 333 m 0
 375 365 333 364 333 407 c 0
 333 428 349 441 371 441 c 0
 400 441 426 415 426 382 c 0
 426 346 400 280 365 230 c 0
 264 88 170 -18 145 -18 c 0
 138 -18 136 -12 136 18 c 0
 136 75 125 226 114 294 c 0
 100 387 89 404 51 404 c 0
 40 404 32 404 21 403 c 1
 21 416 l 1
 111 430 145 441 152 441 c 0
 161 441 161 439 182 337 c 1
 193 264 201 211 207 70 c 1
 237 103 l 1
 309 176 375 287 375 333 c 0
EndSplineSet
EndChar

StartChar: w
Encoding: 119 119 88
Width: 666
Flags: W
HStem: -18 21G<129 143.5 378.5 386> 404 13<16 59.8489> 421 20G<135 146.5 392.5 398 584.5 610.5>
VStem: 117 73<126 328.024> 371 57<1.02145 50.3147> 601 46<312.158 404.5>
DStem2: 403 428 341 333 0.0902814 -0.995916<89.0146 354.447>
LayerCount: 2
Fore
SplineSet
647 390 m 0
 647 275 428 29 428 25 c 1
 400 -7 390 -18 382 -18 c 0
 375 -18 374 -15 371 12 c 2
 341 333 l 1
 253 174 l 2
 180 41 154 -18 133 -18 c 0
 125 -18 123 -10 122 29 c 1
 117 117 l 1
 114 196 103 302 89 359 c 1
 83 397 73 407 45 404 c 1
 16 404 l 1
 16 417 l 1
 28 419 38 420 42 420 c 0
 124 435 129 441 141 441 c 0
 152 441 154 434 166 371 c 1
 176 300 187 196 190 126 c 1
 382 433 l 2
 387 440 390 441 395 441 c 0
 401 441 403 439 403 428 c 2
 435 75 l 1
 565 237 601 291 601 334 c 0
 601 366 557 376 557 407 c 0
 557 428 573 441 596 441 c 0
 625 441 647 419 647 390 c 0
EndSplineSet
EndChar

StartChar: x
Encoding: 120 120 89
Width: 443
Flags: W
HStem: -12 56<-6.55522 72.506 278 344.587> 385 56<352.325 427.428> 404 37<108.703 206>
DStem2: 116 95 207 176 0.566875 0.823804<-67.3123 118.314 245.204 376.735>
LayerCount: 2
Fore
SplineSet
334 44 m 0xc0
 355 44 379 86 401 111 c 1
 416 103 l 1
 357 13 333 -12 294 -12 c 0
 262 -12 249 4 236 56 c 2
 207 176 l 1
 75 1 60 -12 23 -12 c 0
 -7 -12 -26 4 -26 31 c 0
 -26 51 -12 66 7 66 c 0
 30 66 49 47 64 47 c 0
 76 47 97 64 116 95 c 1
 198 212 l 1
 168 335 l 1
 155 395 149 404 125 404 c 0
 116 404 105 401 67 393 c 1
 64 409 l 1
 75 412 l 1
 136 432 170 441 192 441 c 0xa0
 220 441 230 420 245 353 c 1
 255 297 l 1
 324 404 362 441 406 441 c 0xc0
 431 441 447 425 447 404 c 0xa0
 447 382 434 368 412 368 c 0
 393 368 376 385 360 385 c 0
 343 385 308 341 264 264 c 1
 264 241 303 85 303 85 c 1
 311 57 319 44 334 44 c 0xc0
EndSplineSet
EndChar

StartChar: y
Encoding: 121 121 90
Width: 443
Flags: W
HStem: -207 56<5.05415 78.1724> 404 37<44.3063 166.5>
VStem: 387 39<302.198 401.5>
LayerCount: 2
Fore
SplineSet
15 -123 m 0
 44 -123 55 -151 76 -151 c 0
 89 -151 101 -144 122 -122 c 1
 185 -42 l 2
 199 -23 205 -7 205 7 c 0
 205 25 182 142 164 207 c 0
 119 379 103 404 45 404 c 0
 35 404 28 403 15 400 c 1
 15 417 l 1
 41 422 137 441 156 441 c 0
 177 441 232 257 245 187 c 1
 264 72 l 1
 349 212 387 291 387 331 c 0
 387 366 333 364 333 404 c 0
 333 426 349 441 371 441 c 0
 401 441 426 416 426 387 c 0
 426 337 398 265 330 142 c 1
 223 -56 91 -207 26 -207 c 0
 -1 -207 -23 -187 -23 -163 c 0
 -23 -141 -7 -123 15 -123 c 0
EndSplineSet
EndChar

StartChar: z
Encoding: 122 122 91
Width: 388
Flags: W
HStem: -81 21<248.351 306.041> -13 21G<-1 15> 368 60<101.268 308>
VStem: 64 17<311.353 325.891> 308 55<-52.2447 13.8846>
DStem2: -1 -4 89 73 0.638963 0.769237<116.738 483.596>
LayerCount: 2
Fore
SplineSet
270 -81 m 0
 196 -81 124 4 53 4 c 0
 37 4 23 0 7 -13 c 1
 -1 -4 l 1
 308 368 l 1
 163 368 l 2
 116 368 103 359 81 309 c 1
 64 313 l 1
 97 428 l 1
 379 428 l 1
 379 417 l 1
 89 73 l 1
 148 60 167 47 211 -10 c 0
 245 -53 256 -60 281 -60 c 0
 297 -60 308 -54 308 -45 c 0
 308 -34 294 -19 294 0 c 0
 294 18 308 31 328 31 c 0
 349 31 363 16 363 -4 c 0
 363 -45 319 -81 270 -81 c 0
EndSplineSet
EndChar

StartChar: braceleft
Encoding: 123 123 92
Width: 399
Flags: W
HStem: -177 11<164.311 176> 677 10<391.552 404>
VStem: 51 75<-151.693 -1.61716> 117 75<91.8164 235.604>
DStem2: 18.5808 -177 94.4209 -177 0.267238 0.96363<494.237 858.33>
LayerCount: 2
Fore
SplineSet
51 -100 m 0xe0
 51 -40 117 138 117 198 c 0
 117 227 104 242 64 255 c 1
 129 272 151 296 170 369 c 2
 218 546 l 1
 249 653 294 687 407 687 c 1
 404 677 l 1
 341 661 316 631 294 552 c 1
 250 384 l 2
 229 300 202 272 138 255 c 1
 176 237 192 220 192 192 c 0xd0
 192 149 126 -63 126 -100 c 0
 126 -138 141 -155 179 -166 c 1
 176 -177 l 1
 83 -174 51 -154 51 -100 c 0xe0
EndSplineSet
EndChar

StartChar: bar
Encoding: 124 124 93
Width: 273
Flags: W
HStem: -18 21G<105 171> 646 20G<105 171>
VStem: 105 66<-18 666>
LayerCount: 2
Fore
SplineSet
105 -18 m 1
 105 666 l 1
 171 666 l 1
 171 -18 l 1
 105 -18 l 1
EndSplineSet
EndChar

StartChar: braceright
Encoding: 125 125 94
Width: 399
Flags: W
HStem: -177 11<-4 12.7209> 677 10<224 232.365>
VStem: 208 75<274.325 419.405> 274 75<512.496 661.485>
DStem2: 67.5612 -177 143.175 -177 0.267238 0.96363<59.4893 424.042>
LayerCount: 2
Fore
SplineSet
208 318 m 0xe0
 208 358 274 576 274 609 c 0
 274 646 259 665 221 677 c 1
 224 687 l 1
 315 684 349 664 349 609 c 0xd0
 349 550 283 379 283 312 c 0
 283 283 296 270 335 255 c 1
 271 237 249 214 230 141 c 2
 182 -37 l 1
 151 -144 105 -177 -7 -177 c 1
 -4 -166 l 1
 59 -149 83 -122 105 -42 c 1
 149 126 l 2
 171 209 196 237 264 255 c 1
 224 272 208 291 208 318 c 0xe0
EndSplineSet
EndChar

StartChar: asciitilde
Encoding: 126 126 95
Width: 540
Flags: W
HStem: 186 66<301.563 424.766> 253 66<115.78 243.972>
LayerCount: 2
Fore
SplineSet
163 319 m 0
 262 319 301 252 374 252 c 0
 404 252 422 264 448 303 c 1
 502 271 l 1
 456 207 425 186 379 186 c 0
 279 186 248 253 168 253 c 0
 138 253 120 242 94 204 c 1
 40 234 l 1
 86 299 117 319 163 319 c 0
EndSplineSet
EndChar

StartChar: uni0E10.descless
Encoding: 63232 63232 96
Width: 484
Flags: W
HStem: -8 43<261.958 325.049> 189 40<172.863 223.818> 319 38<174.105 242.695> 488 72<404.904 534.855> 526 68<264.04 389.12>
VStem: 126 40<235.298 312.252> 194 67<36.3556 102.436> 251 67<234.227 313.015> 409 76<308.735 369.981>
DStem2: 208 472 149 439 0.960176 -0.279395<0 227.48> 167.385 -8 239.15 -8 0.267238 0.96363<94.625 205.929> 312.427 -8 385.385 -8 0.267238 0.96363<53.7068 368.542>
LayerCount: 2
Fore
SplineSet
593 582 m 0xf680
 593 573 552 488 462 488 c 0xf680
 410 488 356 526 295 526 c 0
 257 526 233 508 208 472 c 1
 452 401 l 1
 462 395 485 393 485 362 c 0
 485 354 483 344 480 332 c 2
 417 106 l 2
 399 41 351 -8 276 -8 c 0
 225 -8 194 28 194 74 c 0xee80
 194 84 196 95 199 106 c 2
 224 190 l 1
 220 189 216 189 213 189 c 0
 176 189 126 220 126 273 c 0
 126 320 168 357 213 357 c 0
 280 357 318 328 318 288 c 0xed80
 318 282 318 276 316 270 c 2
 263 78 l 2
 262 74 261 69 261 64 c 0
 261 49 269 35 288 35 c 0
 313 35 331 58 336 77 c 2
 404 321 l 2
 407 332 409 341 409 348 c 0
 409 360 403 366 390 370 c 2
 149 439 l 1
 174 483 234 594 340 594 c 0xee80
 386 594 454 560 513 560 c 0
 565 560 578 587 589 587 c 0
 591 587 593 585 593 582 c 0xf680
208 229 m 0
 237 229 251 252 251 274 c 0xe580
 251 296 236 319 208 319 c 0
 180 319 166 296 166 274 c 0
 166 252 180 229 208 229 c 0
EndSplineSet
EndChar

StartChar: uni0E34.left
Encoding: 63233 63233 97
Width: 0
Flags: W
HStem: 740 40<-418.811 -220.739> 844 49<-317.732 -157.834>
LayerCount: 2
Back
SplineSet
-62 654 m 1
 -82 667 -183 722 -250 731 c 0
 -339 746 -425 733 -444 728 c 1
 -389 834 -288 900 -193 892 c 0
 -86 885 -30 796 -62 654 c 1
-94 719 m 1
 -100 803 -141 834 -209 843 c 0
 -267 851 -328 820 -361 779 c 1
 -361 779 -290 785 -229 773 c 0
 -143 756 -94 719 -94 719 c 1
EndSplineSet
Fore
Refer: 180 3636 N 1 0 0 1 -165 0 2
EndChar

StartChar: uni0E35.left
Encoding: 63234 63234 98
Width: 0
Flags: W
HStem: 740 40<-418.811 -220.739> 844 49<-317.732 -157.795>
DStem2: -157.91 651 -85.7325 651 0.267238 0.96363<205.473 311.513>
LayerCount: 2
Back
SplineSet
-62 654 m 1
 -82 667 -183 720 -250 731 c 0
 -342 746 -425 733 -444 728 c 1
 -399 820 -296 900 -201 892 c 0
 -168 891 -126 883 -95 852 c 1
 -67 951 l 1
 -3 951 l 1
 -56 762 l 1
 -56 762 -48 720 -62 654 c 1
-94 719 m 1
 -100 803 -141 834 -209 843 c 0
 -267 851 -328 820 -361 779 c 1
 -361 779 -290 785 -229 773 c 0
 -143 756 -94 719 -94 719 c 1
EndSplineSet
Fore
Refer: 181 3637 N 1 0 0 1 -165 0 2
EndChar

StartChar: uni0E36.left
Encoding: 63235 63235 99
Width: 0
Flags: W
HStem: 740 40<-419.075 -220.749> 844 50<-317.193 -157.291> 906 48<-99.674 -26.0488>
VStem: -20 44<824.804 900.395>
LayerCount: 2
Back
SplineSet
-63 822 m 0
 -38 822 -25 842 -26 863 c 0
 -25 884 -38 905 -64 905 c 0
 -89 905 -101 885 -101 864 c 0
 -101 843 -88 822 -63 822 c 0
-94 719 m 17
 -100 803 -141 834 -209 843 c 0
 -267 851 -328 820 -361 779 c 1
 -361 779 -290 785 -229 773 c 0
 -143 756 -94 719 -94 719 c 17
-62 654 m 1
 -82 667 -183 720 -250 731 c 0
 -342 746 -425 733 -444 728 c 1
 -398 822 -292 900 -198 892 c 0
 -158 889 -140 879 -140 879 c 1
 -134 908 -114 948 -60 948 c 0
 -15 948 18 904 18 865 c 0
 18 825 -13 779 -59 780 c 1
 -59 780 -44 735 -62 654 c 1
EndSplineSet
Fore
Refer: 182 3638 N 1 0 0 1 -165 0 2
EndChar

StartChar: uni0E37.left
Encoding: 63236 63236 100
Width: 0
Flags: W
HStem: 736 40<-420.572 -218.259> 830 46<-329.112 -218>
DStem2: -152.75 648 -84.3458 648 0.267238 0.96363<189.907 314.896>
LayerCount: 2
Back
SplineSet
-62 654 m 1
 -82 667 -183 720 -250 731 c 0
 -342 746 -425 733 -444 728 c 1
 -381 851 -266 902 -196 889 c 1
 -177 951 l 1
 -124 951 l 1
 -144 877 l 1
 -114 869 -93 845 -93 845 c 1
 -63 951 l 1
 -7 951 l 1
 -56 763 l 1
 -56 763 -45 723 -62 654 c 1
-94 719 m 1
 -100 803 -141 834 -209 843 c 0
 -267 851 -328 820 -361 779 c 1
 -361 779 -290 785 -229 773 c 0
 -143 756 -94 719 -94 719 c 1
EndSplineSet
Fore
Refer: 183 3639 N 1 0 0 1 -165 0 2
EndChar

StartChar: ellipsis
Encoding: 8230 8230 101
Width: 951
Flags: W
HStem: -14 115<140.5 203.109 456.134 519.823 775 837.531>
VStem: 116 112<11.75 77.0261> 432 114<12.0266 76.6301> 750 112<11.1957 76.2144>
CounterMasks: 1 70
LayerCount: 2
Fore
SplineSet
862 60 m 0
 862 27 828 -14 789 -14 c 0
 764 -14 750 5 750 29 c 0
 750 69 793 101 821 101 c 0
 845 101 862 83 862 60 c 0
546 59 m 0
 546 24 508 -14 472 -14 c 0
 447 -14 432 5 432 29 c 0
 432 67 472 101 504 101 c 0
 528 101 546 83 546 59 c 0
228 60 m 0
 228 30 197 -14 154 -14 c 0
 130 -14 116 5 116 29 c 0
 116 69 158 101 186 101 c 0
 211 101 228 83 228 60 c 0
EndSplineSet
EndChar

StartChar: uni0E48.low_left
Encoding: 63237 63237 102
Width: 0
Flags: W
HStem: 670 244<-83 -78>
VStem: -150 139
DStem2: -150 670 -78 670 0.267238 0.96363<19.2412 253.031>
LayerCount: 2
Back
SplineSet
-8 926 m 1
 -75 685 l 1
 -147 685 l 5
 -80 926 l 1
 -8 926 l 1
EndSplineSet
Fore
Refer: 107 63242 N 1 0 0 1 -165 0 2
EndChar

StartChar: uni0E49.low_left
Encoding: 63238 63238 103
Width: 0
Flags: W
HStem: 668 48<-253 -168.139> 774 39<-277.864 -242> 919 37<-277.694 -200.573>
VStem: -327 37<824.385 907.383> -188 39<824.3 907.632> 19 77<906.623 952>
LayerCount: 2
Back
SplineSet
-213 906 m 0
 -189 875 -195 843 -203 824 c 0
 -237 754 -293 716 -293 716 c 1
 -293 714 l 1
 -230 723 -92 766 -38 931 c 1
 40 931 l 17
 -85 637 -360 667 -388 670 c 1
 -379 703 l 1
 -370 707 -307 736 -281 778 c 1
 -281 778 -287 777 -302 780 c 0
 -341 786 -361 820 -361 854 c 0
 -361 895 -332 938 -275 938 c 0
 -249 938 -223 919 -213 906 c 0
-279 811 m 0
 -251 811 -237 833 -237 856 c 0
 -236 879 -251 902 -280 902 c 0
 -309 902 -324 880 -323 857 c 0
 -324 834 -309 811 -279 811 c 0
EndSplineSet
Fore
Refer: 108 63243 N 1 0 0 1 -187 0 2
EndChar

StartChar: uni0E4A.low_left
Encoding: 63239 63239 104
Width: 0
Flags: W
HStem: 666 32<-350.974 -287.57> 782 32<-350.974 -288.207> 876 56<-321.537 -257.184>
VStem: -412 53<702.322 806.425> -280 33<705.542 774.318> -132 55<772.612 874.352> 5 73<868.12 926>
LayerCount: 2
Back
SplineSet
16 906 m 17
 -14 768 -105 684 -230 670 c 1
 -224 694 l 1
 -194 710 -173 744 -164 776 c 0
 -154 810 -159 842 -183 849 c 1
 -247 811 l 1
 -288 849 l 1
 -323 849 -352 810 -360 788 c 1
 -360 788 -352 800 -319 800 c 0
 -280 800 -257 770 -256 734 c 0
 -257 690 -285 666 -321 666 c 0
 -406 666 -420 720 -400 793 c 0
 -386 843 -323 903 -273 903 c 1
 -273 903 -234 857 -232 857 c 2
 -169 902 l 1
 -107 884 -100 839 -112 797 c 0
 -119 771 -134 745 -147 728 c 1
 -83 766 -48 834 -45 906 c 1
 16 906 l 17
-286 733 m 0
 -286 758 -304 770 -322 770 c 0
 -340 770 -358 758 -358 733 c 0
 -358 708 -340 696 -322 696 c 0
 -304 696 -286 708 -286 733 c 0
EndSplineSet
Fore
Refer: 109 63244 N 1 0 0 1 -187 0 2
EndChar

StartChar: uni0E4B.low_left
Encoding: 63240 63240 105
Width: 0
Flags: W
HStem: 677 21<-165 -102.2> 779 60<-230 -139 -60 29>
VStem: -247 293
DStem2: -165 677 -108 677 0.267238 0.96363<15.2326 103.311 185.132 273.802>
LayerCount: 2
Back
SplineSet
-7 777 m 1
 -116 776 l 1
 -146 676 l 1
 -200 676 l 1
 -173 776 l 1
 -283 777 l 1
 -267 834 l 1
 -158 836 l 1
 -132 935 l 1
 -69 935 l 1
 -98 836 l 1
 9 834 l 1
 -7 777 l 1
EndSplineSet
Fore
Refer: 110 63245 N 1 0 0 1 -187 0 2
EndChar

StartChar: uni0E4C.low_left
Encoding: 63241 63241 106
Width: 0
Flags: W
HStem: 668 39<-191.425 -120.771>
VStem: -238 39<714.417 787.12> -114 40<713.164 787.969>
LayerCount: 2
Back
SplineSet
49 954 m 17
 9 846 -120 825 -130 822 c 0
 -145 817 -173 815 -173 815 c 1
 -142 805 -131 778 -131 746 c 0
 -131 694 -168 670 -209 670 c 0
 -254 670 -283 709 -283 746 c 0
 -283 788 -249 831 -143 860 c 0
 -91 876 -30 906 -16 968 c 1
 49 954 l 17
-206 703 m 0
 -178 703 -165 724 -164 746 c 0
 -164 767 -178 788 -206 788 c 0
 -234 788 -248 767 -248 746 c 0
 -248 724 -234 703 -206 703 c 0
EndSplineSet
Fore
Refer: 111 63246 N 1 0 0 1 -165 0 2
EndChar

StartChar: uni0E48.low
Encoding: 63242 63242 107
Width: 0
Flags: W
HStem: 670 244<82 87>
VStem: 15 139
DStem2: 15 670 87 670 0.267238 0.96363<19.2412 253.031>
AnchorPoint: "AboveMark" 133 968 basemark 0
AnchorPoint: "AboveBase" 78 645 mark 0
LayerCount: 2
Fore
SplineSet
154 914 m 1
 87 670 l 1
 15 670 l 1
 82 914 l 1
 154 914 l 1
EndSplineSet
EndChar

StartChar: uni0E49.low
Encoding: 63243 63243 108
Width: 0
Flags: W
HStem: 668 48<-66 18.8612> 774 39<-90.8641 -55> 919 37<-90.6943 -13.5732>
VStem: -140 37<824.385 907.383> -1 39<824.3 907.632> 206 77<906.623 952>
AnchorPoint: "AboveMark" 86 968 basemark 0
AnchorPoint: "AboveBase" 116 645 mark 0
LayerCount: 2
Fore
SplineSet
-48 956 m 0
 -3 956 38 921 38 865 c 0
 38 848 34 833 27 822 c 0
 -19 744 -66 716 -66 716 c 1
 -64 716 l 1
 -64 716 134 722 206 952 c 1
 283 952 l 17
 188 696 -23 668 -117 668 c 0
 -139 668 -155 669 -161 670 c 1
 -151 705 l 1
 -143 708 -86 730 -53 775 c 1
 -55 774 l 1
 -104 774 -140 820 -140 866 c 0
 -140 912 -109 956 -48 956 c 0
-53 813 m 0
 -19 813 -1 840 -1 866 c 0
 -2 892 -18 919 -53 919 c 0
 -86 919 -103 892 -103 866 c 0
 -102 840 -86 813 -53 813 c 0
EndSplineSet
EndChar

StartChar: uni0E4A.low
Encoding: 63244 63244 109
Width: 0
Flags: W
HStem: 666 32<-163.974 -100.57> 782 32<-163.974 -101.207> 876 56<-134.537 -70.1836>
VStem: -225 53<702.322 806.425> -93 33<705.542 774.318> 55 55<772.612 874.352> 192 73<868.12 926>
AnchorPoint: "AboveMark" -7 968 basemark 0
AnchorPoint: "AboveBase" 116 645 mark 0
LayerCount: 2
Fore
SplineSet
110 850 m 0
 110 797 69 740 69 739 c 1
 71 739 l 1
 127 770 189 852 192 926 c 1
 265 926 l 17
 231 799 130 691 -27 670 c 1
 -19 699 l 1
 25 723 55 780 55 827 c 0
 55 851 47 870 29 876 c 1
 -46 831 l 1
 -50 836 -93 876 -93 876 c 1
 -131 876 -170 824 -179 794 c 1
 -179 794 -162 814 -129 814 c 0
 -93 814 -60 782 -60 740 c 0
 -60 706 -87 666 -133 666 c 0
 -200 666 -225 702 -225 751 c 0
 -225 864 -125 931 -75 932 c 1
 -73 931 -31 883 -29 883 c 1
 42 932 l 1
 94 915 110 883 110 850 c 0
-93 739 m 0
 -93 768 -113 782 -132 782 c 0
 -152 782 -172 768 -172 739 c 0
 -172 712 -152 698 -132 698 c 0
 -112 698 -93 712 -93 739 c 0
EndSplineSet
EndChar

StartChar: uni0E4B.low
Encoding: 63245 63245 110
Width: 0
Flags: W
HStem: 677 21G<22 84.8> 779 60<-43 48 127 216>
VStem: -60 293
DStem2: 22 677 79 677 0.267238 0.96363<15.2326 103.311 185.132 273.802>
AnchorPoint: "AboveMark" 131 968 basemark 0
AnchorPoint: "AboveBase" 116 645 mark 0
LayerCount: 2
Fore
SplineSet
216 779 m 1
 108 777 l 1
 79 677 l 1
 22 677 l 1
 48 777 l 1
 -60 779 l 1
 -43 839 l 1
 64 840 l 1
 91 942 l 1
 157 942 l 1
 127 840 l 1
 233 839 l 1
 216 779 l 1
EndSplineSet
EndChar

StartChar: uni0E4C.low
Encoding: 63246 63246 111
Width: 0
Flags: W
HStem: 668 39<-26.4252 44.2288>
VStem: -73 39<714.417 787.12> 51 40<713.164 787.969>
AnchorPoint: "AboveMark" 69 968 basemark 0
AnchorPoint: "AboveBase" 78 645 mark 0
LayerCount: 2
Fore
SplineSet
263 949 m 17
 215 854 103 835 66 826 c 8
 59 824 47 824 47 824 c 1
 77 811 91 784 91 751 c 0
 91 706 55 668 6 668 c 0
 -49 668 -73 715 -73 754 c 0
 -73 796 -38 837 72 871 c 0
 126 888 175 917 200 971 c 1
 263 949 l 17
11 707 m 0
 37 707 51 729 51 750 c 0
 51 772 37 794 11 794 c 0
 -19 794 -34 772 -34 750 c 0
 -34 729 -19 707 11 707 c 0
EndSplineSet
EndChar

StartChar: uni0E0D.descless
Encoding: 63247 63247 112
Width: 762
Flags: W
HStem: -8 37<191.053 257.498 486.357 580.08> 121 44<214.4 262.476> 392 44<214 232 274.183 364> 547 51<321.254 467.413>
VStem: 118 63<37.3184 115.752> 268 41<39.2724 114.312> 404 71<37.6777 125.267> 497 74<357.836 518.412>
DStem2: 87.9984 -10 165.468 -10 0.267238 0.96363<202.308 414.761> 374.166 -10 447.217 -10 0.267238 0.96363<113.026 481.243> 585.494 -10 659.385 -10 0.267238 0.96363<75.0581 626.797>
LayerCount: 2
Fore
SplineSet
691 104 m 2
 677 54 600 -8 515 -8 c 0
 445 -8 404 32 404 84 c 0
 404 93 405 102 408 112 c 2
 490 407 l 2
 495 425 497 442 497 456 c 0
 497 520 454 547 399 547 c 0
 332 547 250 505 214 436 c 1
 376 436 l 1
 364 392 l 1
 317 392 l 2
 275 392 267 355 266 352 c 2
 214 165 l 1
 223 165 l 2
 280 165 309 122 309 78 c 0
 309 34 280 -10 221 -10 c 0
 144 -10 118 45 118 86 c 0
 118 95 119 102 121 109 c 2
 181 324 l 2
 195 375 232 392 232 392 c 1
 152 392 l 1
 193 527 319 598 422 598 c 0
 504 598 571 554 571 462 c 0
 571 447 569 431 565 413 c 2
 478 101 l 2
 476 93 475 86 475 79 c 0
 475 50 494 29 527 29 c 0
 569 29 605 60 616 100 c 2
 753 594 l 1
 827 594 l 1
 691 104 l 2
223 32 m 0
 253 32 268 55 268 77 c 0
 268 99 254 121 224 121 c 0
 197 121 181 99 181 78 c 0
 181 50 198 32 223 32 c 0
EndSplineSet
EndChar

StartChar: quoteleft
Encoding: 8216 8216 113
Width: 317
Flags: W
HStem: 456 122<269.313 338.731>
VStem: 233 147<486.664 575.168>
LayerCount: 2
Fore
SplineSet
380 542 m 0
 380 523 362 456 293 456 c 0
 249 456 233 488 233 524 c 0
 233 628 353 706 404 728 c 1
 410 700 l 1
 368 679 305 624 295 588 c 0
 293 582 291 578 296 578 c 0
 303 578 314 585 329 585 c 0
 358 585 380 570 380 542 c 0
EndSplineSet
EndChar

StartChar: quoteright
Encoding: 8217 8217 114
Width: 317
Flags: W
HStem: 598 21G<301.5 323.5> 605 122<305.865 375.687>
VStem: 265 147<607.331 695.38>
LayerCount: 2
Fore
SplineSet
265 641 m 0xa0
 265 662 285 727 352 727 c 0
 396 727 412 695 412 659 c 0
 412 554 291 475 240 455 c 1
 235 482 l 1
 276 504 340 559 350 594 c 0
 352 601 354 605 348 605 c 0x60
 342 605 331 598 316 598 c 0
 287 598 265 613 265 641 c 0xa0
EndSplineSet
EndChar

StartChar: bullet
Encoding: 8226 8226 117
Width: 367
Flags: W
HStem: 189 261<234.26 309.164>
VStem: 143 259<282.025 356.857>
LayerCount: 2
Fore
SplineSet
402 358 m 0
 402 275 323 189 235 189 c 0
 179 189 143 228 143 282 c 0
 143 363 220 450 308 450 c 0
 366 450 402 412 402 358 c 0
EndSplineSet
EndChar

StartChar: endash
Encoding: 8211 8211 118
Width: 732
Flags: W
HStem: 214 47<104 759>
LayerCount: 2
Fore
SplineSet
759 214 m 1
 91 214 l 1
 104 261 l 1
 772 261 l 1
 759 214 l 1
EndSplineSet
EndChar

StartChar: emdash
Encoding: 8212 8212 119
Width: 1464
Flags: W
HStem: 214 47<93 1503>
LayerCount: 2
Fore
SplineSet
1503 214 m 1
 80 214 l 1
 93 261 l 1
 1516 261 l 1
 1503 214 l 1
EndSplineSet
EndChar

StartChar: uni0E31.left
Encoding: 63248 63248 120
Width: 0
Flags: W
HStem: 676 52<-166.464 -7.46594> 874 40<-230.082 -157.937>
VStem: -291 53<789.814 867.751> -150 43<787.562 867.594>
LayerCount: 2
Back
SplineSet
315 908 m 17
 234 750 65 677 -65 677 c 0
 -166 677 -251 717 -245 815 c 0
 -242 867 -218 912 -154 912 c 0
 -114 912 -70 882 -70 826 c 0
 -70 758 -126 742 -126 742 c 1
 -101 733 -75 728 -49 728 c 0
 79 728 201 831 231 908 c 1
 315 908 l 17
-154 780 m 0
 -126 780 -112 803 -112 826 c 0
 -112 848 -126 871 -154 871 c 0
 -184 871 -199 848 -199 826 c 0
 -199 803 -184 780 -154 780 c 0
EndSplineSet
Fore
Refer: 177 3633 N 1 0 0 1 -165 0 2
EndChar

StartChar: uni0E4D.left
Encoding: 63249 63249 121
Width: 0
Flags: W
HStem: 668 43<-159.694 -83.1085> 813 46<-160.876 -82.9104>
VStem: -212 42<721.087 803.128> -74 44<718.513 803.875>
LayerCount: 2
Back
SplineSet
-121 676 m 0
 -181 676 -210 723 -210 770 c 0
 -211 816 -181 863 -121 863 c 0
 -62 863 -32 816 -32 769 c 0
 -32 722 -62 676 -121 676 c 0
-120 717 m 0
 -87 717 -71 742 -71 768 c 0
 -71 794 -88 820 -121 820 c 0
 -155 820 -172 795 -172 769 c 0
 -172 743 -154 717 -120 717 c 0
EndSplineSet
Fore
Refer: 203 3661 N 1 0 0 1 -198 0 2
EndChar

StartChar: uni0E47.left
Encoding: 63250 63250 122
Width: 0
Flags: W
HStem: 668 44<-131.917 -62.826> 757 57<-304.949 -230.029> 795 39<-132.706 -64.6459> 886 52<-219.634 -36.0278> 898 49<-291.908 -110.12>
VStem: -390 59<721.71 856.542> -170 32<737.281 787.434> -58 37<718.673 788.004> -4 75<974.139 1028>
LayerCount: 2
Back
SplineSet
52 995 m 17x4c
 24 895 -39 837 -181 868 c 0
 -240 880 -282 882 -310 822 c 0
 -324 794 -323 763 -318 753 c 1x4c
 -318 753 -297 800 -247 800 c 0x2c
 -197 800 -190 746 -168 734 c 1
 -168 734 -168 740 -168 748 c 0
 -168 797 -135 820 -101 820 c 0x1c
 -66 820 -29 795 -29 745 c 0
 -29 695 -70 667 -100 667 c 0
 -224 667 -206 745 -255 745 c 0xac
 -304 745 -314 684 -306 668 c 1
 -340 668 l 1
 -371 702 -384 773 -345 846 c 0
 -323 891 -263 952 -151 923 c 0
 -77 905 -34 911 -16 995 c 1
 52 995 l 17x4c
-63 745 m 0xac
 -63 771 -81 784 -99 784 c 0x1c
 -117 784 -135 771 -135 745 c 0
 -135 720 -117 708 -99 708 c 0
 -81 708 -63 720 -63 745 c 0xac
EndSplineSet
Fore
Refer: 197 3655 N 1 0 0 1 -142 0 2
EndChar

StartChar: uni0E48.left
Encoding: 63251 63251 123
Width: 0
Flags: W
HStem: 1009 201<-2 14>
VStem: -58 128
DStem2: -58 1009 14 1009 0.267238 0.96363<19.2412 208.655>
LayerCount: 2
Back
SplineSet
75 1226 m 1
 14 1006 l 1
 -58 1006 l 1
 3 1226 l 1
 75 1226 l 1
EndSplineSet
Fore
Refer: 198 3656 N 1 0 0 1 -169 0 2
EndChar

StartChar: uni0E49.left
Encoding: 63252 63252 124
Width: 0
Flags: W
HStem: 1066 34<-155.317 -127> 1184 36<-156.816 -88.2129>
VStem: -197 33<1108.52 1176.29> -82 36<1105.55 1177.91> 138 76<1171.73 1213>
LayerCount: 2
Back
SplineSet
-42 1085 m 1
 -49 1085 -46 1085 -60 1088 c 0
 -94 1098 -111 1128 -112 1159 c 0
 -111 1199 -84 1239 -33 1239 c 0
 7 1239 45 1203 39 1154 c 0
 16 1072 -49 1035 -49 1035 c 1
 -50 1032 l 1
 55 1038 151 1098 196 1229 c 1
 268 1229 l 1
 199 1044 54 943 -140 997 c 1
 -131 1026 l 1
 -104 1034 -67 1053 -42 1085 c 1
-36 1119 m 0
 -9 1119 4 1140 5 1161 c 0
 5 1182 -9 1203 -36 1203 c 0
 -64 1203 -79 1182 -79 1161 c 0
 -79 1140 -65 1119 -36 1119 c 0
EndSplineSet
Fore
Refer: 199 3657 N 1 0 0 1 -250 0 2
EndChar

StartChar: uni0E4A.left
Encoding: 63253 63253 125
Width: 0
Flags: W
HStem: 988 30<-110.778 -52.9664> 1093 31<-111.493 -52.7419> 1172 54<-90.1481 -48>
VStem: -169 51<1021.26 1116.94> -46 29<1024.92 1085.36> 80 52<1078.81 1171.4> 195 61<1163.47 1229>
LayerCount: 2
Back
SplineSet
-152 1118 m 0
 -138 1169 -74 1229 -23 1229 c 1
 -23 1229 14 1183 16 1183 c 2
 81 1229 l 1
 142 1211 148 1166 137 1124 c 0
 129 1097 114 1071 101 1054 c 1
 167 1092 200 1157 204 1229 c 1
 265 1229 l 17
 234 1091 139 1012 19 995 c 1
 26 1020 l 1
 55 1036 76 1069 85 1101 c 0
 95 1135 90 1168 67 1175 c 1
 1 1137 l 1
 -39 1175 l 1
 -74 1175 -105 1136 -114 1112 c 1
 -114 1112 -93 1135 -54 1124 c 0
 -29 1117 -7 1089 -8 1059 c 0
 -10 1018 -35 991 -76 991 c 0
 -155 991 -172 1046 -152 1118 c 0
-38 1058 m 0
 -38 1083 -56 1096 -74 1096 c 0
 -92 1096 -110 1083 -110 1058 c 0
 -110 1033 -92 1020 -74 1020 c 0
 -56 1020 -38 1033 -38 1058 c 0
EndSplineSet
Fore
Refer: 200 3658 N 1 0 0 1 -200 0 2
EndChar

StartChar: uni0E4B.left
Encoding: 63254 63254 126
Width: 0
Flags: W
HStem: 1081 57<-115 -29 46 128>
VStem: -131 275
DStem2: -52 992 2 992 0.267238 0.96363<14.4309 90.946 168.807 244.682>
LayerCount: 2
Back
SplineSet
128 1081 m 1
 29 1080 l 1
 2 992 l 1
 -52 992 l 1
 -28 1080 l 1
 -131 1081 l 1
 -115 1138 l 1
 -14 1140 l 1
 10 1229 l 1
 73 1229 l 1
 46 1140 l 1
 144 1138 l 1
 128 1081 l 1
EndSplineSet
Fore
Refer: 201 3659 N 1 0 0 1 -163 0 2
EndChar

StartChar: uni0E4C.left
Encoding: 63255 63255 127
Width: 0
Flags: W
HStem: 902 29<-40.9579 20.835>
VStem: -82 31<939.892 1005.87> 30 32<939.135 1005.5>
LayerCount: 2
Back
SplineSet
45 1103 m 0
 70 1107 158 1140 176 1193 c 1
 228 1164 l 17
 166 1061 7 1061 13 1057 c 0
 36 1042 47 1019 47 995 c 0
 47 959 20 923 -28 923 c 0
 -72 923 -102 961 -97 1004 c 0
 -88 1062 -26 1091 45 1103 c 0
-25 952 m 0
 1 952 15 972 14 993 c 0
 14 1014 1 1035 -26 1035 c 0
 -53 1035 -66 1015 -66 994 c 0
 -66 973 -52 952 -25 952 c 0
EndSplineSet
Fore
Refer: 202 3660 N 1 0 0 1 -118 0 2
EndChar

StartChar: uni0E01
Encoding: 3585 3585 129
Width: 574
Flags: W
HStem: 0 21G<91 172.572 402 481.569> 392 44<214 232 276.687 364> 550 49<326.429 487.136>
VStem: 522 74<355.523 515.617>
DStem2: 91 0 167 0 0.267238 0.96363<20.3101 404.18> 402 0 476 0 0.267238 0.96363<19.7756 468.923>
LayerCount: 2
Fore
SplineSet
476 0 m 1
 402 0 l 1
 515 407 l 2
 520 424 522 440 522 454 c 0
 522 520 473 550 412 550 c 0
 341 550 254 509 214 436 c 1
 376 436 l 1
 364 392 l 1
 317 392 l 2
 276 392 262 343 262 341 c 2
 167 0 l 1
 91 0 l 1
 181 324 l 2
 194 373 232 392 232 392 c 1
 152 392 l 1
 189 527 324 599 435 599 c 0
 523 599 596 554 596 459 c 0
 596 445 595 429 591 413 c 2
 476 0 l 1
EndSplineSet
EndChar

StartChar: uni0E02
Encoding: 3586 3586 130
Width: 557
Flags: W
HStem: -8 43<322.022 393.886> 350 33<199.469 265.601> 469 33<213.186 265.087> 548 49<244.177 341.579>
VStem: 151 39<390.107 462.27> 248 72<36.8818 148.469> 274 31<391.716 459.591> 354 78<397.805 536.107>
DStem2: 221.385 -8 298.15 -8 0.267238 0.96363<98.8062 510.057> 382.427 -8 457.385 -8 0.267238 0.96363<54.5547 624.887>
LayerCount: 2
Fore
SplineSet
151 436 m 0xfb
 151 501 220 597 325 597 c 0
 397 597 432 556 432 497 c 0
 432 482 430 466 425 449 c 2
 322 78 l 2
 321 74 320 71 320 67 c 0
 320 50 332 35 352 35 c 0
 376 35 401 58 406 77 c 2
 550 594 l 1
 625 594 l 1
 489 106 l 2
 470 37 419 -8 340 -8 c 0
 284 -8 248 26 248 74 c 0xfd
 248 84 250 95 253 106 c 2
 350 453 l 2
 353 464 354 475 354 485 c 0
 354 522 334 548 297 548 c 0
 243 548 220 506 213 496 c 1
 220 501 223 502 227 502 c 0
 279 502 305 465 305 425 c 0
 305 397 290 350 230 350 c 0
 179 350 151 390 151 436 c 0xfb
233 383 m 0
 260 383 274 404 274 425 c 0xfb
 274 447 260 469 233 469 c 0
 204 469 190 448 190 427 c 0
 190 405 205 383 233 383 c 0
EndSplineSet
EndChar

StartChar: uni0E03
Encoding: 3587 3587 131
Width: 604
Flags: W
HStem: -8 43<367.2 439.548> 311 31<188.67 252.893> 429 34<193.424 253.934> 573 21G<238 285.282 590.429 670>
VStem: 138 41<347.182 448.875> 263 31<351.889 419.002> 295 70<36.9476 147.32> 405 76<412.102 523.228>
DStem2: 267.935 -8 343.15 -8 0.267238 0.96363<97.4291 527.58> 318 515 300 452 0.770962 0.636881<0 63.3617> 428.427 -8 502.385 -8 0.267238 0.96363<53.1065 624.887>
LayerCount: 2
Fore
SplineSet
274 593 m 1
 318 515 l 1
 410 591 l 1
 457 588 481 558 481 512 c 0
 481 496 478 479 473 461 c 2
 367 78 l 2
 366 74 365 70 365 66 c 0
 365 49 375 35 398 35 c 0
 425 35 447 58 452 77 c 2
 596 594 l 1
 670 594 l 1
 534 106 l 2
 516 39 469 -8 386 -8 c 0
 329 -8 295 29 295 76 c 0
 295 86 296 96 299 106 c 2
 398 461 l 2
 402 476 405 491 405 502 c 0
 405 515 401 524 390 524 c 1
 300 452 l 1
 255 524 l 1
 226 524 202 484 193 459 c 1
 196 461 198 463 219 463 c 0
 269 463 293 426 294 388 c 1
 293 350 268 311 218 311 c 0
 166 311 138 353 138 406 c 0
 138 487 202 572 274 593 c 1
219 342 m 0
 248 342 263 364 263 386 c 0
 263 407 248 429 219 429 c 0
 192 429 179 408 179 386 c 0
 179 364 193 342 219 342 c 0
EndSplineSet
EndChar

StartChar: uni0E04
Encoding: 3588 3588 132
Width: 561
Flags: W
HStem: 0 21G<96 177.59 393 470.536> 273 36<306.45 381.237> 407 37<305.673 381.762> 553 46<300.619 477.534>
VStem: 139 46<321.487 443.572> 392 31<321.329 394.073> 513 73<363.406 520.647>
DStem2: 96 0 172 0 0.267238 0.96363<20.3101 246.222> 393 0 465 0 0.267238 0.96363<19.2412 472.686>
LayerCount: 2
Fore
SplineSet
343 309 m 0
 376 309 392 334 392 358 c 0
 392 382 376 407 343 407 c 0
 312 407 296 382 296 358 c 0
 296 334 312 309 343 309 c 0
388 553 m 0
 288 553 185 466 185 370 c 0
 185 347 192 330 207 321 c 1
 233 376 260 444 339 444 c 0
 395 444 423 401 423 358 c 0
 423 316 395 273 338 273 c 0
 302 273 264 301 264 301 c 1
 251 280 240 246 236 229 c 2
 172 0 l 1
 96 0 l 1
 158 224 l 2
 159 229 160 233 160 238 c 0
 160 266 139 299 139 351 c 0
 139 493 272 599 402 599 c 0
 501 599 586 568 586 468 c 0
 586 448 583 426 576 401 c 2
 465 0 l 1
 393 0 l 1
 504 401 l 2
 510 423 513 442 513 458 c 0
 513 532 457 553 388 553 c 0
EndSplineSet
EndChar

StartChar: uni0E05
Encoding: 3589 3589 133
Width: 560
Flags: W
HStem: 0 21G<96 177.583 391 469.564> 273 36<306.793 381.237> 407 37<305.893 381.762> 574 20G<275 345.286 463.857 506.5>
VStem: 140 47<321.37 448.05> 392 31<321.329 394.073> 517 69<374.062 525.574>
DStem2: 96 0 172 0 0.267238 0.96363<20.3101 250.655> 327 594 307 538 0.702002 -0.712175<17.7821 94.7804> 391 524 376 468 0.829588 0.558376<0 87.8821> 391 0 464 0 0.267238 0.96363<19.5084 490.355>
LayerCount: 2
Fore
SplineSet
307 538 m 1
 257 524 187 451 187 370 c 0
 187 347 195 330 209 321 c 1
 240 390 260 444 339 444 c 0
 395 444 423 401 423 358 c 0
 423 316 395 273 338 273 c 0
 305 273 268 295 268 295 c 1
 255 287 246 267 239 240 c 2
 172 0 l 1
 96 0 l 1
 160 229 l 2
 161 233 162 238 162 242 c 0
 162 272 140 305 140 357 c 0
 140 461 223 564 327 594 c 1
 391 524 l 1
 493 594 l 1
 520 589 586 563 586 471 c 0
 586 450 583 427 575 399 c 2
 464 0 l 1
 391 0 l 1
 502 399 l 2
 510 427 517 452 517 475 c 0
 517 499 508 520 480 538 c 1
 376 468 l 1
 307 538 l 1
343 309 m 0
 376 309 392 334 392 358 c 0
 392 382 376 407 343 407 c 0
 312 407 296 382 296 358 c 0
 296 334 312 309 343 309 c 0
EndSplineSet
EndChar

StartChar: uni0E06
Encoding: 3590 3590 134
Width: 721
Flags: W
HStem: -8 54<243.048 291.715> 0 21G<525 626.556> 141 49<403 453.25> 144 54<264.02 314> 280 32<183.497 247.971> 399 34<184.893 249.011> 573 21G<238 288.795 706.429 786>
VStem: 137 37<318.651 419.684> 197 45<46.268 122.906> 258 31<322.199 388.599> 409 77<413.055 523.23>
DStem2: 271.847 -8 349.679 -8 0.267238 0.96363<51.9563 157.737 225.848 528.568> 323 515 305 452 0.770962 0.636881<0 62.3523> 544.427 -8 618.781 -8 0.267238 0.96363<88.2081 624.887>
LayerCount: 2
Fore
SplineSet
242 74 m 0x9fe0
 242 50 254 46 267 46 c 0
 278 46 290 51 293 68 c 1
 314 144 l 1
 309 144 l 2
 268 144 242 103 242 74 c 0x9fe0
197 60 m 0
 197 115 245 198 329 198 c 1x9fe0
 402 461 l 2
 406 477 409 492 409 503 c 0
 409 516 405 524 394 524 c 1
 305 452 l 1
 258 524 l 1
 229 524 196 483 184 414 c 1
 186 422 190 433 214 433 c 0
 264 433 289 395 289 357 c 0
 289 319 263 280 213 280 c 0
 159 280 137 326 137 381 c 0
 137 475 199 571 277 593 c 1
 323 515 l 1
 415 591 l 1
 462 588 486 558 486 512 c 0
 486 496 483 479 478 461 c 2
 403 190 l 1
 403 190 523 170 568 77 c 1
 712 594 l 1
 786 594 l 1
 621 0 l 1
 544 0 l 1
 506 134 391 141 391 141 c 1x6fe0
 369 57 351 -8 269 -8 c 0
 219 -8 197 23 197 60 c 0
214 312 m 0
 243 312 258 334 258 356 c 0
 258 377 243 399 214 399 c 0
 187 399 174 378 174 356 c 0
 174 334 188 312 214 312 c 0
EndSplineSet
EndChar

StartChar: uni0E07
Encoding: 3591 3591 135
Width: 416
Flags: W
HStem: 0 21G<234.314 325.533> 418 37<302.386 360.514> 556 38<301.824 380.253>
VStem: 256 36<466.078 544.835> 391 66<464.006 548.152>
DStem2: 243.822 0 320 0 0.267238 0.96363<101.699 440.857>
LayerCount: 2
Fore
SplineSet
320 0 m 1
 241 0 l 1
 128 338 l 1
 145 395 l 1
 271 98 l 1
 361 425 l 1
 354 420 357 418 345 418 c 0
 286 418 256 460 256 504 c 0
 256 548 288 594 353 594 c 0
 443 594 457 538 457 507 c 0
 457 498 456 491 455 488 c 2
 320 0 l 1
341 455 m 0
 374 455 391 480 391 506 c 0
 391 531 374 556 341 556 c 0
 308 556 292 531 292 506 c 0
 292 480 308 455 341 455 c 0
EndSplineSet
EndChar

StartChar: uni0E08
Encoding: 3592 3592 136
Width: 538
Flags: W
HStem: -5 43<301.864 374.757> 276 40<234.721 281.54> 406 41<234.811 307.448> 439 21G<157 192.5> 544 54<306.377 453.99>
VStem: 190 38<322.914 398.932> 231 69<39.6864 154.211> 314 58<321.72 400.095> 485 80<370.789 514.087>
DStem2: 203.385 -5 277.15 -5 0.267238 0.96363<99.1914 296.607> 362.427 -5 439.385 -5 0.267238 0.96363<58.7408 476.491>
LayerCount: 2
Fore
SplineSet
190 363 m 0xdf80
 190 388 207 447 275 447 c 0xef80
 345 447 372 396 372 352 c 0
 372 343 371 334 369 326 c 2
 301 81 l 2
 300 78 300 74 300 71 c 0
 300 54 311 38 333 38 c 0
 361 38 381 61 386 80 c 2
 480 419 l 2
 484 432 485 445 485 456 c 0
 485 511 446 544 383 544 c 0
 279 544 201 464 184 439 c 1
 157 453 l 1
 193 508 291 598 398 598 c 0
 502 598 565 554 565 471 c 0
 565 453 562 434 556 413 c 2
 471 109 l 2
 453 43 398 -5 321 -5 c 0
 268 -5 231 33 231 81 c 0
 231 90 232 99 235 109 c 2
 282 281 l 1
 280 278 277 276 271 276 c 0
 220 276 190 318 190 363 c 0xdf80
271 316 m 0
 300 316 314 338 314 361 c 0
 314 384 300 406 271 406 c 0
 242 406 228 384 228 361 c 0
 228 338 242 316 271 316 c 0
EndSplineSet
EndChar

StartChar: uni0E09
Encoding: 3593 3593 137
Width: 586
Flags: W
HStem: -8 40<430.415 503.306> 0 21G<169 244.5> 121 51<430.223 460> 236 36<189.045 235.33> 364 41<188.636 260.3> 439 21G<172 207.5> 544 54<331.292 491.714>
VStem: 143 38<279.134 356.269> 267 60<278.472 358.681> 386 38<38.7253 113.595> 511 43<38.1188 115.553> 532 76<362.705 507.591>
DStem2: 166.781 -8 238.545 -8 0.267238 0.96363<27.2759 79.69 121.914 257.478> 410.082 -8 483.468 -8 0.267238 0.96363<180.031 472.463>
LayerCount: 2
Fore
SplineSet
468 -8 m 0xbfe0
 430 -8 386 27 386 73 c 0
 386 97 396 118 401 123 c 1
 302 97 249 13 240 0 c 1
 169 0 l 1
 236 240 l 1
 228 238 220 236 213 236 c 0
 170 236 144 277 143 318 c 1
 144 351 160 405 239 405 c 0
 299 405 327 374 327 329 c 0
 327 317 326 305 322 292 c 2
 266 91 l 1
 273 89 l 1
 273 89 332 166 460 172 c 1
 527 415 l 2
 530 427 532 438 532 449 c 0
 532 506 486 544 408 544 c 0
 307 544 217 464 198 439 c 1
 172 453 l 1
 246 553 352 598 440 598 c 0
 534 598 608 549 608 463 c 0
 608 449 606 433 601 416 c 2
 601 416 534 169 532 167 c 1x7fd0
 530 155 514 150 514 150 c 1
 514 147 l 1
 542 132 554 104 554 77 c 0
 554 34 524 -8 468 -8 c 0xbfe0
401 123 m 0
224 272 m 0
 252 272 267 295 267 319 c 0
 267 342 253 364 225 364 c 0
 196 364 182 341 181 317 c 0
 181 295 195 272 224 272 c 0
466 32 m 0xbfe0
 496 32 511 55 511 77 c 0
 511 99 497 121 467 121 c 0
 439 121 424 98 424 76 c 0
 424 54 438 32 466 32 c 0xbfe0
EndSplineSet
EndChar

StartChar: uni0E0A
Encoding: 3594 3594 138
Width: 556
Flags: W
HStem: 0 49<175 236 314 407.788> 349 33<199.408 265.601> 468 32<212.197 264.476> 547 49<242.506 344.776>
VStem: 150 40<388.819 460.839> 274 31<390.38 458.631> 354 77<429.034 537.479> 500 77<279.75 409.342>
DStem2: 222.411 0 300.411 0 0.267238 0.96363<71.694 509.648> 401.553 0 477.881 0 0.267238 0.96363<58.6252 380.471 488.913 616.61>
LayerCount: 2
Fore
SplineSet
150 435 m 0
 150 497 217 596 324 596 c 0
 414 596 431 538 431 495 c 0
 431 473 426 456 425 451 c 2
 314 49 l 1
 352 49 l 2
 384 49 420 65 434 117 c 2
 494 333 l 2
 498 346 500 358 500 368 c 0
 500 396 484 412 449 422 c 1
 457 450 l 1
 512 463 535 481 549 531 c 2
 567 594 l 1
 643 594 l 1
 621 527 617 445 529 436 c 1
 566 432 577 407 577 379 c 0
 577 360 572 339 567 321 c 2
 507 105 l 2
 496 65 455 0 378 0 c 2
 161 0 l 1
 175 49 l 1
 236 49 l 1
 348 453 l 2
 352 467 354 480 354 493 c 0
 354 524 339 547 297 547 c 0
 243 547 220 505 212 495 c 1
 219 499 223 500 233 500 c 0
 280 500 305 461 305 424 c 0
 305 398 290 349 230 349 c 0
 179 349 150 389 150 435 c 0
233 382 m 0
 260 382 274 403 274 424 c 0
 274 446 260 468 233 468 c 0
 204 468 190 447 190 426 c 0
 190 404 205 382 233 382 c 0
EndSplineSet
EndChar

StartChar: uni0E0B
Encoding: 3595 3595 139
Width: 618
Flags: W
HStem: 0 49<227 287 363 456.788> 311 31<191.67 255.893> 429 34<196.356 256.934> 573 21G<241 288.795 610.286 692>
VStem: 141 41<347.182 448.875> 266 31<351.889 419.002> 409 76<415.938 547.86> 549 77<279.75 409.342>
DStem2: 273.411 0 349.411 0 0.267238 0.96363<71.1595 521.403> 323 515 305 452 0.770962 0.636881<0 62.4485> 450.553 0 526.881 0 0.267238 0.96363<58.6252 380.471 488.913 616.61>
LayerCount: 2
Fore
SplineSet
427 0 m 2
 213 0 l 1
 227 49 l 1
 287 49 l 1
 401 461 l 2
 405 477 409 493 409 504 c 0
 409 516 405 524 394 524 c 1
 305 452 l 1
 258 524 l 1
 229 524 205 484 196 459 c 1
 196 459 200 463 222 463 c 0
 272 463 296 426 297 388 c 1
 296 350 271 311 221 311 c 0
 169 311 141 353 141 406 c 0
 141 487 205 572 277 593 c 1
 323 515 l 1
 415 591 l 1
 461 588 485 559 485 513 c 0
 485 497 482 480 477 461 c 2
 363 49 l 1
 401 49 l 2
 433 49 469 65 483 117 c 2
 543 333 l 2
 547 346 549 358 549 368 c 0
 549 396 533 412 498 422 c 1
 506 450 l 1
 561 463 584 481 598 531 c 2
 616 594 l 1
 692 594 l 1
 670 527 666 445 578 436 c 1
 615 432 626 407 626 379 c 0
 626 360 621 339 616 321 c 2
 556 105 l 2
 545 65 504 0 427 0 c 2
222 342 m 0
 251 342 266 364 266 386 c 0
 266 407 251 429 222 429 c 0
 195 429 182 408 182 386 c 0
 182 364 196 342 222 342 c 0
EndSplineSet
EndChar

StartChar: uni0E0C
Encoding: 3596 3596 140
Width: 777
Flags: W
HStem: -8 39<174.737 246.061 373.168 414.207> 0 21G<602 682.556> 126 40<390.581 437> 392 44<214 232 275.878 364> 550 49<326.86 487.258>
VStem: 118 49<35.9196 115.62> 254 39<38.1091 113.637> 335 36<34.4474 104.468> 522 75<358.18 516.07>
DStem2: 88.553 -8 165.687 -8 0.267238 0.96363<193.916 412.661> 399.839 -8 473.502 -8 0.267238 0.96363<39.6952 139.057 197.16 477.209> 601.713 -8 674.781 -8 0.267238 0.96363<105.85 624.811>
LayerCount: 2
Fore
SplineSet
335 51 m 0xbf80
 335 106 385 166 445 166 c 2
 448 166 l 1
 515 407 l 2
 520 424 522 440 522 454 c 0
 522 521 473 550 413 550 c 0
 342 550 254 508 214 436 c 1
 376 436 l 1
 364 392 l 1
 317 392 l 2
 275 392 265 348 264 346 c 2
 212 159 l 1
 268 154 293 118 293 77 c 0
 293 34 263 -8 205 -8 c 0xbf80
 141 -8 118 45 118 85 c 0
 118 94 119 102 121 109 c 2
 181 324 l 2
 195 375 232 392 232 392 c 1
 152 392 l 1
 190 527 324 599 435 599 c 0
 523 599 597 554 597 460 c 0
 597 446 595 430 591 413 c 2
 521 163 l 1
 521 163 609 149 630 94 c 1
 769 594 l 1
 842 594 l 1
 677 0 l 1
 602 0 l 1x7f80
 603 6 603 11 603 16 c 0
 603 112 509 120 509 120 c 1
 490 52 468 -8 397 -8 c 0
 354 -8 335 18 335 51 c 0xbf80
371 62 m 0
 371 51 375 34 392 34 c 0
 403 34 415 41 419 61 c 1
 437 126 l 17
 432 126 l 2
 400 126 371 93 371 62 c 0
209 31 m 0
 240 31 254 53 254 77 c 0
 254 99 240 121 210 121 c 0
 182 121 167 98 167 75 c 0
 167 53 181 31 209 31 c 0
EndSplineSet
EndChar

StartChar: uni0E0D
Encoding: 3597 3597 141
Width: 762
Flags: W
HStem: -230 32<398.76 504.507> -170 29<400.535 458.112> -66 32<399.246 459.033> -8 37<191.053 257.498 486.357 580.08> 121 44<214.4 262.476> 392 44<214 232 274.183 364> 547 51<321.254 467.413>
VStem: 118 63<37.3184 115.752> 268 41<39.2724 114.312> 345 48<-169.103 -72.9102> 404 71<37.6777 125.267> 465 31<-134.885 -72.1861> 497 74<357.836 518.412>
DStem2: 26.987 -230 104.457 -230 0.267238 0.96363<430.611 643.065> 313.155 -230 386.206 -230 0.267238 0.96363<341.329 709.546> 531.612 -230 598.166 -230 0.267238 0.96363<71.892 184.725 301.456 596.926>
LayerCount: 2
Fore
SplineSet
691 104 m 2xffe8
 677 54 600 -8 515 -8 c 0
 445 -8 404 32 404 84 c 0
 404 93 405 102 408 112 c 2
 490 407 l 2
 495 425 497 442 497 456 c 0
 497 520 454 547 399 547 c 0
 332 547 250 505 214 436 c 1
 376 436 l 1
 364 392 l 1
 317 392 l 2
 275 392 267 355 266 352 c 2
 214 165 l 1
 223 165 l 2
 280 165 309 122 309 78 c 0
 309 34 280 -10 221 -10 c 0
 144 -10 118 45 118 86 c 0
 118 95 119 102 121 109 c 2
 181 324 l 2
 195 375 232 392 232 392 c 1
 152 392 l 1
 193 527 319 598 422 598 c 0
 504 598 571 554 571 462 c 0
 571 447 569 431 565 413 c 2
 478 101 l 2
 476 93 475 86 475 79 c 0
 475 50 494 29 527 29 c 0
 569 29 605 60 616 100 c 2
 753 594 l 1
 827 594 l 1
 691 104 l 2xffe8
223 32 m 0
 253 32 268 55 268 77 c 0
 268 99 254 121 224 121 c 0
 197 121 181 99 181 78 c 0
 181 50 198 32 223 32 c 0
426 -34 m 0
 471 -34 496 -70 496 -102 c 0xffd8
 496 -137 469 -170 425 -170 c 0
 403 -170 394 -162 377 -149 c 1
 385 -179 409 -198 453 -198 c 0
 505 -198 553 -152 566 -106 c 2
 581 -52 l 1
 648 -52 l 1
 632 -108 l 2
 619 -155 559 -230 444 -230 c 0
 363 -230 345 -185 345 -148 c 0
 345 -108 370 -34 426 -34 c 0
429 -66 m 0
 411 -66 393 -78 393 -103 c 0
 394 -128 411 -141 429 -141 c 0
 447 -141 465 -129 465 -105 c 0
 465 -74 443 -66 429 -66 c 0
EndSplineSet
Substitution2: "'ccmp' Pali-Sanskrit Descender Removal" uni0E0D.descless
Substitution2: "Thai Descender Removal Single Substitution" uni0E0D.descless
EndChar

StartChar: uni0E0E
Encoding: 3598 3598 142
Width: 583
Flags: W
HStem: -212 43<84.454 179.965> -83 43<97.2249 224.443> -12 44<79.6426 153.451> 121 36<82.8278 145.568> 392 44<222 241 285.178 374> 550 49<335.282 496.228>
VStem: 31 43<37.7222 114.675> 38 45<-165.112 -97.8851> 532 75<364.602 515.122>
DStem2: 33.7341 -241 107.803 -241 0.267238 0.96363<406.589 656.418> 345.537 -241 419 -241 0.267238 0.96363<84.0571 718>
AnchorPoint: "BelowBase" 418 -246 basechar 0
LayerCount: 2
Fore
SplineSet
120 -12 m 0xfd80
 76 -12 31 20 31 75 c 0xfe80
 31 117 60 157 112 157 c 0
 122 157 131 156 143 153 c 1
 193 332 l 2
 206 378 241 392 241 392 c 1
 161 392 l 1
 202 530 333 599 443 599 c 0
 532 599 607 553 607 462 c 0
 607 445 604 427 599 407 c 2
 419 -241 l 1
 345 -241 l 1
 345 -206 311 -138 259 -111 c 1
 259 -111 200 -212 116 -212 c 0
 70 -212 38 -192 38 -152 c 0
 38 -93 97 -40 175 -40 c 0
 198 -40 221 -44 245 -55 c 1
 245 -55 275 -3 314 12 c 1
 344 -5 l 1
 297 -34 281 -69 281 -69 c 1
 350 -97 368 -160 368 -160 c 1
 525 407 l 2
 530 424 532 440 532 453 c 0
 532 520 482 550 421 550 c 0
 349 550 262 509 222 436 c 1
 386 436 l 1
 374 392 l 1
 328 392 l 2
 284 392 270 343 270 341 c 2
 191 59 l 2
 178 13 155 -12 120 -12 c 0xfd80
116 32 m 0
 145 32 160 55 160 77 c 0
 160 99 146 121 117 121 c 0
 89 121 74 98 74 76 c 0
 74 54 88 32 116 32 c 0
157 -83 m 0
 114 -83 83 -105 83 -139 c 0xfd80
 83 -164 110 -169 128 -169 c 0
 174 -169 209 -121 225 -95 c 1
 202 -86 177 -83 157 -83 c 0
EndSplineSet
EndChar

StartChar: uni0E0F
Encoding: 3599 3599 143
Width: 583
Flags: W
HStem: -241 43<-22.7815 56.532> -163 48<235.696 330.387> -111 43<-9.88713 94.3734> -12 44<79.6426 153.451> 121 36<82.8278 145.568> 392 44<222 243 285.178 374> 550 49<335.169 495.966>
VStem: -67 43<-196.112 -126.162> 31 43<37.7222 114.675> 349 70<-241 -215.8> 532 75<364.797 515.122>
DStem2: 33.7341 -241 107.803 -241 0.267238 0.96363<406.589 655.329> 345.15 -241 419 -241 0.267238 0.96363<89.2458 718.06>
AnchorPoint: "BelowBase" 418 -246 basechar 0
LayerCount: 2
Fore
SplineSet
116 32 m 0
 145 32 160 55 160 77 c 0
 160 99 146 121 117 121 c 0
 89 121 74 98 74 76 c 0
 74 54 88 32 116 32 c 0
46 -111 m 0
 -8 -111 -24 -145 -24 -167 c 0
 -24 -183 -16 -198 12 -198 c 0
 45 -198 63 -173 95 -129 c 1
 81 -117 62 -111 46 -111 c 0
-67 -178 m 0
 -67 -130 -23 -68 58 -68 c 0
 82 -68 104 -75 123 -89 c 1
 144 -63 169 -40 206 -26 c 1
 225 -54 l 1
 195 -66 170 -89 151 -115 c 1
 170 -137 184 -164 185 -187 c 1
 218 -139 263 -115 301 -115 c 0
 330 -115 355 -128 369 -155 c 1
 525 407 l 2
 530 424 532 439 532 453 c 0
 532 520 481 550 420 550 c 0
 349 550 262 509 222 436 c 1
 386 436 l 1
 374 392 l 1
 328 392 l 2
 284 392 270 343 270 341 c 2
 191 59 l 2
 178 13 155 -12 120 -12 c 0
 76 -12 31 20 31 75 c 0
 31 117 60 157 112 157 c 0
 122 157 131 156 143 153 c 1
 193 332 l 2
 207 381 243 392 243 392 c 1
 161 392 l 1
 202 530 333 599 443 599 c 0
 532 599 607 553 607 462 c 0
 607 445 604 427 599 407 c 2
 419 -241 l 1
 349 -241 l 1
 346 -189 320 -163 288 -163 c 0
 256 -163 218 -189 190 -240 c 1
 147 -240 l 1
 148 -236 148 -231 148 -227 c 0
 148 -201 136 -177 120 -157 c 1
 99 -185 60 -241 -4 -241 c 0
 -53 -241 -67 -207 -67 -178 c 0
EndSplineSet
EndChar

StartChar: uni0E10
Encoding: 3600 3600 144
Width: 484
Flags: W
HStem: -276 53<143 254.802> -233 35<-3.18377 51.5719> -190 33<224.549 257.033> -127 33<9.14757 72> -83 38<223.547 284.717> -8 43<261.958 325.049> 189 40<172.863 223.818> 319 38<174.105 242.695> 488 72<404.904 534.855> 526 68<264.04 389.12>
VStem: -35 31<-196.479 -140.638> 110 40<-222.861 -149.54> 126 40<235.298 312.252> 187 31<-150.392 -90.1114> 194 67<36.3556 102.436> 251 67<234.227 313.015> 289 65<-154.458 -84.7684> 409 76<308.735 369.981>
DStem2: 93.062 -276 164.827 -276 0.267238 0.96363<372.74 484.043> 208 472 149 439 0.960176 -0.279395<0 227.48> 234.201 -276 311.915 -276 0.267238 0.96363<50.3941 89.2323 333.078 647.701>
LayerCount: 2
Fore
SplineSet
593 582 m 0x3fa240
 593 573 552 488 462 488 c 0x3fa240
 410 488 356 526 295 526 c 0
 257 526 233 508 208 472 c 1
 452 401 l 1
 462 395 485 393 485 362 c 0
 485 354 483 344 480 332 c 2
 417 106 l 2
 399 41 351 -8 276 -8 c 0
 225 -8 194 28 194 74 c 0x3f6240
 194 84 196 95 199 106 c 2
 224 190 l 1
 220 189 216 189 213 189 c 0
 176 189 126 220 126 273 c 0
 126 320 168 357 213 357 c 0
 280 357 318 328 318 288 c 0x3f6940
 318 282 318 276 316 270 c 2
 263 78 l 2
 262 74 261 69 261 64 c 0
 261 49 269 35 288 35 c 0
 313 35 331 58 336 77 c 2
 404 321 l 2
 407 332 409 341 409 348 c 0
 409 360 403 366 390 370 c 2
 149 439 l 1
 174 483 234 594 340 594 c 0x3f6240
 386 594 454 560 513 560 c 0
 565 560 578 587 589 587 c 0
 591 587 593 585 593 582 c 0x3fa240
208 229 m 0
 237 229 251 252 251 274 c 0
 251 296 236 319 208 319 c 0
 180 319 166 296 166 274 c 0x3f2940
 166 252 180 229 208 229 c 0
263 -45 m 0
 308 -45 354 -73 354 -115 c 0
 354 -120 354 -126 352 -131 c 2
 328 -218 l 18
 321 -243 301 -276 262 -276 c 2
 89 -276 l 1xbf34c0
 103 -226 l 2
 107 -212 110 -199 110 -187 c 0
 110 -174 107 -162 101 -149 c 1
 99 -161 80 -233 11 -233 c 0x7f34c0
 -19 -233 -35 -214 -35 -178 c 0
 -35 -146 2 -94 58 -94 c 0
 66 -94 74 -95 82 -97 c 1
 82 -97 87 -72 101 -57 c 1
 134 -61 l 1
 114 -79 114 -105 114 -111 c 1
 143 -123 150 -152 150 -177 c 0
 150 -202 143 -223 143 -223 c 1
 222 -223 l 2
 233 -223 251 -215 255 -201 c 2
 258 -190 l 1
 233 -190 187 -166 187 -119 c 0xbf34c0
 187 -82 214 -45 263 -45 c 0
255 -157 m 0
 277 -157 289 -138 289 -119 c 0
 289 -101 278 -83 256 -83 c 0
 231 -83 219 -102 218 -121 c 0
 218 -139 230 -157 255 -157 c 0
72 -132 m 1
 72 -132 53 -127 38 -127 c 1
 12 -130 -4 -155 -4 -174 c 0
 -4 -187 4 -198 21 -198 c 0x7f2040
 43 -198 68 -170 72 -132 c 1
EndSplineSet
Substitution2: "'ccmp' Pali-Sanskrit Descender Removal" uni0E10.descless
Substitution2: "Thai Descender Removal Single Substitution" uni0E10.descless
EndChar

StartChar: uni0E11
Encoding: 3601 3601 145
Width: 743
Flags: W
HStem: 0 21G<274 354.556 568 648.56> 281 31<183.583 247.884> 399 34<187.115 248.924> 529 58<644.209 726.229> 573 20G<236 288.795>
VStem: 135 39<318.562 423.673> 258 30<322.699 389.002> 409 77<415.344 523.23> 702 78<418.656 526.987>
DStem2: 274 0 349 0 0.267238 0.96363<20.0429 340.626 380.345 520.283> 323 515 305 452 0.770962 0.636881<0 62.3523> 446 347 462 312 0.619045 0.785356<0 265.042> 568 0 643 0 0.267238 0.96363<20.0429 511.526>
LayerCount: 2
Fore
SplineSet
402 461 m 2xf780
 406 477 409 492 409 503 c 0
 409 516 405 524 394 524 c 1
 305 452 l 1
 258 524 l 1
 229 524 193 479 187 429 c 1
 187 429 190 433 214 433 c 0
 264 433 288 396 288 358 c 0
 288 320 263 281 213 281 c 0
 160 281 135 323 135 378 c 0
 135 466 195 570 277 593 c 1xef80
 323 515 l 1
 415 591 l 1
 462 588 486 558 486 512 c 0
 486 496 483 479 478 461 c 2
 446 347 l 1
 567 498 l 2
 615 557 671 587 714 587 c 0
 752 587 780 562 780 513 c 0
 780 499 777 483 772 464 c 2
 643 0 l 1
 568 0 l 1
 698 468 l 2
 701 478 702 487 702 494 c 0
 702 518 689 529 671 529 c 0
 649 529 619 512 596 482 c 2
 462 312 l 1
 435 275 411 223 409 216 c 2
 349 0 l 1
 274 0 l 1
 402 461 l 2xf780
214 312 m 0
 243 312 258 334 258 356 c 0
 258 377 243 399 214 399 c 0
 187 399 174 378 174 356 c 0
 174 334 188 312 214 312 c 0
EndSplineSet
EndChar

StartChar: uni0E12
Encoding: 3602 3602 146
Width: 763
Flags: W
HStem: -8 52<365.988 404.168> 0 21G<96 177.556 586 667.556> 151 46<392.781 429> 415 38<301.664 375.971> 574 20G<303 347.286 465.857 513.5 746.427 827>
VStem: 140 48<235.362 443.784> 147 66<206 318.291> 255 37<321.745 405.708> 316 49<44.7378 124.129> 386 46<321.49 407.246> 513 72<377.875 530.524>
DStem2: 93.7814 -8 169.781 -8 0.267238 0.96363<28.6121 221.507> 329 594 308 538 0.707107 -0.707107<16.8006 94.7523> 384.905 -8 459.905 -8 0.267238 0.96363<50.7253 165.001 225.452 505.502> 393 524 378 468 0.829588 0.558376<0 87.8476> 584.377 -8 659.781 -8 0.267238 0.96363<99.6233 624.901>
LayerCount: 2
Back
SplineSet
331 293 m 0xf3c0
 363 293 380 319 381 345 c 0
 381 370 365 395 332 395 c 0
 302 395 286 369 286 343 c 0
 286 318 300 293 331 293 c 0xf3c0
365 69 m 0
 365 55 371 44 386 44 c 0
 394 44 400 48 404 63 c 2
 429 151 l 1
 398 151 365 103 365 69 c 0
337 433 m 0
 382 433 426 401 426 349 c 0
 426 234 240 204 196 86 c 2
 172 0 l 1
 96 0 l 1
 122 94 l 2
 134 138 137 176 137 210 c 0xf7c0
 137 249 133 284 133 318 c 0
 133 435 209 557 329 594 c 1
 393 524 l 1
 495 594 l 1
 532 585 585 561 585 477 c 0
 585 455 581 428 572 396 c 2
 516 194 l 1
 516 194 601 158 611 88 c 1
 752 594 l 1
 827 594 l 1
 662 0 l 1
 586 0 l 1
 587 4 587 9 587 13 c 0
 587 69 539 133 504 151 c 1
 484 81 l 2
 471 32 446 -8 381 -8 c 0
 335 -8 316 21 316 57 c 0
 316 118 372 192 442 197 c 1
 498 401 l 2
 508 436 513 462 513 482 c 0
 513 508 504 525 482 538 c 1
 378 468 l 1
 308 538 l 1
 246 511 182 434 182 340 c 0xfbc0
 182 268 204 244 204 189 c 0
 204 176 202 170 202 166 c 1xf7c0
 227 200 302 239 316 261 c 1
 290 267 249 296 249 347 c 0
 249 386 285 433 337 433 c 0
EndSplineSet
Fore
SplineSet
337 313 m 0x39e0
 369 313 386 339 386 365 c 0
 386 390 370 415 337 415 c 0
 307 415 292 389 292 363 c 0
 292 338 306 313 337 313 c 0x39e0
365 69 m 0
 365 55 371 44 386 44 c 0xb9e0
 394 44 400 48 404 63 c 2
 429 151 l 1
 428 151 l 2
 398 151 365 103 365 69 c 0
343 453 m 0
 388 453 432 420 432 367 c 0
 432 342 421 315 399 293 c 0
 333 226 238 209 207 126 c 1
 172 0 l 1
 96 0 l 1
 133 134 l 2
 144 173 147 205 147 233 c 0x7be0
 147 276 140 311 140 347 c 0x7de0
 140 366 141 384 147 404 c 0
 188 551 277 578 329 594 c 1
 393 524 l 1
 495 594 l 1
 532 585 585 561 585 477 c 0
 585 455 581 428 572 396 c 2
 516 194 l 1
 516 194 601 158 611 88 c 1
 752 594 l 1
 827 594 l 1
 662 0 l 1
 586 0 l 1x7be0
 587 4 587 9 587 13 c 0
 587 69 539 133 504 151 c 1
 484 81 l 2
 471 32 446 -8 381 -8 c 0
 335 -8 316 21 316 57 c 0
 316 118 372 192 442 197 c 1
 498 401 l 2
 508 436 513 462 513 482 c 0
 513 508 504 525 482 538 c 1
 378 468 l 1
 308 538 l 1
 264 519 217 495 192 404 c 0
 189 394 188 378 188 361 c 0xbde0
 188 291 213 244 213 213 c 2
 213 206 l 1xbbe0
 239 240 308 259 322 281 c 1
 294 287 255 316 255 366 c 0
 255 405 291 453 343 453 c 0
EndSplineSet
EndChar

StartChar: uni0E13
Encoding: 3603 3603 147
Width: 762
Flags: W
HStem: -8 39<174.737 246.061 608.031 679.015> 0 21G<374 455.5> 121 49<605.719 634> 392 44<214 234 277.359 364> 547 51<323.126 465.987>
VStem: 118 49<35.9196 113.956> 254 39<38.1091 114.238> 495 76<360.305 520.564> 562 38<38.3293 113.997> 687 43<38.1188 115.553>
DStem2: 88.553 -8 165.687 -8 0.267238 0.96363<193.916 412.427> 371.781 -8 447.772 -8 0.267238 0.96363<28.8793 92.4894 133.421 482.309> 584.914 -8 659.914 -8 0.267238 0.96363<180.964 624.757>
LayerCount: 2
Fore
SplineSet
644 -8 m 0xbf40
 607 -8 562 27 562 71 c 0
 562 97 575 122 580 127 c 1
 507 103 460 17 451 0 c 1
 374 0 l 1x7ec0
 488 410 l 2
 493 428 495 445 495 459 c 0
 495 521 452 547 399 547 c 0
 331 547 247 504 214 436 c 1
 376 436 l 1
 364 392 l 1
 317 392 l 2
 275 392 260 337 260 335 c 2
 212 159 l 1
 268 154 293 117 293 77 c 0
 293 34 263 -8 205 -8 c 0
 141 -8 118 45 118 85 c 0
 118 94 119 102 121 109 c 2
 181 326 l 2
 195 376 234 392 234 392 c 1
 152 392 l 1
 192 526 321 598 425 598 c 0
 506 598 571 555 571 465 c 0
 571 450 569 434 565 416 c 2
 478 101 l 1
 478 101 534 170 620 170 c 0
 625 170 629 169 634 169 c 1
 752 594 l 1
 827 594 l 1
 709 169 l 2
 706 158 690 150 690 150 c 1
 690 147 l 1
 718 132 730 104 730 77 c 0
 730 34 700 -8 644 -8 c 0xbf40
642 32 m 0
 672 32 687 55 687 77 c 0
 687 99 673 121 643 121 c 0
 615 121 600 99 600 76 c 0
 600 54 614 32 642 32 c 0
209 31 m 0xbe40
 240 31 254 53 254 77 c 0
 254 99 240 121 210 121 c 0
 182 121 167 98 167 75 c 0
 167 53 181 31 209 31 c 0xbe40
EndSplineSet
EndChar

StartChar: uni0E14
Encoding: 3604 3604 148
Width: 580
Flags: W
HStem: 0 21G<109 186.556 410 489.556> 429 38<322.274 398.555> 551 47<316.612 491.296>
VStem: 153 47<253.068 443.585> 160 68<206 321.05> 278 34<340.583 417.332> 409 45<337.262 421.78> 528 76<358.875 515.95>
DStem2: 109 0 181 0 0.267238 0.96363<19.2412 208.166> 410 0 484 0 0.267238 0.96363<19.7756 464.398>
LayerCount: 2
Back
SplineSet
484 0 m 1
 410 0 l 1
 520 396 l 2
 542 476 522 551 410 551 c 0
 353 551 236 516 199 384 c 0
 178 307 223 244 216 166 c 1
 241 203 328 257 336 273 c 1
 268 303 272 349 272 361 c 0
 272 387 296 461 378 445 c 0
 419 437 449 400 448 358 c 0
 448 333 438 306 414 283 c 0
 340 211 239 169 205 86 c 2
 181 0 l 1
 109 0 l 1
 135 94 l 2
 170 220 132 298 155 384 c 0
 197 533 336 598 423 598 c 0
 461 598 649 594 594 396 c 2
 484 0 l 1
357 309 m 0
 389 309 404 334 403 358 c 0
 403 384 387 409 356 409 c 0
 323 409 306 384 307 360 c 0
 307 334 324 309 357 309 c 0
EndSplineSet
Fore
SplineSet
153 346 m 0xf7
 153 481 270 598 423 598 c 0
 456 598 604 595 604 462 c 0
 604 443 601 421 594 396 c 2
 484 0 l 1
 410 0 l 1
 520 396 l 2
 525 414 528 433 528 450 c 0
 528 507 496 551 410 551 c 0
 242 551 200 421 200 366 c 0xf7
 200 315 228 277 228 221 c 0
 228 216 227 211 227 206 c 1
 252 243 334 277 341 293 c 1
 284 319 278 356 278 374 c 0
 278 427 312 467 362 467 c 0
 418 467 454 426 454 378 c 0
 454 264 262 237 216 126 c 1
 181 0 l 1
 109 0 l 1
 146 134 l 2
 157 173 160 206 160 235 c 0xef
 160 277 153 311 153 346 c 0xf7
362 329 m 0
 394 329 409 354 409 378 c 0
 409 404 393 429 362 429 c 0
 329 429 312 404 312 380 c 0
 312 354 329 329 362 329 c 0
EndSplineSet
EndChar

StartChar: uni0E15
Encoding: 3605 3605 149
Width: 580
Flags: W
HStem: 0 21G<109 186.614 410 489.556> 415 40<311.727 389.834> 574 20G<318 364.286 482.857 531>
VStem: 153 47<240.908 441.427> 263 39<322.743 404.958> 399 39<322.933 405.793> 536 69<377.219 526.016>
DStem2: 109 0 181 0 0.267238 0.96363<19.2412 198.15> 346 594 326 538 0.702002 -0.712175<16.3808 94.7804> 410 524 395 468 0.829588 0.558376<0 88.1621> 410 0 484 0 0.267238 0.96363<19.7756 493.561>
LayerCount: 2
Back
SplineSet
484 0 m 1
 410 0 l 1
 525 416 l 2
 548 496 533 515 499 538 c 1
 395 468 l 1
 326 538 l 1
 290 528 225 475 199 384 c 0
 193 359 193 301 203 272 c 0
 225 192 218 166 223 174 c 0
 245 203 317 247 324 260 c 1
 262 281 258 325 257 347 c 0
 256 369 277 438 352 435 c 0
 388 434 433 396 433 345 c 0
 433 323 424 298 402 273 c 0
 339 201 236 157 202 74 c 1
 181 0 l 1
 109 0 l 1
 135 94 l 2
 170 220 132 298 155 384 c 0
 195 527 290 574 346 594 c 1
 410 524 l 1
 512 594 l 1
 559 584 634 542 594 396 c 2
 484 0 l 1
344 293 m 0
 376 293 393 319 394 345 c 0
 394 370 378 395 345 395 c 0
 313 395 296 369 296 343 c 0
 296 318 312 293 344 293 c 0
EndSplineSet
Fore
SplineSet
352 455 m 0
 401 455 438 410 438 365 c 0
 438 343 429 318 407 293 c 0
 344 221 247 197 213 114 c 1
 181 0 l 1
 109 0 l 1
 146 134 l 2
 157 173 160 206 160 235 c 0
 160 277 153 311 153 346 c 0
 153 365 155 384 161 404 c 0
 201 547 290 574 346 594 c 1
 410 524 l 1
 512 594 l 1
 550 586 605 557 605 471 c 0
 605 450 602 425 594 396 c 2
 484 0 l 1
 410 0 l 1
 525 416 l 2
 533 442 536 462 536 478 c 0
 536 509 522 523 499 538 c 1
 395 468 l 1
 326 538 l 1
 269 522 200 459 200 359 c 0
 200 335 203 309 209 292 c 1
 227 228 229 211 232 211 c 1
 232 211 233 212 234 214 c 0
 256 243 323 267 330 280 c 1
 296 291 263 315 263 369 c 0
 263 392 284 455 352 455 c 0
350 313 m 0
 382 313 399 339 399 365 c 0
 399 390 383 415 350 415 c 0
 318 415 302 389 302 363 c 0
 302 338 318 313 350 313 c 0
EndSplineSet
EndChar

StartChar: uni0E16
Encoding: 3606 3606 150
Width: 574
Flags: W
HStem: -8 37<173.912 244.41> 0 21G<402 480.529> 119 36<209 245.594> 392 44<212 230 275.282 363> 551 48<326.497 486.636>
VStem: 117 48<34.2399 112.677> 254 38<38.0237 111.672> 522 73<358.125 516.489>
DStem2: 87.553 -8 163.796 -8 0.267238 0.96363<189.527 413.058> 399.781 -8 472.781 -8 0.267238 0.96363<27.8103 477.27>
LayerCount: 2
Fore
SplineSet
209 155 m 1x7f
 265 150 292 112 292 74 c 0
 292 33 262 -8 204 -8 c 0xbf
 140 -8 117 45 117 85 c 0
 117 94 118 102 120 109 c 2
 180 326 l 2
 194 375 230 392 230 392 c 1
 150 392 l 1
 188 527 323 599 434 599 c 0
 522 599 595 554 595 461 c 0
 595 447 594 432 590 416 c 2
 475 0 l 1
 402 0 l 1
 516 410 l 2
 520 426 522 441 522 454 c 0
 522 521 473 551 412 551 c 0
 339 551 249 508 212 436 c 1
 375 436 l 1
 363 392 l 1
 316 392 l 2
 273 392 260 339 259 335 c 2
 209 155 l 1x7f
208 29 m 0
 238 29 253 52 254 75 c 0
 254 97 239 119 209 119 c 0
 180 119 166 96 165 73 c 1
 166 51 180 29 208 29 c 0
EndSplineSet
EndChar

StartChar: uni0E17
Encoding: 3607 3607 151
Width: 624
Flags: W
HStem: 0 21G<158 237.648 453 530.567> 421 38<219.377 275.596> 527 62<537.143 621> 560 38<219.276 295.127>
VStem: 173 36<470.134 549.056> 306 66<467.145 552.668> 588 75<421.797 526.212>
DStem2: 158 0 232 0 0.267238 0.96363<19.7756 329.995 379.81 440.113> 328 347 350 312 0.646568 0.762857<0 284.533> 453 0 525 0 0.267238 0.96363<19.2412 515.647>
LayerCount: 2
Fore
SplineSet
257 421 m 0xee
 221 421 173 456 173 508 c 0
 173 553 207 598 264 598 c 0xde
 342 598 372 553 372 514 c 0
 372 508 372 502 370 496 c 2
 328 347 l 1
 460 498 l 1
 509 559 563 589 603 589 c 0
 639 589 663 566 663 519 c 0
 663 504 660 487 655 467 c 2
 525 0 l 1
 453 0 l 1
 584 472 l 2
 587 482 588 491 588 498 c 0
 588 518 579 527 565 527 c 0
 544 527 514 508 489 476 c 1
 350 312 l 1
 321 275 300 240 293 216 c 2
 232 0 l 1
 158 0 l 1
 276 424 l 1
 269 422 263 421 257 421 c 0xee
258 459 m 0
 290 459 306 484 306 510 c 0
 306 535 290 560 258 560 c 0
 225 560 209 535 209 510 c 0
 209 484 225 459 258 459 c 0
EndSplineSet
EndChar

StartChar: uni0E18
Encoding: 3608 3608 152
Width: 484
Flags: W
HStem: 0 45<62 105 179 318.528> 488 72<404.927 534.688> 526 68<263.183 389.166>
VStem: 409 76<308.597 369.784>
DStem2: 92.5204 0 166.52 0 0.267238 0.96363<66.474 377.881> 208 472 149 439 0.960176 -0.279395<0 227.48> 315.385 0 388.049 0 0.267238 0.96363<56.4709 360.043>
LayerCount: 2
Fore
SplineSet
462 488 m 0xd0
 410 488 356 526 296 526 c 0
 257 526 233 508 208 472 c 1
 452 401 l 2
 464 398 485 394 485 363 c 0
 485 355 484 345 480 332 c 2
 418 108 l 2
 398 35 353 0 292 0 c 2
 50 0 l 1
 62 45 l 1
 105 45 l 1
 194 364 l 1
 268 364 l 1
 179 45 l 1
 250 45 l 2
 302 45 333 66 347 114 c 2
 404 321 l 2
 407 332 409 341 409 348 c 0
 409 360 403 366 390 370 c 2
 149 439 l 1
 173 482 233 594 340 594 c 0xb0
 386 594 454 560 513 560 c 0
 564 560 578 587 589 587 c 0
 591 587 593 585 593 582 c 0
 593 573 552 488 462 488 c 0xd0
EndSplineSet
EndChar

StartChar: uni0E19
Encoding: 3609 3609 153
Width: 632
Flags: W
HStem: -9 41<465.203 539.727> 0 21G<158 233> 121 51<465.275 494> 421 38<219.371 275.596> 560 38<219.276 295.127>
VStem: 173 36<470.036 549.056> 306 66<468.02 552.668> 418 41<38.417 114.567> 547 39<39.652 114.084>
DStem2: 155.504 -9 229.15 -9 0.267238 0.96363<27.7791 79.9098 108.927 449.453> 443.804 -9 519.636 -9 0.267238 0.96363<187.831 625.75>
LayerCount: 2
Fore
SplineSet
257 421 m 0x7f80
 217 421 173 460 173 508 c 0
 173 553 207 598 264 598 c 0
 342 598 372 553 372 514 c 0
 372 508 372 502 370 496 c 2
 253 77 l 1
 253 77 326 172 487 172 c 2
 494 172 l 1
 611 594 l 1
 687 594 l 1
 569 169 l 2
 565 155 545 146 545 146 c 1
 572 131 586 103 586 74 c 0
 585 33 557 -9 500 -9 c 0xbf80
 457 -9 418 28 418 77 c 0
 418 104 432 120 439 131 c 1
 320 124 239 15 227 0 c 1
 158 0 l 1
 276 424 l 1
 269 422 263 421 257 421 c 0x7f80
258 459 m 0
 290 459 306 484 306 510 c 0
 306 535 290 560 258 560 c 0
 225 560 209 535 209 510 c 0
 209 484 225 459 258 459 c 0
502 32 m 0
 532 32 547 55 547 77 c 0
 547 99 533 121 503 121 c 0
 474 121 459 98 459 76 c 0
 459 54 473 32 502 32 c 0
EndSplineSet
EndChar

StartChar: uni0E1A
Encoding: 3610 3610 154
Width: 618
Flags: W
HStem: 0 45<118 170 244 445.044> 421 38<218.933 275.596> 560 38<219.276 295.127>
VStem: 173 36<469.6 549.056> 306 66<467.02 552.668>
DStem2: 157.52 0 231.52 0 0.267238 0.96363<66.474 440.242> 445.276 0 519.604 0 0.267238 0.96363<57.4063 616.417>
LayerCount: 2
Fore
SplineSet
257 421 m 0
 219 421 173 458 173 508 c 0
 173 553 207 598 264 598 c 0
 342 598 372 553 372 514 c 0
 372 508 372 502 370 496 c 2
 244 45 l 1
 393 45 l 2
 425 45 463 66 478 118 c 2
 610 594 l 1
 684 594 l 1
 549 106 l 1
 541 66 498 0 421 0 c 2
 106 0 l 1
 118 45 l 1
 170 45 l 1
 276 424 l 1
 269 422 263 421 257 421 c 0
258 459 m 0
 290 459 306 484 306 510 c 0
 306 535 290 560 258 560 c 0
 225 560 209 535 209 510 c 0
 209 484 225 459 258 459 c 0
EndSplineSet
EndChar

StartChar: uni0E1B
Encoding: 3611 3611 155
Width: 634
Flags: W
HStem: 0 45<118 170 244 462.534> 422 37<219.601 275.596> 560 38<219.276 294.998>
VStem: 173 36<470.142 549.056> 306 67<467.02 552.819>
DStem2: 157.52 0 231.52 0 0.267238 0.96363<66.474 441.205> 460.276 0 534.604 0 0.267238 0.96363<57.4063 1010.66>
AnchorPoint: "AboveBase" 547 645 basechar 0
LayerCount: 2
Fore
SplineSet
258 459 m 0
 290 459 306 484 306 510 c 0
 306 535 290 560 258 560 c 0
 225 560 209 535 209 510 c 0
 209 484 225 459 258 459 c 0
256 422 m 0
 225 422 173 451 173 508 c 0
 173 553 207 598 264 598 c 0
 341 598 373 553 373 515 c 0
 373 508 372 502 370 496 c 2
 244 45 l 1
 408 45 l 2
 440 45 478 66 493 118 c 2
 730 974 l 1
 805 974 l 1
 564 106 l 1
 556 66 513 0 435 0 c 2
 106 0 l 1
 118 45 l 1
 170 45 l 1
 276 425 l 1
 269 423 262 422 256 422 c 0
EndSplineSet
EndChar

StartChar: uni0E1C
Encoding: 3612 3612 156
Width: 618
Flags: W
HStem: 0 21G<88 169.455 445 525.556> 426 36<311.538 385.435> 559 39<311.348 387.74>
VStem: 396 32<473.36 548.133>
DStem2: 88 0 164 0 0.267238 0.96363<20.3101 107.036 139.679 484.19> 196 115 191 58 0.607965 0.793964<0 278.748> 415 401 392 316 0.217296 -0.976106<77.9712 289.928> 445 0 520 0 0.267238 0.96363<20.0429 39.7607 122.527 616.491>
LayerCount: 2
Fore
SplineSet
347 426 m 0
 328 426 309 432 288 447 c 1
 196 115 l 1
 415 401 l 1
 478 118 l 1
 610 594 l 1
 685 594 l 1
 520 0 l 1
 445 0 l 1
 451 22 l 2
 453 29 454 34 454 39 c 0
 454 48 451 53 450 58 c 2
 392 316 l 1
 191 58 l 2
 186 51 176 45 170 22 c 2
 164 0 l 1
 88 0 l 1
 224 490 l 2
 235 529 268 598 332 598 c 1
 385 597 428 561 428 513 c 0
 428 469 395 426 347 426 c 0
349 462 m 0
 380 462 396 487 396 511 c 0
 396 535 381 559 350 559 c 0
 318 559 301 534 301 510 c 0
 302 486 317 462 349 462 c 0
EndSplineSet
EndChar

StartChar: uni0E1D
Encoding: 3613 3613 157
Width: 634
Flags: W
HStem: 0 21G<88 169 460 540.544> 426 36<311.003 385.435> 559 39<311.462 387.74>
VStem: 396 32<473.36 548.133>
DStem2: 88 0 164 0 0.267238 0.96363<20.3101 104.198 141.607 484.19> 196 117 190 54 0.619732 0.784813<0 291.691> 425 407 402 326 0.229039 -0.973417<73.5789 296.892> 460 0 535 0 0.267238 0.96363<20.0429 32.5255 122.527 1010.73>
AnchorPoint: "AboveBase" 547 645 basechar 0
LayerCount: 2
Fore
SplineSet
349 462 m 0
 380 462 396 487 396 511 c 0
 396 535 381 559 350 559 c 0
 318 559 301 534 301 510 c 0
 301 486 317 462 349 462 c 0
288 447 m 1
 196 117 l 1
 425 407 l 1
 493 118 l 1
 730 974 l 1
 805 974 l 1
 535 0 l 1
 460 0 l 1
 465 17 l 2
 467 23 467 28 467 32 c 0
 467 43 464 48 463 54 c 2
 402 326 l 1
 190 54 l 2
 185 46 175 40 169 17 c 2
 164 0 l 1
 88 0 l 1
 224 490 l 2
 234 529 269 598 332 598 c 1
 385 597 428 561 428 513 c 0
 428 469 395 426 347 426 c 0
 329 426 309 432 288 447 c 1
EndSplineSet
EndChar

StartChar: uni0E1E
Encoding: 3614 3614 158
Width: 689
Flags: W
HStem: 0 21G<159 248.184 511 595.556> 423 36<220.229 276.641> 560 38<219.276 295.127>
VStem: 173 36<469.575 549.056> 306 66<466.231 552.668> 511 38<115 490>
DStem2: 159 0 233.108 0 0.267238 0.96363<20.8446 70.1217 139.145 443.004> 265 115 237 0 0.488061 0.87281<0 447.367> 517.108 0 590 0 0.267238 0.96363<119.34 616.462>
LayerCount: 2
Fore
SplineSet
251 423 m 0
 220 423 173 457 173 508 c 0
 173 553 207 598 264 598 c 0
 342 598 372 553 372 514 c 0
 372 508 372 502 370 496 c 2
 265 115 l 1
 524 588 l 1
 551 588 l 1
 549 115 l 1
 682 594 l 1
 755 594 l 1
 590 0 l 1
 511 0 l 1
 511 490 l 1
 237 0 l 1
 159 0 l 1
 277 427 l 1
 268 425 259 423 251 423 c 0
258 459 m 0
 290 459 306 484 306 510 c 0
 306 535 290 560 258 560 c 0
 225 560 209 535 209 510 c 0
 209 484 225 459 258 459 c 0
EndSplineSet
EndChar

StartChar: uni0E1F
Encoding: 3615 3615 159
Width: 689
Flags: W
HStem: 0 21G<159 248.184 511 595.565> 423 36<220.229 276.641> 560 38<219.276 295.127>
VStem: 173 36<469.575 549.056> 306 66<469.082 552.668> 511 37<111 490>
DStem2: 159 0 233.217 0 0.267238 0.96363<20.8446 69.7395 135.023 443.004> 264 111 237 0 0.488061 0.87281<0 451.346> 517.217 0 590 0 0.267238 0.96363<115.189 1010.67>
AnchorPoint: "AboveBase" 602 645 basechar 0
LayerCount: 2
Fore
SplineSet
251 423 m 0
 220 423 173 457 173 508 c 0
 173 553 207 598 264 598 c 0
 342 598 372 553 372 514 c 0
 372 508 372 502 370 496 c 2
 264 111 l 1
 525 591 l 1
 552 591 l 1
 548 111 l 1
 787 974 l 1
 861 974 l 1
 590 0 l 1
 511 0 l 1
 511 490 l 1
 237 0 l 1
 159 0 l 1
 277 427 l 1
 268 425 259 423 251 423 c 0
258 459 m 0
 290 459 306 484 306 510 c 0
 306 535 290 560 258 560 c 0
 225 560 209 535 209 510 c 0
 209 484 225 459 258 459 c 0
EndSplineSet
EndChar

StartChar: uni0E20
Encoding: 3616 3616 160
Width: 590
Flags: W
HStem: -4 39<101.706 175.049> 124 35<102.598 168.43> 392 44<228 263 305.444 383> 549 50<342.449 503.166>
VStem: 56 38<42.5532 116.578> 539 74<361.375 514.132>
DStem2: 121.905 -4 194.873 -4 0.267238 0.96363<162.747 410.168> 416.891 -4 490.891 -4 0.267238 0.96363<23.9266 474.35>
LayerCount: 2
Fore
SplineSet
492 0 m 9
 418 0 l 1
 532 410 l 2
 537 427 539 442 539 455 c 0
 539 520 488 549 427 549 c 0
 354 549 266 508 228 436 c 1
 395 436 l 1
 383 392 l 1
 347 392 l 2
 304 392 291 343 291 341 c 2
 219 83 l 2
 204 28 189 -4 138 -4 c 0
 83 -4 56 37 56 78 c 0
 56 119 83 159 135 159 c 0
 144 159 155 158 166 155 c 1
 215 332 l 2
 228 379 263 392 263 392 c 1
 166 392 l 1
 204 528 339 599 451 599 c 0
 539 599 613 555 613 463 c 0
 613 448 611 433 607 416 c 2
 492 0 l 9
139 35 m 0
 167 35 182 55 182 80 c 0
 182 102 168 124 139 124 c 0
 109 124 94 102 94 80 c 0
 94 57 109 35 139 35 c 0
EndSplineSet
EndChar

StartChar: uni0E21
Encoding: 3617 3617 161
Width: 616
Flags: W
HStem: -5 50<122.636 176.358> 147 56<288 333.329> 158 51<145.215 202> 423 36<218.613 275.641> 560 38<218.276 294.153>
VStem: 76 45<45.8905 134.691> 172 36<470.308 549.056> 305 67<467.379 552.445>
DStem2: 157.073 -5 231.847 -5 0.267238 0.96363<46.4328 168.114 235.424 448.07> 441.427 -5 515.613 -5 0.267238 0.96363<88.2081 621.729>
LayerCount: 2
Fore
SplineSet
76 66 m 0xdf
 76 126 131 209 214 209 c 2
 216 209 l 1xbf
 276 427 l 1
 267 425 258 423 250 423 c 0
 219 423 174 456 172 508 c 1
 172 553 206 598 263 598 c 0
 341 598 372 552 372 514 c 0
 372 507 371 502 370 496 c 2
 288 203 l 1
 288 203 407 174 465 80 c 1
 608 594 l 1
 682 594 l 1
 517 0 l 1
 441 0 l 1
 404 127 274 147 274 147 c 1
 250 51 232 -5 152 -5 c 0
 99 -5 76 26 76 66 c 0xdf
257 459 m 0
 289 459 305 484 305 510 c 0
 305 535 289 560 257 560 c 0
 224 560 208 535 208 510 c 0
 208 484 224 459 257 459 c 0
121 78 m 0
 121 51 134 45 150 45 c 0
 161 45 173 50 177 68 c 1
 202 157 l 1
 199 157 195 158 192 158 c 0
 149 158 121 115 121 78 c 0
EndSplineSet
EndChar

StartChar: uni0E22
Encoding: 3618 3618 162
Width: 553
Flags: W
HStem: -8 54<217.184 365.978> 309 41<279.415 340> 422 39<304.798 384.261> 562 36<306.467 382.596>
VStem: 119 74<70.0012 212.002> 189 79<359.267 443.26> 394 34<472.835 550.375>
DStem2: 378.292 -8 452.073 -8 0.267238 0.96363<94.2352 624.924>
LayerCount: 2
Fore
SplineSet
337 598 m 0xf6
 383 598 428 567 428 511 c 0
 428 467 398 424 340 422 c 1
 305 422 278 446 278 446 c 1
 271 431 268 417 268 404 c 0xf6
 268 372 288 350 323 350 c 2
 351 350 l 1
 340 309 l 1
 313 309 l 2
 272 309 233 276 220 232 c 2
 198 152 l 2
 195 141 193 130 193 121 c 0
 193 74 229 46 286 46 c 0
 357 46 404 83 421 146 c 2
 546 594 l 1
 619 594 l 1
 497 154 l 2
 468 52 379 -8 269 -8 c 0
 178 -8 119 34 119 109 c 0xfa
 119 145 146 229 146 229 c 1
 167 287 207 313 243 324 c 1
 232 325 189 335 189 392 c 0
 189 499 276 598 337 598 c 0xf6
344 461 m 0
 377 461 394 486 394 512 c 0
 394 537 377 562 344 562 c 0
 312 562 295 537 295 512 c 0
 295 486 312 461 344 461 c 0
EndSplineSet
EndChar

StartChar: uni0E23
Encoding: 3619 3619 163
Width: 440
Flags: W
HStem: -4 39<200.786 276.387> 138 38<202.127 276.48> 496 68<391.075 512.978> 530 64<267.114 393.382>
VStem: 154 37<45.9629 127.359> 356 76<296.672 387.465>
DStem2: 207 472 153 442 0.958798 -0.284088<0 172.567> 253.628 -4 326.881 -4 0.267238 0.96363<166.039 384.547>
LayerCount: 2
Fore
SplineSet
565 586 m 0xec
 565 575 526 496 448 496 c 0xec
 406 496 357 530 298 530 c 0
 259 530 234 512 207 472 c 1
 396 416 l 2
 408 413 432 402 432 379 c 0
 432 372 431 371 430 367 c 2
 356 101 l 2
 351 82 320 -4 242 -4 c 0
 186 -4 154 45 154 85 c 0
 154 128 186 176 242 176 c 0
 263 176 289 167 298 156 c 1
 350 344 l 2
 353 352 356 360 356 367 c 0
 356 376 351 384 337 387 c 1
 153 442 l 1
 171 476 241 594 340 594 c 0xdc
 389 594 441 564 488 564 c 0
 538 564 547 592 560 592 c 0
 563 592 565 591 565 586 c 0xec
240 35 m 0
 272 35 287 61 287 86 c 0
 287 112 271 138 240 138 c 0
 207 138 191 112 191 86 c 0
 191 61 207 35 240 35 c 0
EndSplineSet
EndChar

StartChar: uni0E24
Encoding: 3620 3620 164
Width: 569
Flags: W
HStem: -8 37<171.912 242.41> 119 36<207 243.594> 392 44<212 229 274.879 361> 549 50<325.437 485.398>
VStem: 115 48<34.2399 112.661> 252 38<38.0237 111.672> 519 76<369.375 515.196>
DStem2: 21.2137 -240 97.4568 -240 0.267238 0.96363<430.283 652.221> 332 -240 406 -240 0.267238 0.96363<19.7756 718.144>
LayerCount: 2
Fore
SplineSet
118 109 m 2
 178 324 l 2
 191 373 229 392 229 392 c 1
 150 392 l 1
 191 530 324 599 434 599 c 0
 522 599 595 555 595 465 c 0
 595 448 593 430 587 410 c 2
 406 -240 l 1
 332 -240 l 25
 513 410 l 2
 517 426 519 441 519 454 c 0
 519 519 471 549 410 549 c 0
 339 549 252 508 212 436 c 1
 373 436 l 1
 361 392 l 1
 314 392 l 2
 271 392 257 335 256 333 c 2
 207 155 l 1
 263 150 290 112 290 74 c 0
 290 33 260 -8 202 -8 c 0
 138 -8 115 45 115 85 c 0
 115 94 116 102 118 109 c 2
206 29 m 0
 236 29 251 52 252 75 c 0
 252 97 237 119 207 119 c 0
 178 119 164 96 163 73 c 1
 164 51 178 29 206 29 c 0
EndSplineSet
EndChar

StartChar: uni0E25
Encoding: 3621 3621 165
Width: 552
Flags: W
HStem: -9 37<164.009 234.41> 0 21G<381 459.543> 118 36<199 235.594> 401 49<303.012 438.505> 539 59<313.026 472.622>
VStem: 107 49<32.9849 111.706> 244 38<37.0237 110.672> 503 77<397.624 509.063>
DStem2: 77.553 -9 153.796 -9 0.267238 0.96363<189.527 399.572> 378.504 -9 451.504 -9 0.267238 0.96363<28.8481 339.698 419.637 477.742>
LayerCount: 2
Fore
SplineSet
199 154 m 1x7f
 255 149 282 111 282 73 c 0
 282 32 252 -9 194 -9 c 0xbf
 130 -9 107 44 107 84 c 0
 107 93 108 101 110 108 c 2
 161 293 l 2
 183 372 272 450 370 450 c 0
 459 450 492 395 492 395 c 1
 500 418 503 437 503 453 c 0
 503 527 433 539 390 539 c 0
 316 539 238 505 180 444 c 1
 161 467 l 1
 244 560 341 598 420 598 c 0
 511 598 580 548 580 472 c 0
 580 459 578 446 574 433 c 2
 454 0 l 1
 381 0 l 1
 461 289 l 2
 464 300 465 310 465 320 c 0
 465 368 430 401 376 401 c 0
 307 401 251 347 235 289 c 2
 199 154 l 1x7f
198 28 m 0
 228 28 243 51 244 74 c 0
 244 96 229 118 199 118 c 0
 171 118 156 95 156 72 c 0
 156 50 170 28 198 28 c 0
EndSplineSet
EndChar

StartChar: uni0E26
Encoding: 3622 3622 166
Width: 582
Flags: W
HStem: -4 39<79.7056 152.923> 124 35<80.5982 146.43> 392 44<224 243 285.978 374> 549 50<337.899 497.928>
VStem: 34 38<42.5532 116.578> 533 75<369.375 514.445>
DStem2: 34.4568 -240 107.424 -240 0.267238 0.96363<407.654 652.709> 345 -240 419 -240 0.267238 0.96363<19.7756 719.375>
LayerCount: 2
Fore
SplineSet
144 155 m 1
 191 326 l 2
 205 375 243 392 243 392 c 1
 161 392 l 1
 201 529 335 599 446 599 c 0
 534 599 608 554 608 465 c 0
 608 448 606 430 600 410 c 2
 419 -240 l 1
 345 -240 l 25
 526 410 l 2
 531 427 533 442 533 455 c 0
 533 520 483 549 422 549 c 0
 349 549 261 507 224 436 c 1
 386 436 l 1
 374 392 l 1
 328 392 l 2
 284 392 267 337 267 335 c 2
 197 83 l 2
 182 28 167 -4 116 -4 c 0
 61 -4 34 37 34 78 c 0
 34 119 61 159 113 159 c 0
 122 159 133 158 144 155 c 1
117 35 m 0
 146 35 160 57 160 80 c 0
 160 102 146 124 117 124 c 0
 87 124 72 102 72 80 c 0
 72 57 87 35 117 35 c 0
EndSplineSet
EndChar

StartChar: uni0E27
Encoding: 3623 3623 167
Width: 481
Flags: W
HStem: -6 37<253.522 326.877> 131 35<253.046 325.906> 545 53<269.954 405.339>
VStem: 206 37<40.9799 122.568> 433 76<383.031 518.385>
DStem2: 306.124 -6 380.612 -6 0.267238 0.96363<156.699 488.333>
LayerCount: 2
Fore
SplineSet
415 118 m 2
 393 41 360 -6 291 -6 c 0
 247 -6 206 31 206 77 c 0
 206 126 239 164 290 166 c 0
 311 166 338 156 348 145 c 1
 429 438 l 2
 432 448 433 457 433 466 c 0
 433 514 393 545 340 545 c 0
 257 545 196 484 182 470 c 1
 150 479 l 1
 161 502 243 598 373 598 c 0
 450 598 509 550 509 478 c 0
 509 465 507 452 503 438 c 2
 415 118 l 2
290 31 m 0
 322 31 337 56 337 80 c 0
 337 106 321 131 289 131 c 0
 257 131 243 106 243 82 c 0
 243 56 259 31 290 31 c 0
EndSplineSet
EndChar

StartChar: uni0E28
Encoding: 3624 3624 168
Width: 561
Flags: W
HStem: 0 21G<96 177.59 393 470.536> 273 36<306.482 380.986> 407 37<305.458 380.963> 553 46<300.619 478.363>
VStem: 139 46<321.487 443.572> 391 34<319.962 380.786> 508 80<369.672 422> 618 71<587.696 641>
DStem2: 96 0 172 0 0.267238 0.96363<20.3101 246.222> 393 0 465 0 0.267238 0.96363<19.2412 436.58>
LayerCount: 2
Fore
SplineSet
343 309 m 0
 376 309 391 333 391 357 c 0
 391 382 375 407 342 407 c 0
 311 407 296 383 296 359 c 0
 296 334 312 309 343 309 c 0
388 553 m 0
 288 553 185 466 185 370 c 0
 185 347 192 330 207 321 c 1
 233 376 260 444 339 444 c 0
 369 444 398 426 407 409 c 1
 436 421 480 447 511 473 c 1
 504 535 452 553 388 553 c 0
139 351 m 0
 139 493 272 599 402 599 c 0
 474 599 537 584 568 536 c 1
 589 565 607 601 618 641 c 1
 689 641 l 1
 672 582 633 528 587 482 c 1
 588 478 588 473 588 469 c 0
 588 450 583 427 576 401 c 2
 465 0 l 1
 393 0 l 1
 504 401 l 2
 506 409 508 415 508 422 c 1
 481 404 450 389 424 377 c 1
 425 372 425 366 425 361 c 0
 425 316 397 273 338 273 c 0
 296 273 278 296 268 308 c 1
 255 287 240 246 236 229 c 2
 172 0 l 1
 96 0 l 1
 158 224 l 2
 159 229 160 233 160 238 c 0
 160 266 139 299 139 351 c 0
EndSplineSet
EndChar

StartChar: uni0E29
Encoding: 3625 3625 169
Width: 634
Flags: W
HStem: 0 45<118 168 244 467.063> 166 45<368.915 464.178> 346 43<339.462 385.595> 423 36<214.613 273.789> 560 38<214.276 290.417>
VStem: 168 36<469.878 549.056> 301 71<467.093 552.814> 392 43<260.024 340.337>
DStem2: 155.52 0 231.52 0 0.267238 0.96363<67.0085 240.495> 462.99 0 535.436 0 0.267238 0.96363<53.9069 249.179 279.739 616.493>
LayerCount: 2
Fore
SplineSet
351 389 m 0
 364 389 435 373 435 300 c 0
 435 253 399 219 368 216 c 1
 377 212 387 211 398 211 c 0
 464 211 542 283 558 344 c 1
 628 594 l 1
 700 594 l 25
 564 103 l 2
 549 51 510 0 451 0 c 2
 106 0 l 1
 118 45 l 1
 168 45 l 1
 274 427 l 1
 265 425 256 423 246 423 c 0
 215 423 170 454 168 508 c 1
 168 553 202 598 259 598 c 0
 338 598 372 551 372 512 c 0
 372 493 339 392 339 386 c 1
 342 388 346 389 351 389 c 0
253 459 m 0
 285 459 301 484 301 510 c 0
 301 535 285 560 253 560 c 0
 220 560 204 535 204 510 c 0
 204 484 220 459 253 459 c 0
351 255 m 0
 379 255 392 277 392 300 c 0
 392 323 378 346 350 346 c 0
 321 346 306 324 306 301 c 0
 306 278 322 255 351 255 c 0
291 212 m 1
 244 45 l 1
 414 45 l 2
 447 45 482 69 491 101 c 2
 530 240 l 1
 500 197 435 166 378 166 c 0
 341 166 308 179 291 212 c 1
EndSplineSet
EndChar

StartChar: uni0E2A
Encoding: 3626 3626 170
Width: 552
Flags: W
HStem: -9 37<164.009 234.41> 0 21G<381 459.548> 118 36<199 235.594> 538 60<309.356 471.014>
VStem: 107 49<32.9849 111.526> 244 38<37.0237 110.672> 504 75<375.375 465>
DStem2: 77.553 -9 153.796 -9 0.267238 0.96363<189.527 375.689> 378.504 -9 451.504 -9 0.267238 0.96363<28.8481 303.252 379.116 490.193>
LayerCount: 2
Fore
SplineSet
199 154 m 1x7e
 255 149 282 111 282 73 c 0
 282 32 252 -9 194 -9 c 0xbe
 130 -9 107 44 107 84 c 0
 107 93 108 101 110 108 c 2
 155 270 l 2
 173 335 246 413 337 425 c 1
 383 442 438 467 488 501 c 1
 467 526 431 538 390 538 c 0
 319 538 232 503 180 444 c 1
 161 467 l 1
 247 564 341 598 417 598 c 0
 476 598 524 578 550 551 c 1
 576 576 600 607 618 641 c 1
 689 641 l 1
 666 588 621 545 573 510 c 1
 577 497 579 484 579 472 c 0
 579 457 577 443 573 429 c 2
 454 0 l 1
 381 0 l 1
 450 250 l 2
 453 262 455 274 455 285 c 0
 455 336 423 378 370 378 c 0
 301 378 244 324 229 266 c 2
 199 154 l 1x7e
198 28 m 0
 228 28 243 51 244 74 c 0
 244 96 229 118 199 118 c 0
 171 118 156 95 156 72 c 0
 156 50 170 28 198 28 c 0
481 356 m 1
 490 396 504 427 504 458 c 2
 504 465 l 1
 463 445 423 430 396 424 c 1
 466 409 481 356 481 356 c 1
EndSplineSet
EndChar

StartChar: uni0E2B
Encoding: 3627 3627 171
Width: 623
Flags: W
HStem: 0 21G<150 229.505 450 530.521> 423 36<210.613 267.641> 560 38<210.276 285.917 574.781 644.897>
VStem: 164 36<470.308 549.056> 297 64<467.942 552.814> 524 43<476.803 555.199> 557 77<359.339 421.727> 652 37<480.355 553.578>
DStem2: 150 0 224 0 0.267238 0.96363<19.7756 225.761 272.539 443.004> 450 0 525 0 0.267238 0.96363<20.0429 408.957>
LayerCount: 2
Fore
SplineSet
242 423 m 0xfb
 211 423 166 456 164 508 c 1
 164 553 198 598 255 598 c 0
 332 598 361 551 361 512 c 0
 361 505 361 499 359 493 c 2
 290 244 l 1
 400 383 529 452 535 456 c 1
 527 469 524 484 524 500 c 0xfd
 524 547 556 596 609 596 c 0
 660 596 688 556 689 515 c 1
 688 481 668 447 624 437 c 1
 624 437 634 426 634 405 c 0
 634 399 633 392 631 384 c 2
 525 0 l 1
 450 0 l 1
 554 376 l 2
 556 383 557 389 557 395 c 0
 557 413 548 422 548 422 c 1
 418 352 296 190 284 172 c 1
 270 147 259 127 254 109 c 2
 224 0 l 1
 150 0 l 1
 268 427 l 1
 259 425 250 423 242 423 c 0xfb
249 459 m 0
 281 459 297 484 297 510 c 0
 297 535 281 560 249 560 c 0
 216 560 200 535 200 510 c 0
 200 484 216 459 249 459 c 0
608 472 m 0
 637 472 652 495 652 517 c 0
 651 539 638 561 609 561 c 0
 582 561 567 538 567 516 c 0
 567 494 581 472 608 472 c 0
EndSplineSet
EndChar

StartChar: uni0E2C
Encoding: 3628 3628 172
Width: 681
Flags: W
HStem: 0 21G<151 237.765 504.588 588.538> 423 36<212.613 268.549> 560 38<212.276 288.153> 607 38<623.104 693.602> 639 20G<785.5 850>
VStem: 166 36<470.308 549.056> 299 67<466.465 552.445> 575 41<522.579 600.876> 702 40<564 600.068> 787 63<607.652 659>
DStem2: 151 0 226.444 0 0.267238 0.96363<20.0429 67.2353 145.728 443.004> 260 121 226 0 0.501271 0.86529<0 371.323> 512 556 476 425 0.067289 -0.997734<128.281 430.977> 506.057 0 583 0 0.267238 0.96363<130.756 498.868>
LayerCount: 2
Fore
SplineSet
244 423 m 0xefc0
 213 423 168 456 166 508 c 1
 166 553 200 598 257 598 c 0
 335 598 366 552 366 514 c 0
 366 507 365 502 364 496 c 2
 260 121 l 1
 512 556 l 1
 541 126 l 1
 639 478 l 1
 595 491 575 526 575 560 c 0
 575 603 607 645 662 645 c 0xf7c0
 706 645 742 603 742 564 c 1
 780 609 784 639 787 659 c 1
 850 659 l 17
 813 536 722 502 722 502 c 1
 583 0 l 1
 506 0 l 1
 476 425 l 1
 226 0 l 1
 151 0 l 1
 269 427 l 1
 260 425 252 423 244 423 c 0xefc0
251 459 m 0
 283 459 299 484 299 510 c 0
 299 535 283 560 251 560 c 0
 218 560 202 535 202 510 c 0
 202 484 218 459 251 459 c 0
660 516 m 0
 688 516 702 539 702 561 c 0
 702 584 687 607 659 607 c 0
 630 607 616 585 616 562 c 0
 616 539 631 516 660 516 c 0
EndSplineSet
EndChar

StartChar: uni0E2D
Encoding: 3629 3629 173
Width: 553
Flags: W
HStem: -8 44<210.21 357.299> 270 39<250.732 330.72> 409 37<251.098 328.818> 552 46<300.272 465.362>
VStem: 113 75<58.3945 197.297> 340 34<320.337 396.695> 502 79<374.672 517.353>
DStem2: 77.0147 -8 153.175 -8 0.267238 0.96363<139.876 325.26> 378.175 -8 453.292 -8 0.267238 0.96363<93.4391 480.683>
LayerCount: 2
Fore
SplineSet
283 446 m 0
 330 446 374 416 374 362 c 0
 374 316 342 270 290 270 c 0
 274 270 254 275 234 286 c 1
 192 132 l 2
 189 123 188 114 188 106 c 0
 188 59 230 36 278 36 c 0
 334 36 399 67 417 132 c 2
 498 425 l 2
 501 436 502 446 502 457 c 0
 502 508 467 552 391 552 c 0
 287 552 234 500 198 468 c 1
 175 489 l 1
 219 531 294 598 409 598 c 0
 517 598 581 543 581 470 c 0
 581 458 580 446 576 433 c 2
 496 146 l 2
 461 18 313 -8 260 -8 c 0
 203 -8 113 9 113 99 c 0
 113 113 115 129 120 147 c 2
 170 327 l 2
 181 366 216 446 283 446 c 0
291 309 m 0
 324 309 340 334 340 358 c 0
 340 384 323 409 290 409 c 0
 257 409 241 384 241 360 c 0
 241 334 258 309 291 309 c 0
EndSplineSet
EndChar

StartChar: uni0E2E
Encoding: 3630 3630 174
Width: 553
Flags: W
HStem: -8 44<209.756 357.299> 185 40<226.854 306.652> 325 37<228.643 305.754> 403 41<257.098 426.37> 553 43<290.01 469.096>
VStem: 113 74<58.3945 196.594> 198 45<459.104 522.936> 316 35<235.874 314.102> 505 76<375.938 461>
DStem2: 77.0147 -8 152.175 -8 0.267238 0.96363<139.608 236.938> 378.175 -8 453.292 -8 0.267238 0.96363<93.4391 485.465>
LayerCount: 2
Fore
SplineSet
259 362 m 0
 307 362 351 332 351 278 c 0
 351 232 318 185 265 185 c 0
 249 185 231 190 210 201 c 1
 191 132 l 2
 188 123 187 114 187 106 c 0
 187 59 229 36 278 36 c 0
 334 36 399 67 417 132 c 2
 497 421 l 2
 500 431 505 447 505 458 c 2
 505 461 l 1
 450 421 384 403 327 403 c 0
 255 403 198 432 198 481 c 0
 198 550 313 596 400 596 c 0
 479 596 521 565 533 559 c 1
 541 571 549 584 554 602 c 1
 631 602 l 17
 614 567 596 542 572 516 c 1
 578 505 581 489 581 472 c 0
 581 457 579 442 575 429 c 2
 496 146 l 2
 461 18 313 -8 260 -8 c 0
 203 -8 113 9 113 99 c 0
 113 113 115 129 120 147 c 2
 146 243 l 2
 157 282 192 362 259 362 c 0
267 225 m 0
 300 225 316 250 316 275 c 0
 316 300 300 325 267 325 c 0
 234 325 217 300 217 275 c 0
 217 250 234 225 267 225 c 0
386 553 m 0
 344 553 243 539 243 489 c 0
 243 462 283 444 332 444 c 0
 384 444 447 463 491 508 c 1
 480 531 449 553 386 553 c 0
EndSplineSet
EndChar

StartChar: uni0E2F
Encoding: 3631 3631 175
Width: 514
Flags: W
HStem: 0 21G<331 410.55> 412 53<218.076 402.248> 556 40<219.228 291.101>
VStem: 163 49<471.179 550.417> 299 39<471.33 548.555>
DStem2: 331 0 405 0 0.267238 0.96363<19.7756 482.562 529.569 613.333>
LayerCount: 2
Fore
SplineSet
256 596 m 0
 295 596 338 564 338 515 c 0
 338 484 322 462 322 462 c 1
 446 462 487 563 495 591 c 1
 569 591 l 1
 405 0 l 1
 331 0 l 1
 460 465 l 1
 406 426 344 412 293 412 c 0
 228 412 163 429 163 498 c 0
 163 546 200 596 256 596 c 0
256 465 m 0
 285 465 299 487 299 510 c 0
 299 533 284 556 255 556 c 0
 226 556 212 534 212 511 c 0
 212 488 226 465 256 465 c 0
EndSplineSet
EndChar

StartChar: uni0E30
Encoding: 3632 3632 176
Width: 438
Flags: W
HStem: 6 52<118.05 235.364> 6 45<212 282.685> 141 31<121.461 183.981> 416 52<230.275 349.056> 416 45<326 396.615> 551 30<234.416 295.946>
VStem: 75 38<63.6847 134.954> 192 35<64.5504 134.385 474.384 545.021> 305 36<474.275 545.071> 353 58<127.543 169> 467 58<537.83 579>
LayerCount: 2
Fore
SplineSet
264 581 m 0x37e0
 306 581 341 548 341 506 c 0
 341 480 326 461 326 461 c 1
 331 461 l 2x2fe0
 392 461 442 501 467 579 c 1
 525 579 l 17
 476 460 383 416 296 416 c 0
 204 416 188 465 188 498 c 0
 188 530 204 581 264 581 c 0x37e0
181 6 m 0xa7e0
 90 6 75 56 75 89 c 0
 75 121 94 172 153 172 c 0
 199 172 227 132 227 96 c 0
 227 70 212 51 212 51 c 1
 218 51 l 2x67e0
 277 51 329 92 353 169 c 1
 411 169 l 17
 363 49 268 6 181 6 c 0xa7e0
266 468 m 0x37e0
 292 468 305 489 305 510 c 0
 305 530 292 551 266 551 c 0
 239 551 225 530 225 510 c 0
 226 489 239 468 266 468 c 0x37e0
153 58 m 0xa7e0
 179 58 192 79 192 100 c 0
 192 120 179 141 153 141 c 0
 126 141 113 120 113 100 c 0
 113 79 126 58 153 58 c 0xa7e0
EndSplineSet
EndChar

StartChar: uni0E31
Encoding: 3633 3633 177
Width: 0
Flags: W
HStem: 676 52<-1.46448 157.534> 874 40<-65.0822 7.0629>
VStem: -126 53<789.814 867.751> 15 43<787.562 867.594>
AnchorPoint: "AboveMark" 167 968 basemark 0
AnchorPoint: "AboveBase" 78 645 mark 0
LayerCount: 2
Fore
SplineSet
44 676 m 0
 -84 676 -126 755 -126 808 c 0
 -126 858 -91 914 -26 914 c 0
 12 914 56 880 58 838 c 0
 62 754 -4 742 -4 742 c 1
 20 732 45 728 70 728 c 0
 165 728 257 799 303 911 c 1
 387 911 l 17
 306 747 159 676 44 676 c 0
-27 782 m 0
 1 782 15 805 15 827 c 0
 15 851 0 874 -28 874 c 0
 -59 874 -73 851 -73 829 c 0
 -74 805 -58 782 -27 782 c 0
EndSplineSet
EndChar

StartChar: uni0E32
Encoding: 3634 3634 178
Width: 407
Flags: W
HStem: 0 21G<235 316.553> 555 44<226.472 351.968>
VStem: 366 80<411.914 540.558>
DStem2: 235 0 311 0 0.267238 0.96363<20.3101 506.734>
LayerCount: 2
Fore
SplineSet
311 0 m 1
 235 0 l 1
 361 456 l 2
 364 468 366 480 366 490 c 0
 366 529 343 555 298 555 c 0
 233 555 174 513 155 496 c 1
 166 539 l 1
 190 559 245 599 320 599 c 0
 401 599 446 570 446 509 c 0
 446 494 444 479 439 461 c 2
 311 0 l 1
EndSplineSet
EndChar

StartChar: uni0E34
Encoding: 3636 3636 180
Width: 0
Flags: W
HStem: 740 40<-253.811 -55.7388> 844 49<-152.732 7.16613>
AnchorPoint: "AboveMark" 131 968 basemark 0
AnchorPoint: "AboveBase" 78 645 mark 0
LayerCount: 2
Fore
SplineSet
-61 893 m 0
 12 893 109 859 109 724 c 0
 109 701 106 677 101 651 c 1
 38 687 -55 740 -195 740 c 0
 -240 740 -276 733 -308 728 c 1
 -258 818 -159 893 -61 893 c 0
65 717 m 1
 59 767 36 844 -79 844 c 0
 -136 844 -186 816 -222 777 c 1
 -206 779 -189 780 -172 780 c 0
 -18 780 59 718 65 717 c 1
EndSplineSet
EndChar

StartChar: uni0E35
Encoding: 3637 3637 181
Width: 0
Flags: W
HStem: 740 40<-253.811 -55.7388> 844 49<-152.732 7.20517>
DStem2: 7.08974 651 79.2675 651 0.267238 0.96363<205.473 311.513>
AnchorPoint: "AboveMark" 131 968 basemark 0
AnchorPoint: "AboveBase" 78 645 mark 0
LayerCount: 2
Fore
SplineSet
-61 893 m 0
 13 893 50 861 62 849 c 9
 91 951 l 1
 163 951 l 1
 163 951 108 753 107 751 c 1
 108 743 108 735 108 727 c 0
 108 704 105 678 101 651 c 1
 38 687 -55 740 -195 740 c 0
 -240 740 -276 733 -308 728 c 1
 -258 818 -159 893 -61 893 c 0
65 717 m 1
 59 767 36 844 -79 844 c 0
 -136 844 -186 816 -222 777 c 1
 -206 779 -189 780 -172 780 c 0
 -18 780 59 718 65 717 c 1
EndSplineSet
EndChar

StartChar: uni0E36
Encoding: 3638 3638 182
Width: 0
Flags: W
HStem: 740 40<-254.075 -55.7491> 844 50<-152.193 7.70915> 906 48<65.326 138.951>
VStem: 145 44<824.804 900.395>
AnchorPoint: "AboveMark" 132 968 basemark 0
AnchorPoint: "AboveBase" 78 645 mark 0
LayerCount: 2
Fore
SplineSet
-58 894 m 0
 -20 894 10 880 10 880 c 1
 13 898 32 954 104 954 c 0
 158 954 189 908 189 862 c 0
 189 821 163 780 104 774 c 1
 104 774 109 757 109 726 c 0
 109 706 107 681 101 651 c 1
 28 699 -80 740 -201 740 c 0
 -247 740 -281 733 -306 728 c 1
 -260 819 -158 894 -58 894 c 0
103 820 m 0
 130 820 145 841 145 861 c 0
 145 888 128 906 103 906 c 0
 74 906 59 884 59 863 c 0
 60 842 74 820 103 820 c 0
65 717 m 1
 59 767 36 844 -79 844 c 0
 -136 844 -186 816 -222 777 c 1
 -206 779 -189 780 -172 780 c 0
 -18 780 59 718 65 717 c 1
EndSplineSet
EndChar

StartChar: uni0E37
Encoding: 3639 3639 183
Width: 0
Flags: W
HStem: 736 40<-255.572 -53.2592> 830 46<-164.112 -53>
DStem2: 12.2496 648 80.6542 648 0.267238 0.96363<189.907 314.896>
AnchorPoint: "AboveMark" 71 968 basemark 0
AnchorPoint: "AboveBase" 78 645 mark 0
LayerCount: 2
Fore
SplineSet
101 648 m 1
 0 713 -109 736 -199 736 c 0
 -237 736 -271 732 -305 725 c 1
 -223 876 -83 876 -53 876 c 1
 -31 951 l 1
 35 951 l 1
 12 863 l 1
 45 852 63 831 63 831 c 1
 98 951 l 1
 163 951 l 1
 107 743 l 1
 107 743 109 735 109 718 c 0
 109 703 107 680 101 648 c 1
-179 776 m 0
 -20 776 58 715 64 714 c 1
 57 798 -3 830 -83 830 c 0
 -132 830 -184 811 -226 773 c 1
 -211 775 -195 776 -179 776 c 0
EndSplineSet
EndChar

StartChar: uni0E38
Encoding: 3640 3640 184
Width: 0
Flags: W
HStem: -222 38<-280.034 -236.765> -104 35<-279.368 -215.536>
VStem: -321 35<-178.016 -109.738> -209 69<-179.656 -107.683>
AnchorPoint: "BelowBase" -119 -69 mark 0
LayerCount: 2
Fore
SplineSet
-321 -144 m 0
 -321 -120 -310 -69 -232 -69 c 0
 -171 -69 -140 -90 -140 -133 c 0
 -140 -140 -140 -147 -142 -155 c 2
 -184 -307 l 1
 -260 -307 l 1
 -236 -220 l 1
 -238 -220 -241 -222 -246 -222 c 0
 -280 -222 -321 -191 -321 -144 c 0
-248 -184 m 0
 -222 -184 -209 -164 -209 -144 c 0
 -209 -124 -222 -104 -248 -104 c 0
 -274 -104 -286 -124 -286 -144 c 0
 -286 -164 -273 -184 -248 -184 c 0
EndSplineSet
Substitution2: "Thai Sara U Mai Ek Reordering" uni0E48.low
Substitution2: "Thai Sara U Mai Tho Reordering" uni0E49.low
Substitution2: "Thai Sara U Mai Tri Reordering" uni0E4A.low
Substitution2: "Thai Sara U Mai Chattawa Reordering" uni0E4B.low
Substitution2: "Thai Sara U Thanthakhat Reordering" uni0E4C.low
Substitution2: "Thai Sara U Nikhahit Reordering" uni0E4D
EndChar

StartChar: uni0E39
Encoding: 3641 3641 185
Width: 0
Flags: W
HStem: -307 34<-303.983 -249.788> -206 28<-384.662 -344.073> -101 33<-387.036 -327.422>
VStem: -424 29<-168.325 -109.736> -352 47<-272.699 -203.453> -321 46<-174.656 -104.33>
DStem2: -260.135 -307 -184.346 -307 0.267238 0.96363<45.2591 247.018>
AnchorPoint: "BelowBase" -119 -69 mark 0
LayerCount: 2
Fore
SplineSet
-424 -137 m 0xf8
 -424 -109 -407 -68 -343 -68 c 0
 -292 -68 -275 -90 -275 -121 c 0xf4
 -275 -132 -277 -144 -281 -157 c 2
 -303 -238 l 2
 -304 -242 -305 -246 -305 -250 c 0
 -305 -263 -298 -273 -283 -273 c 0
 -262 -273 -247 -261 -241 -238 c 2
 -194 -69 l 1
 -118 -69 l 1
 -158 -212 l 2
 -172 -264 -216 -307 -274 -307 c 0
 -324 -307 -352 -284 -352 -248 c 0
 -352 -241 -351 -234 -349 -226 c 2
 -344 -204 l 2
 -345 -205 -348 -206 -352 -206 c 0
 -371 -206 -424 -194 -424 -137 c 0xf8
-321 -140 m 0
 -321 -116 -338 -101 -357 -101 c 0
 -378 -101 -394 -117 -395 -140 c 0
 -395 -158 -377 -178 -356 -178 c 0
 -337 -178 -321 -158 -321 -140 c 0
EndSplineSet
Substitution2: "Thai Sara UU Mai Ek Reordering" uni0E48.low
Substitution2: "Thai Sara UU Mai Tho Reordering" uni0E49.low
Substitution2: "Thai Sara UU Mai Tri Reordering" uni0E4A.low
Substitution2: "Thai Sara UU Mai Chattawa Reordering" uni0E4B.low
Substitution2: "Thai Sara UU Thanthakhat Reordering" uni0E4C.low
Substitution2: "Thai Sara UU Nikhahit Reordering" uni0E4D
EndChar

StartChar: uni0E3A
Encoding: 3642 3642 186
Width: 0
Flags: W
HStem: -161 106<-206.748 -125.781>
VStem: -217 100<-151.086 -64.6504>
AnchorPoint: "BelowBase" -116 -58 mark 0
LayerCount: 2
Fore
SplineSet
-164 -161 m 0
 -199 -161 -216 -134 -217 -108 c 0
 -217 -82 -199 -55 -164 -55 c 0
 -132 -55 -117 -81 -117 -108 c 0
 -117 -134 -133 -161 -164 -161 c 0
EndSplineSet
Substitution2: "Thai Phinthu Maitaikhu Reordering" uni0E47
Substitution2: "Thai Phinthu Mai Ek Reordering" uni0E48.low
Substitution2: "Thai Phinthu Mai Tho Reordering" uni0E49.low
Substitution2: "Thai Phinthu Mai Tri Reordering" uni0E4A.low
Substitution2: "Thai Phinthu Mai Chattawa Reordering" uni0E4B.low
Substitution2: "Thai Phinthu Thanthakhat Reordering" uni0E4C.low
Substitution2: "Thai Phinthu Nikhahit Reordering" uni0E4D
EndChar

StartChar: uni25CC
Encoding: 9676 9676 188
Width: 618
Flags: W
HStem: 5 36<315.007 349.995> 41 39<183.026 218.974> 52 39<452.092 486.892> 134 36<114.005 148.994> 146 37<556.052 591.008> 276 37<627.007 663.993> 283 36<119.051 154.965> 416 39<200.018 234.949 630.89 664.374> 501 38<565.023 600.974> 508 37<321.029 358.974> 544 37<464.026 497.982>
VStem: 114 35<134.005 169.995 284.039 318.159> 183 36<41.0073 79.9415> 200 35<416.059 454.993> 315 35<5.02042 40.9796> 321 38<508.007 544.995> 452 35<52.0261 90.971> 464 34<544.005 580.993> 556 35<146.006 182.977> 565 36<501.058 538.941> 627 37<276.023 312.98 412.081 448.793>
LayerCount: 2
Fore
SplineSet
217 455 m 0x011408
 228 455 234 445 235 436 c 1
 235 425 227 416 216 416 c 0
 207 416 200 425 200 436 c 1
 199 445 208 455 217 455 c 0x011408
340 545 m 0x015108
 350 545 359 538 359 527 c 0
 359 518 350 508 340 508 c 0
 331 508 321 518 321 527 c 0
 321 538 331 545 340 545 c 0x015108
202 80 m 0x411808
 211 80 219 71 219 61 c 0
 219 51 210 41 201 41 c 0
 191 41 183 51 183 61 c 0
 183 71 192 80 202 80 c 0x411808
132 170 m 0x111008
 141 170 149 163 149 152 c 0
 149 141 141 134 132 134 c 0
 121 134 114 141 114 152 c 0
 114 163 121 170 132 170 c 0x111008
470 91 m 0x211088
 480 91 486 81 487 71 c 0
 487 61 479 52 469 52 c 0
 460 52 452 61 452 71 c 0
 451 81 461 91 470 91 c 0x211088
574 183 m 0x091028
 585 183 592 175 591 164 c 1
 592 154 584 146 573 146 c 0
 564 146 557 154 556 164 c 1
 557 175 565 183 574 183 c 0x091028
648 449 m 0
 659 449 665 441 665 430 c 0
 665 419 658 412 647 412 c 0
 638 412 630 419 630 430 c 0
 630 441 639 449 648 449 c 0
582 539 m 0x019018
 592 539 601 530 601 519 c 0
 601 510 592 501 582 501 c 0
 573 501 565 510 565 519 c 0
 565 530 573 539 582 539 c 0x019018
645 313 m 0x051008
 655 313 664 306 664 295 c 0
 664 284 655 276 645 276 c 0
 636 276 627 284 627 295 c 0
 627 306 636 313 645 313 c 0x051008
137 319 m 0x031008
 148 319 156 312 155 301 c 0
 155 292 148 283 137 283 c 0
 127 283 119 292 119 301 c 0
 120 312 127 319 137 319 c 0x031008
333 41 m 0x811208
 343 41 350 34 350 23 c 0
 350 12 343 5 333 5 c 0
 324 5 315 12 315 23 c 0
 315 34 324 41 333 41 c 0x811208
481 581 m 0x013048
 492 581 498 571 498 562 c 0
 498 551 492 544 481 544 c 0
 473 544 464 551 464 562 c 0
 464 571 473 581 481 581 c 0x013048
EndSplineSet
EndChar

StartChar: uni0E47.high
Encoding: 63263 63263 189
Width: 0
Flags: W
HStem: 981 40<71.8466 123.426> 1049 50<-61.9664 -2.27707> 1078 36<71.8256 122.802> 1147 46<4.92282 149.176> 1157 43<-53.7695 88.3695>
VStem: -128 51<984.962 1133.47> 40 30<1042.21 1074.39> 125 34<1023.57 1075.4> 167 63<1210.2 1261>
AnchorPoint: "AboveMark" 73 1246 basemark 0
AnchorPoint: "AboveMark" -10 968 mark 0
LayerCount: 2
Back
SplineSet
12.2402 1196.83 m 0xcf80
 46.4932 1196.83 71.6113 1189.98 96.7305 1189.98 c 0
 135.551 1189.98 158.386 1204.44 169.042 1258.49 c 1
 226.13 1258.49 l 17
 207.101 1189.22 159.908 1150.4 83.0293 1150.4 c 0x9780
 38.8809 1150.4 21.374 1159.54 -5.2666 1159.54 c 0
 -66.9219 1159.54 -79.8623 1094.83 -79.8623 1071.24 c 0
 -79.8623 1064.39 -79.1006 1059.06 -77.5781 1056.02 c 1
 -77.5781 1056.02 -65.3994 1095.6 -22.0127 1095.6 c 0xcf80
 25.9414 1095.6 25.9414 1040.79 44.209 1036.99 c 1
 43.4482 1042.31 42.6875 1047.64 42.6875 1054.49 c 0
 42.6875 1092.55 69.3281 1110.82 96.7305 1110.82 c 0xa780
 126.416 1110.82 156.103 1090.27 156.103 1050.69 c 0
 156.103 1006.54 123.372 984.465 98.2529 984.465 c 0
 -20.4902 984.465 17.5684 1052.21 -30.3857 1052.21 c 0
 -60.0713 1052.21 -73.7725 1015.67 -73.7725 995.121 c 0
 -73.7725 990.555 -73.0117 986.748 -71.4893 984.465 c 1
 -101.175 984.465 l 1
 -114.876 1000.45 -124.771 1027.09 -124.771 1057.54 c 0
 -124.771 1081.13 -118.682 1107.78 -104.98 1134.42 c 0
 -88.9961 1164.1 -60.0713 1196.83 12.2402 1196.83 c 0xcf80
127.938 1049.17 m 0
 127.938 1070.48 111.954 1081.13 96.7305 1081.13 c 0xa780
 81.5068 1081.13 67.0449 1070.48 67.0449 1049.93 c 0
 67.0449 1027.85 81.5068 1017.96 96.7305 1017.96 c 0
 111.954 1017.96 127.938 1028.61 127.938 1049.17 c 0
EndSplineSet
Fore
SplineSet
-103 981 m 1xc780
 -118 998 -128 1026 -128 1058 c 0
 -128 1082 -122 1109 -108 1136 c 0
 -92 1166 -61 1200 12 1200 c 0xcf80
 47 1200 72 1193 97 1193 c 0
 136 1193 156 1207 167 1261 c 1
 230 1261 l 1
 210 1189 164 1147 83 1147 c 0x9780
 38 1147 21 1157 -5 1157 c 0
 -64 1157 -77 1094 -77 1071 c 2
 -77 1066 l 1
 -70 1079 -54 1099 -22 1099 c 0xcf80
 22 1099 30 1053 40 1042 c 1
 40 1054 l 2
 40 1094 68 1114 97 1114 c 0xa780
 128 1114 159 1092 159 1051 c 0
 159 1005 125 981 98 981 c 0
 -22 981 13 1049 -30 1049 c 0
 -57 1049 -71 1015 -71 995 c 0
 -71 987 -69 985 -66 981 c 1
 -103 981 l 1xc780
125 1049 m 0
 125 1068 111 1078 97 1078 c 0xa780
 83 1078 70 1069 70 1050 c 0
 70 1030 83 1021 97 1021 c 0
 111 1021 125 1030 125 1049 c 0
EndSplineSet
EndChar

StartChar: uni0E40
Encoding: 3648 3648 190
Width: 321
Flags: W
HStem: -6 41<177.914 251.116> 574 20G<252.433 334>
VStem: 118 52<41.2997 119.062> 258 37<42.8128 119.019>
DStem2: 91.1077 -6 167.023 -6 0.267238 0.96363<199.817 622.778>
LayerCount: 2
Fore
SplineSet
215 167 m 1
 254 164 295 132 295 80 c 0
 295 37 264 -6 207 -6 c 0
 139 -6 118 31 118 71 c 0
 118 84 120 97 123 109 c 2
 258 594 l 1
 334 594 l 1
 215 167 l 1
214 35 m 0
 244 35 258 58 258 80 c 0
 258 104 243 127 213 127 c 0
 184 127 170 104 170 82 c 0
 170 58 185 35 214 35 c 0
EndSplineSet
EndChar

StartChar: uni0E42
Encoding: 3650 3650 192
Width: 315
Flags: W
HStem: -4 39<202.684 274.077> 127 40<248 273.139> 827 76<445.101 520.925> 892 66<281.008 367.835>
VStem: 154 40<42.8835 117.85> 281 41<40.4328 121.014> 327 73<675.541 755.433>
DStem2: 126.494 -4 200.577 -4 0.267238 0.96363<197.252 753.78> 241 860 182 836 0.826227 -0.563337<0 147.938>
LayerCount: 2
Fore
SplineSet
573 919 m 0xee
 573 912 531 827 464 827 c 0xee
 412 827 365 892 302 892 c 0
 275 892 259 878 241 860 c 1
 373 770 l 2
 383 762 400 751 400 724 c 0
 400 716 398 706 394 694 c 2
 248 167 l 1
 266 167 322 146 322 84 c 0
 322 40 290 -4 235 -4 c 0
 190 -4 154 36 154 82 c 0
 154 90 155 98 157 106 c 2
 322 700 l 2
 324 707 327 715 327 723 c 0
 327 734 321 746 303 757 c 2
 182 836 l 1
 197 856 267 958 346 958 c 0xde
 397 958 465 903 519 903 c 0
 553 903 559 923 570 923 c 0
 572 923 573 921 573 919 c 0xee
239 35 m 0
 268 35 281 58 281 80 c 0
 281 104 267 127 238 127 c 0
 208 127 194 104 194 82 c 0
 194 58 209 35 239 35 c 0
EndSplineSet
EndChar

StartChar: uni0E43
Encoding: 3651 3651 193
Width: 345
Flags: W
HStem: -4 39<222.684 294.077> 127 40<268 293.139> 678 41<215.166 277.342> 793 37<219.43 278.044> 908 50<269.552 366.583>
VStem: 165 47<721.212 818.414> 174 40<42.8835 118.717> 282 37<724.407 789.301> 301 41<40.4328 121.014> 378 75<756.922 897.103>
DStem2: 146.494 -4 220.577 -4 0.267238 0.96363<197.252 880.455>
LayerCount: 2
Fore
SplineSet
165 762 m 0xfd40
 165 849 239 958 350 958 c 0
 420 958 453 917 453 859 c 0
 453 843 451 826 446 808 c 2
 268 167 l 1
 286 167 342 146 342 84 c 0
 342 40 310 -4 255 -4 c 0
 210 -4 174 36 174 82 c 0xfac0
 174 90 175 98 177 106 c 2
 373 811 l 2
 376 823 378 835 378 846 c 0
 378 881 361 906 326 908 c 1
 271 908 237 870 219 822 c 1
 229 828 239 830 248 830 c 0
 282 830 319 800 319 755 c 0
 319 716 292 678 246 678 c 0
 183 678 165 719 165 762 c 0xfd40
259 35 m 0
 288 35 301 58 301 80 c 0
 301 104 287 127 258 127 c 0
 228 127 214 104 214 82 c 0
 214 58 229 35 259 35 c 0
248 793 m 0
 224 793 212 777 212 756 c 0
 212 740 220 719 245 719 c 0
 269 719 282 738 282 757 c 0xfd40
 282 775 271 793 248 793 c 0
EndSplineSet
EndChar

StartChar: uni0E44
Encoding: 3652 3652 194
Width: 384
Flags: W
HStem: -4 39<268.684 340.077> 127 40<311 339.658> 654 37<245.204 297.99> 919 39<391.171 474>
VStem: 191 54<691.069 791.977> 220 40<42.8835 119.28> 246 62<906.787 961.9> 347 41<40.4328 120.19> 441 70<819.148 918.383>
DStem2: -9.66551 -4 46.217 -4 0.267238 0.96363<756.224 963.266> 101.728 -4 136.013 -4 0.267238 0.96363<720.787 967.573> 192.494 -4 263.578 -4 0.267238 0.96363<196.45 934.46>
LayerCount: 2
Fore
SplineSet
246 925 m 0xfb80
 246 951 215 964 215 977 c 0
 215 983 220 987 227 987 c 0
 230 987 233 984 237 983 c 2
 295 962 l 2
 301 960 308 949 308 943 c 0
 308 939 306 936 305 931 c 2
 247 720 l 2
 246 716 245 713 245 710 c 0xfb80
 245 698 253 691 266 691 c 0
 282 691 298 702 303 720 c 2
 343 866 l 2
 357 917 394 958 452 958 c 0
 496 958 511 932 511 901 c 0
 511 891 510 881 507 871 c 2
 311 167 l 1
 339 167 388 142 388 84 c 0
 388 40 356 -4 301 -4 c 0
 256 -4 220 36 220 82 c 0xf580
 220 90 221 98 223 106 c 2
 439 883 l 2
 440 888 441 893 441 897 c 0
 441 911 434 919 422 919 c 0
 402 919 387 900 382 883 c 2
 339 730 l 2
 328 688 298 654 249 654 c 0
 210 654 191 676 191 708 c 0
 191 716 192 725 195 734 c 2
 243 909 l 2
 245 914 246 919 246 925 c 0xfb80
305 35 m 0
 334 35 347 58 347 80 c 0
 347 104 333 127 304 127 c 0
 274 127 260 104 260 82 c 0xf580
 260 58 275 35 305 35 c 0
EndSplineSet
EndChar

StartChar: uni0E45
Encoding: 3653 3653 195
Width: 289
Flags: W
HStem: 555 44<109.49 234.366>
VStem: 248 81<414.844 541.486>
DStem2: 50 -240 127 -240 0.267238 0.96363<20.5774 756.829>
LayerCount: 2
Fore
SplineSet
50 -240 m 1
 243 456 l 2
 247 468 248 480 248 491 c 0
 248 529 226 555 181 555 c 0
 116 555 57 513 39 496 c 1
 50 539 l 1
 73 559 128 599 202 599 c 0
 284 599 329 570 329 508 c 0
 329 494 327 478 322 461 c 2
 127 -240 l 1
 50 -240 l 1
EndSplineSet
EndChar

StartChar: uni0E46
Encoding: 3654 3654 196
Width: 670
Flags: W
HStem: 262 33<384.499 451.091> 382 34<384.004 451.684> 578 20G<440.5 498 597.648 654>
VStem: 324 52<299.861 412.857> 460 32<304.164 372.883> 626 78<420 523.184>
DStem2: 425 -240 499 -240 0.267238 0.96363<19.7756 759.694>
LayerCount: 2
Fore
SplineSet
416 416 m 0
 460 416 492 381 492 340 c 0
 492 301 465 262 413 262 c 0
 345 262 324 298 324 346 c 0
 324 452 397 560 484 598 c 1
 533 528 l 1
 623 599 l 1
 685 598 704 563 704 521 c 0
 704 503 700 483 695 464 c 2
 499 -240 l 1
 425 -240 l 1
 621 464 l 2
 624 476 626 485 626 493 c 0
 626 511 617 520 602 524 c 1
 513 455 l 1
 463 524 l 1
 412 499 385 432 383 410 c 1
 383 410 398 416 416 416 c 0
417 295 m 0
 446 295 460 317 460 338 c 0
 460 360 446 382 417 382 c 0
 390 382 376 360 376 338 c 0
 376 317 390 295 417 295 c 0
EndSplineSet
EndChar

StartChar: uni0E47
Encoding: 3655 3655 197
Width: 0
Flags: W
HStem: 668 44<10.0828 79.174> 757 57<-162.949 -88.0295> 795 39<9.29385 77.3541> 886 52<-77.6337 105.972> 898 49<-149.908 31.8799>
VStem: -248 59<721.71 856.542> -28 32<737.281 787.434> 84 37<718.673 788.004> 138 75<974.139 1028>
AnchorPoint: "AboveMark" -1 968 basemark 0
AnchorPoint: "AboveBase" 54 645 mark 0
LayerCount: 2
Fore
SplineSet
-68 947 m 0xcf80
 -23 947 10 938 43 938 c 0
 94 938 124 957 138 1028 c 1
 213 1028 l 17
 188 937 126 886 25 886 c 0x9780
 -33 886 -56 898 -91 898 c 0
 -172 898 -189 813 -189 782 c 0
 -189 773 -188 766 -186 762 c 1
 -186 762 -170 814 -113 814 c 0xcf80
 -50 814 -50 742 -26 737 c 1
 -27 744 -28 751 -28 760 c 0
 -28 810 7 834 43 834 c 0xa780
 82 834 121 807 121 755 c 0
 121 697 78 668 45 668 c 0
 -111 668 -61 757 -124 757 c 0
 -163 757 -181 709 -181 682 c 0
 -181 676 -180 671 -178 668 c 1
 -217 668 l 1
 -235 689 -248 724 -248 764 c 0
 -248 795 -240 830 -222 865 c 0
 -201 904 -163 947 -68 947 c 0xcf80
84 753 m 0
 84 781 63 795 43 795 c 0xa780
 23 795 4 781 4 754 c 0
 4 725 23 712 43 712 c 0
 63 712 84 726 84 753 c 0
EndSplineSet
Substitution2: "Thai Mark High Variant" uni0E47.high
Substitution2: "Thai Phinthu Maitaikhu Reordering" uni0E3A
EndChar

StartChar: uni0E48
Encoding: 3656 3656 198
Width: 0
Flags: W
HStem: 1009 201<167 183>
VStem: 111 128
DStem2: 111 1009 183 1009 0.267238 0.96363<19.2412 208.655>
AnchorPoint: "AboveMark" 214 1246 basemark 0
AnchorPoint: "AboveMark" 135 968 mark 0
LayerCount: 2
Fore
SplineSet
239 1210 m 1
 183 1009 l 1
 111 1009 l 1
 167 1210 l 1
 239 1210 l 1
EndSplineSet
MultipleSubs2: "Thai Tone Nikhahit Attachment" uni0E4D uni0E48
Substitution2: "Thai Tone Low Variant" uni0E48.low
Substitution2: "Thai Sara U Mai Ek Reordering" uni0E38
Substitution2: "Thai Sara UU Mai Ek Reordering" uni0E39
Substitution2: "Thai Phinthu Mai Ek Reordering" uni0E3A
EndChar

StartChar: uni0E49
Encoding: 3657 3657 199
Width: 0
Flags: W
HStem: 1066 34<94.6833 123> 1184 36<93.1842 161.787>
VStem: 53 33<1108.52 1176.29> 168 36<1105.55 1177.91> 388 76<1171.73 1213>
AnchorPoint: "AboveMark" 276 1246 basemark 0
AnchorPoint: "AboveMark" 216 968 mark 0
LayerCount: 2
Fore
SplineSet
204 1144 m 0
 204 1080 123 1017 123 1017 c 1
 213 1025 348 1087 388 1213 c 1
 464 1213 l 17
 403 1060 246 973 98 973 c 0
 78 973 58 975 39 978 c 1
 48 1008 l 1
 58 1011 100 1032 123 1066 c 1
 89 1066 53 1093 53 1140 c 0
 53 1180 80 1220 131 1220 c 0
 169 1220 204 1188 204 1144 c 0
129 1100 m 0
 159 1100 168 1123 168 1145 c 0
 168 1165 153 1184 128 1184 c 0
 99 1184 86 1163 86 1143 c 0
 86 1121 100 1100 129 1100 c 0
EndSplineSet
MultipleSubs2: "Thai Tone Nikhahit Attachment" uni0E4D uni0E49
Substitution2: "Thai Tone Low Variant" uni0E49.low
Substitution2: "Thai Sara U Mai Tho Reordering" uni0E38
Substitution2: "Thai Sara UU Mai Tho Reordering" uni0E39
Substitution2: "Thai Phinthu Mai Tho Reordering" uni0E3A
EndChar

StartChar: uni0E4A
Encoding: 3658 3658 200
Width: 0
Flags: W
HStem: 988 30<89.2221 147.034> 1093 31<88.5067 147.258> 1172 54<109.852 152>
VStem: 31 51<1021.26 1116.94> 154 29<1024.92 1085.36> 280 52<1078.81 1171.4> 395 61<1163.47 1229>
AnchorPoint: "AboveMark" 225 1246 basemark 0
AnchorPoint: "AboveMark" 166 968 mark 0
LayerCount: 2
Fore
SplineSet
183 1058 m 0
 183 1033 169 988 115 988 c 0
 56 988 31 1019 31 1065 c 0
 31 1166 122 1226 167 1226 c 1
 167 1226 206 1180 207 1180 c 2
 270 1224 l 1
 317 1210 332 1181 332 1150 c 0
 332 1111 305 1067 293 1051 c 1
 357 1089 392 1157 395 1229 c 1
 456 1229 l 17
 426 1091 330 1009 209 992 c 1
 216 1017 l 1
 250 1036 280 1084 280 1128 c 0
 280 1150 273 1167 257 1172 c 1
 193 1134 l 1
 152 1172 l 1
 117 1172 86 1133 78 1109 c 1
 78 1109 91 1124 117 1124 c 0
 157 1124 183 1091 183 1058 c 0
154 1055 m 0
 154 1080 136 1093 118 1093 c 0
 100 1093 82 1080 82 1055 c 0
 82 1030 100 1018 118 1018 c 0
 136 1018 154 1030 154 1055 c 0
EndSplineSet
MultipleSubs2: "Thai Tone Nikhahit Attachment" uni0E4D uni0E4A
Substitution2: "Thai Tone Low Variant" uni0E4A.low
Substitution2: "Thai Sara U Mai Tri Reordering" uni0E38
Substitution2: "Thai Sara UU Mai Tri Reordering" uni0E39
Substitution2: "Thai Phinthu Mai Tri Reordering" uni0E3A
EndChar

StartChar: uni0E4B
Encoding: 3659 3659 201
Width: 0
Flags: W
HStem: 1081 57<48 134 209 291>
VStem: 32 275
DStem2: 111 992 165 992 0.267238 0.96363<14.4309 90.946 168.807 244.682>
AnchorPoint: "AboveMark" 209 1246 basemark 0
AnchorPoint: "AboveMark" 129 968 mark 0
LayerCount: 2
Fore
SplineSet
291 1081 m 1
 191 1080 l 1
 165 992 l 1
 111 992 l 1
 134 1080 l 1
 32 1081 l 1
 48 1138 l 1
 149 1140 l 1
 172 1229 l 1
 235 1229 l 1
 209 1140 l 1
 307 1138 l 1
 291 1081 l 1
EndSplineSet
MultipleSubs2: "Thai Tone Nikhahit Attachment" uni0E4D uni0E4B
Substitution2: "Thai Tone Low Variant" uni0E4B.low
Substitution2: "Thai Sara U Mai Chattawa Reordering" uni0E38
Substitution2: "Thai Sara UU Mai Chattawa Reordering" uni0E39
Substitution2: "Thai Phinthu Mai Chattawa Reordering" uni0E3A
EndChar

StartChar: uni0E4C
Encoding: 3660 3660 202
Width: 0
Flags: W
HStem: 902 29<77.0421 138.835>
VStem: 36 31<939.892 1005.87> 148 32<939.135 1005.5>
AnchorPoint: "AboveMark" 184 1246 basemark 0
AnchorPoint: "AboveMark" 84 891 mark 0
LayerCount: 2
Fore
SplineSet
361 1143 m 17
 300 1042 146 1040 146 1036 c 1
 169 1021 180 998 180 974 c 0
 180 938 153 902 105 902 c 0
 65 902 36 934 36 972 c 0
 36 1037 104 1069 179 1081 c 0
 205 1086 293 1118 311 1172 c 1
 361 1143 l 17
108 931 m 0
 134 931 148 951 148 972 c 0
 148 993 134 1014 107 1014 c 0
 80 1014 67 994 67 973 c 0
 67 952 81 931 108 931 c 0
EndSplineSet
MultipleSubs2: "Thai Tone Nikhahit Attachment" uni0E4D uni0E4C
Substitution2: "Thai Tone Low Variant" uni0E4C.low
Substitution2: "Thai Sara U Thanthakhat Reordering" uni0E38
Substitution2: "Thai Sara UU Thanthakhat Reordering" uni0E39
Substitution2: "Thai Phinthu Thanthakhat Reordering" uni0E3A
EndChar

StartChar: uni0E4D
Encoding: 3661 3661 203
Width: 0
Flags: W
HStem: 668 43<38.3064 114.891> 813 46<37.1237 115.09>
VStem: -14 42<721.087 803.128> 124 44<718.513 803.875>
AnchorPoint: "AboveMark" 134 968 basemark 0
AnchorPoint: "AboveBase" 111 645 mark 0
LayerCount: 2
Fore
SplineSet
77 668 m 0
 15 668 -14 715 -14 763 c 0
 -14 811 16 859 78 859 c 0
 138 859 167 812 168 764 c 0
 168 716 137 668 77 668 c 0
124 762 m 0
 124 791 102 813 77 813 c 0
 49 813 28 791 28 762 c 0
 28 734 50 711 78 711 c 0
 103 711 124 732 124 762 c 0
EndSplineSet
Substitution2: "Thai Phinthu Nikhahit Reordering" uni0E3A
Substitution2: "Thai Sara UU Nikhahit Reordering" uni0E39
Substitution2: "Thai Sara U Nikhahit Reordering" uni0E38
Substitution2: "Thai Mark High Variant" uni0E4D.high
EndChar

StartChar: uni0E4E
Encoding: 3662 3662 204
Width: 0
Flags: W
HStem: 792 47<40.8828 131.328> 889 45<225.114 337.767>
VStem: -51 69<677.265 766.494> 161 45<808.234 869.41>
AnchorPoint: "AboveMark" 201 968 basemark 0
AnchorPoint: "AboveBase" 78 645 mark 0
LayerCount: 2
Fore
SplineSet
272 889 m 0
 234 889 206 854 206 823 c 0
 206 817 208 815 208 810 c 0
 208 806 207 802 205 800 c 0
 195 789 160 762 144 762 c 0
 130 762 126 792 89 792 c 0
 54 792 18 759 18 720 c 0
 18 701 26 692 26 688 c 0
 26 686 25 684 22 682 c 0
 11 676 -27 651 -31 651 c 0
 -43 651 -51 683 -51 700 c 0
 -51 770 25 839 92 839 c 0
 118 839 142 829 161 806 c 1
 162 808 l 1
 161 813 161 818 161 823 c 0
 161 886 226 934 287 934 c 0
 335 934 363 902 363 899 c 0
 363 891 345 863 331 863 c 0
 327 863 306 889 272 889 c 0
EndSplineSet
Substitution2: "Thai Mark High Variant" uni0E4E.high
EndChar

StartChar: uni0E4F
Encoding: 3663 3663 205
Width: 702
Flags: W
HStem: -2 54<277.145 465.835> 164 43<374.516 455.831> 382 47<410.269 494.185> 539 55<402.612 588.577>
VStem: 92 98<138.021 323.044> 298 70<211.353 332.755> 500 67<258.273 377.068> 675 98<263.291 453.448>
LayerCount: 2
Fore
SplineSet
773 375 m 0
 773 166 555 -2 351 -2 c 0
 216 -2 92 73 92 216 c 0
 92 412 293 594 517 594 c 0
 648 594 773 519 773 375 c 0
366 52 m 0
 521 52 675 211 675 363 c 0
 675 465 606 539 501 539 c 0
 346 539 190 386 190 228 c 0
 190 127 258 52 366 52 c 0
567 335 m 0
 567 246 481 164 397 164 c 0
 337 164 298 200 298 256 c 0
 298 337 372 429 471 429 c 0
 526 429 567 393 567 335 c 0
409 207 m 0
 464 207 500 285 500 334 c 0
 500 361 488 382 458 382 c 0
 402 382 368 307 368 257 c 0
 368 229 379 207 409 207 c 0
EndSplineSet
EndChar

StartChar: uni0E50
Encoding: 3664 3664 206
Width: 615
Flags: W
HStem: -8 45<241.827 402.818> 430 45<336.475 501.538>
VStem: 105 77<97.71 265.889> 557 77<198.075 371.188>
LayerCount: 2
Fore
SplineSet
634 298 m 0
 634 142 479 -8 306 -8 c 0
 186 -8 105 60 105 166 c 0
 105 325 263 475 440 475 c 0
 555 475 634 404 634 298 c 0
318 37 m 0
 436 37 557 165 557 291 c 0
 557 369 511 430 427 430 c 0
 292 430 182 291 182 176 c 0
 182 97 234 37 318 37 c 0
EndSplineSet
EndChar

StartChar: uni0E51
Encoding: 3665 3665 207
Width: 615
Flags: W
HStem: -29 15<359.933 361.38> -6 48<209.013 326.718> 94 47<307.246 358.643> 224 46<307.03 375.908> 430 45<336.437 502.981>
VStem: 100 76<75.8907 257.018> 258 44<145.319 219.845> 381 56<145.27 219.538> 565 75<196.357 369.873>
LayerCount: 2
Fore
SplineSet
100 147 m 0
 100 322 253 475 436 475 c 0
 549 475 640 410 640 298 c 0
 640 183 542 11 373 -29 c 1
 345 -14 l 1
 524 46 565 242 565 293 c 0
 565 378 506 430 423 430 c 0
 281 430 176 283 176 152 c 0
 176 76 220 42 266 42 c 0
 301 42 338 61 359 97 c 1
 359 97 355 94 344 94 c 0
 269 94 258 157 258 184 c 0
 258 228 291 270 343 270 c 0
 400 270 437 230 437 180 c 0
 437 113 362 -6 240 -6 c 0
 166 -6 100 44 100 147 c 0
381 183 m 0
 381 210 361 224 341 224 c 0
 322 224 302 210 302 183 c 0
 302 155 322 141 341 141 c 0
 361 141 381 155 381 183 c 0
EndSplineSet
EndChar

StartChar: uni0E52
Encoding: 3666 3666 208
Width: 615
Flags: W
HStem: 0 45<158.166 502.403> 82 44<285.874 356.868> 209 44<301.097 355.547> 412 60<358.873 415.997 534.597 617.5>
VStem: 75 73<53.8342 178.25> 218 64<544.359 679.11> 225 56<130.315 230.333> 361 42<130.739 203.538> 427 37<364 403.138> 592 68<242.476 410.917>
DStem2: 46.0571 0 116.612 0 0.267238 0.96363<123.004 660.83>
LayerCount: 2
Fore
SplineSet
398 472 m 0xfbc0
 448 472 464 423 464 385 c 0
 464 378 463 370 462 364 c 1
 467 364 l 1
 483 401 532 472 593 472 c 0
 642 472 660 431 660 373 c 0
 660 292 618 159 595 104 c 1
 568 46 544 0 450 0 c 2
 185 0 l 2
 108 0 75 34 75 85 c 0
 75 98 77 111 81 126 c 2
 199 551 l 2
 215 609 218 638 218 652 c 0
 218 661 217 664 217 664 c 1
 218 687 228 694 238 694 c 0
 244 694 252 691 256 687 c 1
 256 687 279 643 279 641 c 0
 279 640 282 635 282 621 c 0xfdc0
 282 607 279 586 270 551 c 2
 151 124 l 2
 149 115 148 107 148 99 c 0
 148 64 170 45 201 45 c 2
 455 45 l 2
 517 45 532 108 568 233 c 0
 581 281 592 329 592 363 c 0
 592 404 575 412 564 412 c 0
 535 412 492 348 477 312 c 1
 468 293 453 282 442 282 c 0
 432 282 425 289 425 305 c 0
 425 313 427 316 427 332 c 0
 427 369 416 412 392 412 c 0
 374 412 326 380 301 249 c 1
 301 249 311 253 325 253 c 0
 359 253 403 225 403 168 c 0
 403 125 375 82 321 82 c 0
 253 82 225 105 225 165 c 0
 225 267 288 472 398 472 c 0xfbc0
361 166 m 0
 361 194 341 209 321 209 c 0
 301 209 281 194 281 166 c 0xfbc0
 281 139 301 126 321 126 c 0
 341 126 361 139 361 166 c 0
EndSplineSet
EndChar

StartChar: uni0E53
Encoding: 3667 3667 209
Width: 615
Flags: W
HStem: -8 42<170.089 239.677> 118 45<170.13 240.031> 412 61<264.547 351.527 484.256 565.748>
VStem: 95 70<38.1268 176.855> 245 41<39.5993 112.724> 368 44<370 398.025> 578 76<228.864 402.631>
LayerCount: 2
Fore
SplineSet
470 7 m 0
 470 23 578 211 578 337 c 0
 578 387 560 412 529 412 c 0
 501 412 433 376 391 197 c 0
 386 179 371 170 360 170 c 0
 350 170 343 176 343 188 c 0
 343 190 343 194 344 197 c 2
 355 237 l 2
 364 269 368 297 368 322 c 0
 368 377 348 412 316 412 c 0
 287 412 200 384 170 152 c 1
 170 152 186 163 208 163 c 0
 239 163 286 134 286 77 c 0
 286 26 250 -8 202 -8 c 0
 108 -8 95 42 95 110 c 0
 95 265 177 473 331 473 c 0
 408 473 412 370 412 370 c 1
 414 370 l 1
 459 450 505 473 552 473 c 0
 623 473 654 426 654 352 c 0
 654 216 549 28 539 11 c 1
 495 0 l 2
 490 -1 485 -2 481 -2 c 0
 475 -2 470 0 470 7 c 0
245 75 m 0
 245 104 225 118 205 118 c 0
 185 118 165 104 165 75 c 0
 165 48 185 34 205 34 c 0
 225 34 245 48 245 75 c 0
EndSplineSet
EndChar

StartChar: uni0E54
Encoding: 3668 3668 210
Width: 615
Flags: W
HStem: -5 49<221.27 369.992> 3 45<265.546 389.984 450.959 575.483> 169 45<386.83 457.407> 298 47<387.946 459.248> 424 48<323.421 564.705>
VStem: 107 76<81.3038 264.348> 304 57<126.638 194.725> 463 41<219.979 293.023> 699 68<630.083 674.688>
LayerCount: 2
Fore
SplineSet
463 258 m 0x3f80
 463 285 443 298 423 298 c 0
 403 298 383 284 382 257 c 1
 382 228 402 214 422 214 c 0
 442 214 462 229 463 258 c 0x3f80
304 185 m 0
 304 245 339 345 426 345 c 0
 472 345 504 309 504 252 c 0
 504 198 464 169 425 169 c 0
 404 169 382 178 369 196 c 1
 364 191 361 184 361 176 c 0
 361 129 444 46 536 46 c 2
 548 46 l 2
 554 46 571 49 577 49 c 0
 584 49 586 46 586 43 c 0
 586 39 585 34 555 0 c 1
 445 0 390 3 372 3 c 0x7f80
 329 3 297 -5 264 -5 c 0
 178 -5 107 53 107 161 c 0
 107 319 234 472 409 472 c 0
 446 472 453 468 480 468 c 0
 570 468 657 536 699 690 c 1
 760 670 l 2
 764 669 767 666 767 660 c 0
 767 642 690 421 473 421 c 0
 456 421 426 424 408 424 c 0
 265 424 183 275 183 159 c 0
 183 93 213 44 293 44 c 0xbf80
 318 44 328 48 347 48 c 0x7f80
 368 48 390 45 390 45 c 1
 346 65 304 115 304 185 c 0
EndSplineSet
EndChar

StartChar: uni0E55
Encoding: 3669 3669 211
Width: 615
Flags: W
HStem: -5 49<221.27 369.992> 3 45<265.546 391.983 450.959 575.483> 169 45<386.83 457.233> 298 47<387.946 457.955> 421 46<415.219 509.196> 566 44<423.752 512.493>
VStem: 107 76<81.3038 266.035> 304 57<126.79 195.031> 369 42<468.88 553.084> 462 42<219.735 293.231> 524 45<491.364 553.603> 697 70<624.559 674.688>
LayerCount: 2
Fore
SplineSet
462 258 m 0x3ff0
 462 285 443 298 423 298 c 0
 403 298 383 284 382 257 c 1
 382 228 402 214 422 214 c 0
 442 214 462 229 462 258 c 0x3ff0
304 186 m 0
 304 243 339 345 426 345 c 0
 472 345 504 309 504 252 c 0
 504 198 464 169 425 169 c 0
 404 169 382 178 369 196 c 1
 364 191 361 184 361 176 c 0
 361 129 444 46 536 46 c 2
 548 46 l 2
 554 46 571 49 577 49 c 0
 584 49 586 46 586 43 c 0
 586 39 585 34 555 0 c 1
 445 0 390 3 372 3 c 0x7ff0
 329 3 297 -5 264 -5 c 0
 178 -5 107 53 107 161 c 0
 107 302 211 452 380 469 c 1
 372 479 369 491 369 505 c 0
 369 579 428 610 472 610 c 0
 527 610 569 564 569 505 c 0
 569 497 569 499 568 491 c 1
 602 515 663 553 697 690 c 1
 760 670 l 2
 764 669 767 666 767 660 c 0
 767 634 679 423 480 421 c 0
 461 421 425 422 407 422 c 0
 263 422 183 275 183 159 c 0
 183 93 213 44 293 44 c 0xbff0
 318 44 328 48 347 48 c 0x7ff0
 368 48 392 43 392 43 c 1
 348 63 304 116 304 186 c 0
466 566 m 0
 432 565 411 539 411 505 c 0
 411 491 423 474 431 468 c 1
 435 468 441 467 447 467 c 0
 466 467 493 470 510 474 c 1
 521 482 524 499 524 509 c 0
 524 546 495 566 466 566 c 0
EndSplineSet
EndChar

StartChar: uni0E56
Encoding: 3670 3670 212
Width: 615
Flags: W
HStem: -8 45<218.717 396.204> 104 45<201.988 271.838> 233 47<201.758 272.906> 430 45<302.359 490.526>
VStem: 113 66<72.9635 167.685> 239 91<577.884 691> 255 75<477.559 684.496> 277 42<155.011 228.293> 552 77<198.141 370.065>
LayerCount: 2
Fore
SplineSet
255 575 m 0xfa80
 255 637 239 668 239 679 c 0
 239 684 241 691 250 691 c 2
 324 691 l 1
 327 681 330 659 330 631 c 0xfc80
 330 585 323 521 301 453 c 1
 332 468 383 475 424 475 c 0
 548 475 629 410 629 302 c 0
 629 183 533 -8 294 -8 c 0
 162 -8 113 58 113 127 c 0
 113 202 171 280 240 280 c 0
 284 280 319 238 319 190 c 0xf980
 319 136 284 104 232 104 c 0
 204 104 180 134 180 134 c 1
 179 129 179 125 179 120 c 0
 179 67 242 37 306 37 c 0
 443 37 552 168 552 291 c 0
 552 376 494 430 411 430 c 0
 322 430 263 391 252 391 c 0
 241 391 229 397 229 415 c 0
 229 429 255 498 255 575 c 0xfa80
277 192 m 0xf980
 277 220 257 233 237 233 c 0
 217 233 197 220 197 192 c 0
 197 164 217 149 237 149 c 0
 257 149 277 164 277 192 c 0xf980
EndSplineSet
EndChar

StartChar: uni0E57
Encoding: 3671 3671 213
Width: 615
Flags: W
HStem: -9 43<150.204 220.627> 118 45<150.568 220.542> 418 54<238.65 312.409 432.828 502.511>
VStem: 78 68<38.2756 180.293> 225 42<38.741 113.439> 324 35<362 404.502> 510 62<252.914 413.317> 673 74<466.747 644.209>
LayerCount: 2
Fore
SplineSet
735 699 m 0
 742 699 747 689 747 643 c 0
 747 373 568 -5 411 -5 c 0
 399 -5 386 -2 386 10 c 0
 386 30 510 232 510 356 c 0
 510 401 492 418 474 418 c 0
 434 418 397 366 377 326 c 1
 360 286 355 248 328 248 c 0
 319 248 312 254 312 268 c 0
 312 278 324 308 324 343 c 0
 324 381 311 418 280 418 c 0
 254 418 180 383 150 153 c 1
 150 153 160 163 189 163 c 0
 231 163 267 126 267 78 c 0
 267 26 232 -9 183 -9 c 0
 96 -9 79 38 78 94 c 1
 82 316 181 472 298 472 c 0
 332 472 359 437 359 385 c 0
 359 377 358 370 357 362 c 1
 362 362 l 1
 388 426 448 472 488 472 c 0
 514 472 572 458 572 365 c 0
 572 269 512 145 454 52 c 1
 454 52 492 68 519 109 c 1
 588 208 673 390 673 577 c 0
 673 599 672 620 669 641 c 1
 716 687 l 2
 723 694 729 699 735 699 c 0
225 75 m 0
 225 104 206 118 186 118 c 0
 166 118 146 104 146 75 c 0
 146 48 165 34 185 34 c 0
 205 34 225 48 225 75 c 0
EndSplineSet
EndChar

StartChar: uni0E58
Encoding: 3672 3672 214
Width: 615
Flags: W
HStem: -3 51<383.472 486.582> 160 46<510.447 546.028> 289 47<509.884 578.943> 424 49<313.248 555.775>
VStem: 93 75<77.9605 263.221> 310 52<69.9394 151.238> 459 46<210.742 285.029> 584 54<210.18 284.602> 685 70<628.087 672.469>
LayerCount: 2
Fore
SplineSet
407 424 m 0
 238 424 168 260 168 153 c 0
 168 113 179 81 205 61 c 1
 205 61 257 192 334 220 c 1
 373 214 l 1
 365 186 362 161 362 140 c 0
 362 77 393 48 430 48 c 0
 473 48 524 87 547 160 c 1
 488 160 459 200 459 246 c 0
 459 310 503 336 551 336 c 0
 617 336 638 273 638 246 c 0
 638 201 565 -3 433 -3 c 0
 386 -3 310 4 310 110 c 0
 310 123 311 137 313 152 c 1
 285 134 243 48 222 -6 c 1
 164 -6 93 50 93 157 c 0
 93 308 213 473 393 473 c 0
 421 473 455 468 477 468 c 0
 559 468 647 542 685 690 c 1
 746 668 l 2
 751 667 755 664 755 658 c 0
 755 626 653 421 480 421 c 0
 453 421 430 424 407 424 c 0
584 247 m 0
 584 272 566 289 544 289 c 0
 521 289 505 272 505 247 c 1
 506 223 522 206 545 206 c 0
 567 206 584 223 584 247 c 0
EndSplineSet
EndChar

StartChar: uni0E59
Encoding: 3673 3673 215
Width: 615
Flags: W
HStem: -9 41<216.08 282.174> 115 45<214.85 283.318> 346 60<563.587 630.115> 412 53<236.523 337.953 453.966 519.097>
VStem: 106 76<135.797 306.146> 289 42<37.5587 108.948> 713 77<572.745 668.672>
LayerCount: 2
Fore
SplineSet
289 74 m 1
 288 97 269 115 249 115 c 0
 227 115 210 97 210 74 c 0
 210 51 228 32 250 32 c 0
 270 32 288 51 289 74 c 1
291 412 m 0
 209 412 182 302 182 226 c 0
 182 192 188 159 198 135 c 1
 198 135 216 160 252 160 c 0
 297 160 331 120 331 74 c 0
 331 27 293 -9 248 -9 c 0
 179 -9 157 11 135 51 c 1
 116 89 106 136 106 185 c 0
 106 324 186 465 312 465 c 0
 348 465 388 452 416 407 c 1
 425 439 466 467 498 467 c 0
 570 467 553 406 595 406 c 0
 641 406 690 501 713 687 c 1
 783 664 l 1
 788 664 790 662 790 658 c 1
 790 658 734 346 582 346 c 0
 517 346 527 413 492 413 c 0
 464 413 449 392 445 362 c 1
 473 320 520 52 520 31 c 0
 520 7 499 -8 479 -8 c 0
 431 -8 453 44 393 275 c 1
 368 363 336 412 291 412 c 0
EndSplineSet
EndChar

StartChar: uni0E5A
Encoding: 3674 3674 216
Width: 697
Flags: W
HStem: 0 21G<331 410.55 514 593.55> 412 50<219.511 402.248> 556 40<219.228 291.101>
VStem: 163 49<471.179 550.417> 299 39<471.33 548.555>
DStem2: 331 0 405 0 0.267238 0.96363<19.7756 482.562 529.712 613.333> 514 0 588 0 0.267238 0.96363<19.7756 613.333>
LayerCount: 2
Fore
SplineSet
256 596 m 0
 295 596 338 564 338 515 c 0
 338 484 322 462 322 462 c 1
 325 462 l 2
 449 462 489 571 495 591 c 1
 569 591 l 1
 405 0 l 1
 331 0 l 1
 460 465 l 1
 406 426 344 412 293 412 c 0
 225 412 163 429 163 498 c 0
 163 546 200 596 256 596 c 0
256 465 m 0
 285 465 299 487 299 510 c 0
 299 533 284 556 255 556 c 0
 226 556 212 534 212 511 c 0
 212 488 226 465 256 465 c 0
678 591 m 1
 752 591 l 1
 588 0 l 1
 514 0 l 1
 678 591 l 1
EndSplineSet
EndChar

StartChar: uni0E5B
Encoding: 3675 3675 217
Width: 1405
Flags: W
HStem: 48 40<299.937 453.92> 157 41<982 1002.37> 191 33<1140 1162.47> 210 42<380.83 472.272> 279 27<379.169 418.555 1287 1320.45> 332 29<1346.49 1474> 346 30<1239.49 1268.79> 401 27<380.814 417.479> 435 44<1124 1136.5> 473 51<962 977.336> 574 47<390.57 524.352>
VStem: 136 88<165.576 366.888> 313 59<282.744 391.305> 425 50<306.764 400.439> 557 70<370.47 541.382> 707 49<426.192 530> 780 68<274.8 502.285> 988 55<287.766 471.384> 1144 50<283.274 434.277> 1269 30<307.931 345.939>
LayerCount: 2
Fore
SplineSet
1299 344 m 0xabbff0
 1299 332 1296 330 1296 321 c 0
 1296 312 1300 307 1305 307 c 0
 1311 307 1320 315 1326 329 c 0
 1339 357 1351 361 1370 361 c 2
 1385 361 l 1
 1480 358 l 1
 1474 335 l 1
 1376 332 l 2x8d3ff0
 1360 332 1353 330 1345 315 c 0
 1333 289 1312 275 1295 275 c 0
 1279 275 1267 286 1267 309 c 0
 1267 317 1269 324 1269 330 c 0
 1269 341 1263 346 1257 346 c 0
 1249 346 1239 337 1238 326 c 0
 1237 234 1148 191 1113 191 c 0
 1107 191 1099 193 1099 199 c 0
 1099 202 1144 284 1144 362 c 0
 1144 389 1139 414 1127 435 c 1
 1124 435 l 1xabbff0
 1126 428 1127 419 1127 410 c 0
 1127 340 1080 212 990 170 c 1
 990 170 968 157 948 157 c 0
 942 157 940 160 940 163 c 0
 940 168 988 270 988 382 c 0
 988 422 981 455 965 473 c 1
 962 473 l 1
 964 464 964 454 964 442 c 0
 964 348 908 180 772 123 c 1
 748 115 l 2
 747 115 745 114 744 114 c 0
 737 114 731 120 731 126 c 0
 731 128 780 251 780 394 c 0
 780 445 773 494 754 530 c 1
 751 530 l 1
 755 514 756 495 756 475 c 0
 756 235 560 48 358 48 c 0
 230 48 136 129 136 256 c 0
 136 403 265 621 462 621 c 0
 530 621 627 592 627 475 c 0
 627 328 510 210 410 210 c 0
 349 210 313 245 313 307 c 0
 313 350 329 428 400 428 c 0
 442 428 475 392 475 349 c 0
 475 294 432 279 407 279 c 0
 403 279 399 279 396 280 c 2
 379 284 l 1
 380 264 390 252 423 252 c 0
 491 252 557 368 557 469 c 0
 557 553 504 574 462 574 c 0
 341 574 224 396 224 260 c 0
 224 162 281 88 368 88 c 0
 566 88 707 374 707 557 c 2
 707 561 l 2
 707 581 724 589 738 589 c 0
 760 589 848 531 848 400 c 0
 848 328 822 246 781 167 c 1
 786 167 l 1
 850 215 919 381 930 504 c 1
 930 504 931 524 948 524 c 0
 965 524 984 509 985 508 c 0
 1028 484 1043 444 1043 398 c 0
 1043 329 1009 250 982 198 c 1
 985 198 l 1xd97ff0
 1043 249 1087 393 1099 464 c 1
 1099 464 1099 479 1114 479 c 0
 1129 479 1141 466 1143 465 c 0
 1179 443 1194 410 1194 372 c 0
 1194 326 1173 274 1140 224 c 1
 1143 224 l 1
 1169 237 1196 283 1211 329 c 0
 1221 361 1246 376 1267 376 c 0
 1284 376 1299 365 1299 344 c 0xabbff0
425 349 m 0
 425 369 421 401 399 401 c 0
 379 401 372 372 372 349 c 0
 372 326 380 306 398 306 c 0
 416 306 425 324 425 349 c 0
EndSplineSet
EndChar

StartChar: uni0E38.low
Encoding: 63256 63256 218
Width: 0
Flags: W
HStem: -378 31<-287.591 -252.893> -275 29<-287.436 -232.725>
VStem: -326 32<-342.126 -280.166> -226 57<-344.083 -277.62>
DStem2: -285 -494 -216 -494 0.267238 0.96363<18.4394 122.527>
LayerCount: 2
Fore
SplineSet
-326 -312 m 0
 -326 -285 -311 -246 -249 -246 c 0
 -204 -246 -169 -268 -169 -314 c 0
 -169 -319 -169 -323 -170 -328 c 2
 -216 -494 l 1
 -285 -494 l 1
 -252 -376 l 1
 -254 -376 -260 -378 -267 -378 c 0
 -291 -378 -326 -355 -326 -312 c 0
-261 -347 m 0
 -238 -347 -226 -329 -226 -311 c 0
 -226 -293 -238 -275 -261 -275 c 0
 -283 -275 -294 -293 -294 -311 c 0
 -294 -329 -283 -347 -261 -347 c 0
EndSplineSet
EndChar

StartChar: uni0E39.low
Encoding: 63257 63257 219
Width: 0
Flags: W
HStem: -493 29<-323.843 -275.854> -367 26<-382.505 -344.599> -273 27<-383.561 -332.261>
VStem: -415 24<-332.323 -281.117> -362 37<-463.319 -376.055> -325 37<-336.582 -276.452>
DStem2: -378.967 -493 -338.917 -493 0.267238 0.96363<61.8209 131.726> -281.917 -493 -215.295 -493 0.267238 0.96363<37.4234 252.312>
LayerCount: 2
Fore
SplineSet
-360 -367 m 0xf8
 -382 -367 -415 -345 -415 -306 c 0
 -415 -276 -395 -246 -356 -246 c 0
 -314 -246 -288 -267 -288 -300 c 0xf4
 -288 -307 -289 -315 -292 -323 c 2
 -322 -432 l 2
 -324 -436 -325 -440 -325 -444 c 0
 -325 -455 -316 -464 -302 -464 c 0
 -284 -464 -272 -449 -265 -432 c 1
 -214 -250 l 1
 -148 -250 l 1
 -192 -409 l 1
 -210 -455 -244 -493 -295 -493 c 0
 -338 -493 -362 -473 -362 -442 c 0
 -362 -435 -361 -428 -359 -421 c 2
 -344 -366 l 1
 -351 -366 -355 -367 -360 -367 c 0xf8
-325 -307 m 0
 -326 -287 -340 -273 -358 -273 c 0
 -375 -273 -391 -287 -391 -307 c 0
 -391 -324 -376 -341 -359 -341 c 0
 -341 -341 -325 -324 -325 -307 c 0
EndSplineSet
EndChar

StartChar: uni0E3A.low
Encoding: 63258 63258 220
Width: 0
Flags: W
HStem: -318 85<-229.917 -160.729>
VStem: -235 79<-313.291 -237.226>
LayerCount: 2
Fore
SplineSet
-194 -318 m 0
 -221 -318 -235 -296 -235 -275 c 0
 -235 -254 -222 -233 -195 -233 c 0
 -169 -233 -156 -255 -156 -276 c 0
 -155 -297 -168 -318 -194 -318 c 0
EndSplineSet
EndChar

StartChar: multiply
Encoding: 215 215 221
Width: 590
Flags: W
DStem2: 119 117 151 69 0.775265 0.631637<0 264.042 344.204 607.184> 271 502 214 456 0.55962 -0.82875<6.22416 204.975 269.156 467.346>
LayerCount: 2
Fore
SplineSet
533 115 m 1
 476 68 l 1
 361 238 l 1
 151 69 l 1
 119 117 l 1
 328 286 l 1
 214 456 l 1
 271 502 l 1
 387 333 l 1
 595 502 l 1
 626 456 l 1
 419 286 l 1
 533 115 l 1
EndSplineSet
EndChar

StartChar: divide
Encoding: 247 247 222
Width: 520
Flags: W
HStem: 14 104<248 311.384> 224 57<109 553> 387 106<351.625 414.981>
VStem: 227 104<33.113 96.875> 331 105<407.649 472.329>
LayerCount: 2
Fore
SplineSet
436 456 m 0xe8
 436 419 401 387 367 387 c 0
 345 387 331 405 331 426 c 0
 331 458 364 493 397 493 c 0
 421 493 436 479 436 456 c 0xe8
553 224 m 1
 93 224 l 1
 109 281 l 1
 569 281 l 1
 553 224 l 1
331 81 m 0xf0
 331 51 304 14 264 14 c 0
 242 14 227 30 227 51 c 0
 227 84 261 118 293 118 c 0
 317 118 331 103 331 81 c 0xf0
EndSplineSet
EndChar

StartChar: registered
Encoding: 174 174 223
Width: 700
Flags: W
HStem: -11 42<271.432 456.479> 154 13<257 293.543 361.016 388 545.954 559> 315 20<401 447.25> 492 13<353 380.921 447.942 511.521> 611 42<426.915 612.225>
VStem: 119 46<139.607 343.739> 539 58<385.871 483.327> 718 46<298.571 500.764>
DStem2: 248.316 -11 305.039 -11 0.267238 0.96363<213.815 353.343 374.219 508.686>
LayerCount: 2
Fore
SplineSet
764 416 m 0
 764 205 555 -11 350 -11 c 0
 209 -11 119 88 119 225 c 0
 119 439 325 653 534 653 c 0
 674 653 764 552 764 416 c 0
362 31 m 0
 532 31 718 218 718 401 c 0
 718 519 641 611 522 611 c 0
 353 611 165 428 165 239 c 0
 165 120 243 31 362 31 c 0
559 154 m 1
 500 154 l 2
 474 154 472 194 466 230 c 1
 450 303 464 315 403 315 c 2
 395 315 l 1
 363 198 l 2
 361 190 359 184 359 180 c 0
 359 172 364 169 380 169 c 1
 391 167 l 1
 388 154 l 1
 254 154 l 1
 257 167 l 1
 265 167 l 1
 290 169 298 169 306 197 c 2
 379 462 l 2
 381 470 382 476 382 480 c 0
 382 490 376 492 357 492 c 2
 349 492 l 1
 353 505 l 1
 503 505 l 2
 565 505 597 489 597 449 c 0
 597 401 557 340 482 329 c 1
 481 323 l 1
 515 315 519 273 526 241 c 0
 533 206 531 169 562 167 c 1
 559 154 l 1
419 332 m 1
 530 332 539 425 539 444 c 0
 539 476 517 492 478 492 c 1
 459 490 l 1
 442 490 438 467 433 452 c 2
 401 335 l 1
 419 332 l 1
EndSplineSet
EndChar

StartChar: fi
Encoding: 64257 64257 224
Width: 499
Flags: W
HStem: -207 24<-74.1386 -21.1128> -7 44<328 400.212> 395 33<53 132 215 379.922> 417 20G<462.5 470> 659 22<327.887 410.128>
VStem: -141 66<-182.544 -126.368> 294 77<18.4737 134.451> 412 68<591.736 655.79>
DStem2: 64 86 138 76 0.214208 0.976788<-177.784 316.394 366.407 489.937>
LayerCount: 2
Fore
SplineSet
132 395 m 1xef
 45 395 l 1
 53 428 l 1
 139 428 l 1
 170 530 190 571 231 618 c 0
 267 658 322 681 378 681 c 0
 438 681 480 652 480 611 c 0
 480 586 464 568 439 568 c 0
 415 568 398 586 398 611 c 0
 398 621 400 627 406 634 c 0
 410 639 412 640 412 643 c 0
 412 653 398 659 376 659 c 0
 335 659 306 642 281 603 c 0
 261 573 246 533 215 428 c 1
 366 428 l 2xef
 393 428 420 431 447 434 c 0
 457 435 461 437 464 437 c 1xdf
 470 434 l 1
 470 429 468 415 463 401 c 1
 454 363 450 349 442 322 c 0
 403 179 371 54 371 47 c 0
 371 42 375 37 381 37 c 0
 393 37 419 59 447 91 c 0
 450 94 454 100 458 105 c 1
 475 97 l 1
 419 21 382 -7 343 -7 c 0
 313 -7 294 12 294 41 c 0
 294 64 313 142 357 294 c 1
 376 366 381 382 381 387 c 0
 381 393 376 395 365 395 c 2
 209 395 l 1
 138 76 l 2
 97 -108 26 -207 -63 -207 c 0
 -108 -207 -141 -182 -141 -145 c 0
 -141 -123 -125 -105 -104 -105 c 0
 -83 -105 -64 -122 -64 -144 c 0
 -64 -148 -66 -152 -70 -160 c 0
 -73 -164 -75 -167 -75 -170 c 0
 -75 -179 -69 -183 -54 -183 c 0
 -29 -183 -12 -170 6 -138 c 0
 23 -107 35 -63 64 86 c 1
 104 280 126 381 132 395 c 1xef
EndSplineSet
LCarets2: 1 0 
Ligature2: "'liga' Standard Ligatures in Latin lookup 2 subtable" f i
EndChar

StartChar: fl
Encoding: 64258 64258 225
Width: 499
Flags: W
HStem: -204 25<-74.1469 -19.0003> -9 46<328 401.447> 395 33<47 130 215 375> 661 22<334.154 414.388>
VStem: -141 66<-178.437 -122.803> 294 77<37.0029 86.0878>
DStem2: 375 395 371 57 0.233971 0.972244<-239.595 0 33.7218 186.505>
LayerCount: 2
Fore
SplineSet
294 41 m 0
 294 100 364 333 375 395 c 1
 209 395 l 1
 141 86 l 1
 98 -103 26 -204 -63 -204 c 0
 -108 -204 -141 -179 -141 -142 c 0
 -141 -120 -125 -103 -105 -103 c 0
 -83 -103 -64 -119 -64 -139 c 0
 -64 -152 -75 -161 -75 -166 c 0
 -75 -174 -67 -179 -53 -179 c 0
 -14 -179 1 -141 12 -125 c 1
 60 7 95 237 130 395 c 1
 41 395 l 1
 47 428 l 1
 138 428 l 1
 168 527 189 568 231 615 c 1
 271 658 327 683 382 683 c 0
 425 683 451 671 475 671 c 0
 485 671 507 683 513 683 c 0
 516 683 519 678 519 672 c 1
 371 57 l 1
 371 47 l 2
 371 41 375 37 381 37 c 0
 395 37 415 53 458 105 c 1
 475 97 l 1
 416 15 385 -9 343 -9 c 0
 313 -9 294 12 294 41 c 0
410 608 m 0
 410 620 422 633 422 639 c 0
 422 649 401 661 379 661 c 0
 308 661 256 595 221 448 c 1
 215 428 l 1
 382 428 l 1
 419 573 l 1
 420 576 l 1
 420 586 410 595 410 608 c 0
EndSplineSet
LCarets2: 1 0 
Ligature2: "'liga' Standard Ligatures in Latin lookup 2 subtable" f l
EndChar

StartChar: ff
Encoding: 64256 64256 226
Width: 553
Flags: W
HStem: -207 21<-72.8535 -25.077 175.042 222.615> 395 33<48 130 215 378 464 567> 637 22<323.384 393.981> 656 22<552.55 607.657>
VStem: -141 66<-185.463 -126.449> 107 66<-185.463 -126.449> 608 69<594.807 655.909>
DStem2: 42 -23 138 76 0.20601 0.97855<-60.5233 427.163 476.966 580.473> 290 -23 385 76 0.218984 0.975728<-67.4961 427.125 478.157 593.321>
LayerCount: 2
Fore
SplineSet
139 428 m 1xde
 167 514 203 659 379 659 c 0xee
 423 659 457 636 463 604 c 1
 504 655 539 678 592 678 c 0
 640 678 677 650 677 612 c 0
 677 590 658 573 636 573 c 0
 614 573 599 589 599 612 c 0
 599 621 608 636 608 645 c 0
 608 650 599 656 586 656 c 0
 530 656 494 584 464 428 c 1
 573 428 l 1
 567 395 l 1
 457 395 l 1
 385 76 l 2
 344 -108 274 -207 186 -207 c 0
 142 -207 107 -180 107 -146 c 0
 107 -123 123 -105 144 -105 c 0
 164 -105 183 -122 183 -144 c 0
 183 -151 173 -163 173 -170 c 0
 173 -179 182 -186 193 -186 c 0
 236 -186 268 -130 290 -23 c 2
 378 395 l 1
 209 395 l 1
 138 76 l 2
 97 -108 26 -207 -62 -207 c 0
 -105 -207 -141 -180 -141 -146 c 0
 -141 -123 -125 -105 -104 -105 c 0
 -83 -105 -64 -122 -64 -144 c 0
 -64 -151 -75 -163 -75 -170 c 0
 -75 -179 -66 -186 -54 -186 c 0
 -12 -186 21 -130 42 -23 c 1
 130 395 l 1
 41 395 l 1
 48 428 l 1
 139 428 l 1xde
435 555 m 1
 431 554 428 554 423 554 c 0
 401 554 387 570 387 593 c 0
 387 602 395 617 395 625 c 0
 395 631 387 637 374 637 c 0
 280 637 249 564 215 428 c 1
 387 428 l 1
 404 485 420 525 435 555 c 1
EndSplineSet
LCarets2: 1 0 
Ligature2: "'liga' Standard Ligatures in Latin lookup 2 subtable" f f
EndChar

StartChar: ffi
Encoding: 64259 64259 227
Width: 553
Flags: W
HStem: -207 24<-74.4133 -20.5483 173.762 226.161> -7 44<575.5 647.767> 395 33<48 130 215 379 463 627.502> 417 20G<707 718> 637 22<323.384 394.29> 659 22<577.906 657.406>
VStem: -141 66<-185.463 -126.449> 107 66<-182.544 -126.507> 387 76<428 494.571> 542 76<18.4737 134.84> 628 90<347.974 394.999> 659 69<591.736 655.685>
DStem2: 42 -23 138 76 0.20601 0.97855<-60.5233 427.163 476.966 580.473> 312 86 385 76 0.220167 0.975462<-178.617 316.169>
LayerCount: 2
Fore
SplineSet
139 428 m 1xe3e0
 167 514 203 659 379 659 c 0xebe0
 425 659 460 635 464 600 c 1
 464 600 516 681 625 681 c 0
 686 681 728 652 728 611 c 0
 728 586 712 568 687 568 c 0
 662 568 646 586 646 611 c 0
 646 638 659 634 659 643 c 0
 659 653 646 659 624 659 c 0
 530 659 504 565 463 428 c 1
 614 428 l 2xe7d0
 663 428 702 437 712 437 c 1xd3d0
 718 434 l 1
 718 417 618 66 618 47 c 0
 618 42 623 37 628 37 c 0
 644 37 684 77 706 105 c 1
 722 97 l 1
 666 21 630 -7 590 -7 c 0
 561 -7 542 12 542 41 c 0
 542 64 561 142 605 294 c 1
 624 366 628 382 628 387 c 0
 628 393 624 395 612 395 c 2
 457 395 l 1
 385 76 l 2
 344 -108 274 -207 185 -207 c 0
 139 -207 107 -182 107 -145 c 0
 107 -123 123 -105 144 -105 c 0
 164 -105 183 -122 183 -144 c 0
 183 -154 173 -162 173 -170 c 0
 173 -179 179 -183 193 -183 c 0
 262 -183 282 -69 312 86 c 1
 352 280 374 381 379 395 c 1
 209 395 l 1
 138 76 l 2
 97 -108 26 -207 -62 -207 c 0
 -105 -207 -141 -180 -141 -146 c 0
 -141 -123 -125 -105 -104 -105 c 0
 -83 -105 -64 -122 -64 -144 c 0
 -64 -151 -75 -163 -75 -170 c 0
 -75 -179 -66 -186 -54 -186 c 0
 -12 -186 21 -130 42 -23 c 1
 130 395 l 1
 41 395 l 1
 48 428 l 1
 139 428 l 1xe3e0
435 555 m 1
 431 554 428 554 423 554 c 0
 401 554 387 570 387 593 c 0
 387 602 395 617 395 625 c 0
 395 631 387 637 374 637 c 0
 280 637 249 564 215 428 c 1
 387 428 l 1
 404 486 418 524 435 555 c 1
EndSplineSet
LCarets2: 2 0 0 
Ligature2: "'liga' Standard Ligatures in Latin lookup 2 subtable" ff i
Ligature2: "'liga' Standard Ligatures in Latin lookup 2 subtable" f f i
EndChar

StartChar: ffl
Encoding: 64260 64260 228
Width: 553
Flags: W
HStem: -207 21<-72.8535 -25.077> -204 25<173.752 227.237> -9 46<575.5 649.07> 395 33<48 130 215 378 463 623> 637 22<323.384 394.436> 661 22<581.936 661.154>
VStem: -141 66<-185.463 -126.449> 107 66<-178.437 -122.825> 385 78<428 487.22> 542 76<37.0029 86.0878>
DStem2: 42 -23 138 76 0.20601 0.97855<-60.5233 427.163 476.966 580.473> 623 395 618 57 0.233971 0.972244<-237.88 0 33.7218 183.12>
LayerCount: 2
Fore
SplineSet
658 608 m 0x3fc0
 658 620 669 631 669 639 c 0
 669 649 649 661 627 661 c 0
 555 661 504 595 469 448 c 1
 463 428 l 1
 630 428 l 1
 666 573 l 1
 668 576 l 1
 668 582 658 592 658 608 c 0x3fc0
139 428 m 1
 167 514 203 659 379 659 c 0
 426 659 461 634 464 598 c 1
 510 653 567 683 630 683 c 0
 667 683 704 671 722 671 c 0
 734 671 756 683 760 683 c 0
 763 683 766 678 766 672 c 1
 618 57 l 1
 618 47 l 2
 618 41 623 37 628 37 c 0
 643 37 662 53 706 105 c 1
 722 97 l 1
 664 15 633 -9 590 -9 c 0
 561 -9 542 12 542 41 c 0
 542 101 606 314 623 395 c 1
 457 395 l 1
 388 86 l 2
 346 -103 274 -204 185 -204 c 0
 139 -204 107 -179 107 -142 c 0
 107 -120 123 -103 142 -103 c 0
 164 -103 183 -119 183 -139 c 0
 183 -153 173 -159 173 -166 c 0
 173 -174 180 -179 195 -179 c 0x7fc0
 221 -179 236 -166 259 -125 c 1
 304 -6 334 199 378 395 c 1
 209 395 l 1
 138 76 l 2
 97 -108 26 -207 -62 -207 c 0
 -105 -207 -141 -180 -141 -146 c 0
 -141 -123 -125 -105 -104 -105 c 0
 -83 -105 -64 -122 -64 -144 c 0
 -64 -151 -75 -163 -75 -170 c 0
 -75 -179 -66 -186 -54 -186 c 0xbfc0
 -12 -186 21 -130 42 -23 c 1
 130 395 l 1
 41 395 l 1
 48 428 l 1
 139 428 l 1
435 555 m 1
 431 554 428 554 423 554 c 0
 401 554 387 570 387 593 c 0
 387 602 395 617 395 625 c 0
 395 631 387 637 374 637 c 0
 280 637 249 564 215 428 c 1
 385 428 l 1
 403 486 418 524 435 555 c 1
EndSplineSet
LCarets2: 2 0 0 
Ligature2: "'liga' Standard Ligatures in Latin lookup 2 subtable" ff l
Ligature2: "'liga' Standard Ligatures in Latin lookup 2 subtable" f f l
EndChar

StartChar: uni0E3F
Encoding: 3647 3647 230
Width: 717
Flags: W
HStem: 2 36<264.42 321> 3 17<39 100.871> 359 40<346 420> 674 46<587 617.77> 685 38<423.25 510> 707 15<233 278.846>
VStem: 579 112<162.449 307.84> 650 103<502.648 643.372>
DStem2: 104.199 -106 205.871 -106 0.267238 0.96363<215.184 509.767 551.252 792.883> 293 -106 356 -106 0.267238 0.96363<16.836 111.555 173.835 482.027 548.697 819.259 874.527 962.929>
LayerCount: 2
Fore
SplineSet
691 247 m 0x32
 691 198 654 17 388 3 c 1x72
 356 -106 l 1
 293 -106 l 1
 321 2 l 1xa2
 34 3 l 1
 39 20 l 1
 126 20 149 54 158 88 c 2
 311 637 l 2
 313 644 314 651 314 659 c 0
 314 684 297 705 229 707 c 1
 233 722 l 1x66
 265 722 519 723 521 723 c 1x2a
 550 822 l 1
 613 822 l 1
 587 720 l 1
 684 710 753 671 753 590 c 0x31
 753 525 716 421 565 382 c 1
 563 376 l 1
 633 362 691 321 691 247 c 0x32
500 406 m 1
 613 432 650 521 650 582 c 0x31
 650 632 621 662 574 674 c 1
 500 406 l 1
431 399 m 1
 510 684 l 1
 501 684 492 685 484 685 c 0x28
 442 685 423 677 415 650 c 2
 346 399 l 1
 431 399 l 1
331 38 m 9xa0
 420 359 l 1
 335 359 l 1
 263 100 l 2
 260 90 259 82 259 74 c 0
 259 51 275 38 331 38 c 9xa0
572 203 m 0
 577 219 579 234 579 247 c 0x22
 579 306 536 336 484 349 c 1
 399 45 l 1
 479 58 544 100 572 203 c 0
EndSplineSet
EndChar

StartChar: dotlessi
Encoding: 305 305 237
Width: 276
Flags: W
HStem: -12 49<79.5 155.449> 400 16<64 120.002> 421 20G<175.5 229>
VStem: 48 77<15.788 118.003>
DStem2: 23.6868 -12 103.326 -12 0.267238 0.96363<88.2831 401.13>
LayerCount: 2
Fore
SplineSet
141 37 m 0
 167 37 214 102 223 114 c 1
 234 103 l 1
 179 19 141 -12 95 -12 c 0
 64 -12 48 9 48 45 c 0
 48 66 56 97 70 155 c 1
 119 333 l 2
 125 352 127 368 127 376 c 0
 127 395 119 398 64 400 c 1
 64 416 l 1
 104 419 125 422 226 441 c 1
 229 439 l 1
 135 95 133 95 133 95 c 2
 128 76 125 62 125 51 c 0
 125 44 132 37 141 37 c 0
EndSplineSet
EndChar

StartChar: dotlessj
Encoding: 567 567 238
Width: 276
Flags: W
HStem: -207 22<-55.7404 -9.72831> 400 16<73 133.693> 421 20G<198.5 246>
VStem: -125 69<-184.817 -125.37>
DStem2: 2.42579 -207 76.8287 -207 0.267238 0.96363<86.6144 592.956>
LayerCount: 2
Fore
SplineSet
-42 -141 m 0
 -42 -159 -56 -162 -56 -173 c 0
 -56 -180 -50 -185 -38 -185 c 0
 1 -185 25 -141 59 -3 c 2
 130 289 l 1
 142 333 146 359 146 369 c 0
 146 394 136 398 73 400 c 1
 73 416 l 1
 104 417 154 425 243 441 c 1
 246 439 l 1
 142 28 l 2
 103 -130 42 -207 -45 -207 c 0
 -91 -207 -125 -182 -125 -146 c 0
 -125 -122 -107 -104 -83 -104 c 0
 -62 -104 -42 -120 -42 -141 c 0
EndSplineSet
EndChar

